{"glyphs":{"0":{"ha":953,"x_min":72,"x_max":883,"o":"m 497 849 q 785 737 686 849 q 883 422 883 625 q 827 201 882 301 q 678 42 772 100 q 472 -17 585 -17 q 258 40 349 -17 q 119 194 167 96 q 72 415 72 292 q 128 638 72 539 q 282 792 185 736 q 497 849 379 849 m 463 746 q 360 667 386 746 q 335 442 335 588 q 353 283 335 365 q 406 144 371 200 q 488 88 440 88 q 594 168 569 83 q 619 414 619 253 q 581 649 619 553 q 463 746 543 746 z "},"1":{"ha":675,"x_min":42,"x_max":646,"o":"m 254 126 l 254 618 l 65 597 l 42 707 q 229 779 100 724 q 390 860 358 835 l 489 847 l 485 126 l 646 99 l 646 0 l 76 0 l 76 99 l 254 126 z "},"2":{"ha":856,"x_min":54,"x_max":818,"o":"m 60 88 q 265 233 165 150 q 428 403 364 315 q 492 563 492 490 q 452 669 492 628 q 347 711 413 711 q 228 688 281 711 q 113 614 175 664 l 54 701 q 144 781 82 746 q 283 837 207 817 q 422 857 358 857 q 582 827 508 857 q 699 742 656 797 q 742 617 742 688 q 684 437 742 518 q 542 291 626 356 q 300 122 458 226 l 657 171 l 719 250 l 818 221 l 771 0 l 94 0 l 60 88 z "},"3":{"ha":756,"x_min":29,"x_max":703,"o":"m 353 861 q 557 801 478 861 q 636 632 636 742 q 606 530 636 582 q 528 438 576 478 q 428 382 479 399 q 626 312 550 379 q 703 136 703 244 q 636 -54 703 28 q 460 -181 569 -136 q 226 -225 351 -225 q 78 -211 153 -225 l 76 -90 q 189 -104 132 -104 q 331 -76 267 -104 q 432 5 394 -49 q 469 129 469 58 q 306 314 469 294 l 250 303 l 160 283 l 160 408 q 278 441 221 413 q 373 517 336 469 q 410 621 410 565 q 376 698 410 669 q 297 726 343 726 q 197 713 235 726 q 88 658 158 699 l 29 744 q 178 831 92 800 q 353 861 264 861 z "},"4":{"ha":888,"x_min":51,"x_max":864,"o":"m 51 88 q 305 519 208 349 q 481 864 401 690 l 547 864 l 703 760 l 289 169 l 240 111 l 544 143 l 554 400 l 742 422 l 742 164 l 864 176 l 864 0 l 742 0 l 742 -256 l 528 -256 l 539 0 l 85 0 l 51 88 z "},"5":{"ha":772,"x_min":74,"x_max":714,"o":"m 74 -124 q 128 -126 110 -126 q 372 -54 278 -126 q 467 154 467 18 q 417 304 467 254 q 279 354 368 354 q 176 340 239 354 l 88 367 l 129 839 l 581 839 l 600 864 l 688 864 l 631 660 l 286 660 l 242 457 q 388 479 314 479 q 553 444 479 479 q 671 341 628 408 q 714 182 714 274 q 636 -42 714 53 q 431 -187 558 -137 q 157 -237 303 -237 q 74 -229 101 -237 l 74 -124 z "},"6":{"ha":914,"x_min":78,"x_max":846,"o":"m 751 951 q 537 842 638 924 q 375 649 436 761 q 314 422 314 538 q 348 174 314 264 q 474 83 382 83 q 582 151 546 83 q 618 321 618 218 q 599 413 618 368 q 546 485 581 457 q 468 513 511 513 q 383 493 419 513 l 351 557 q 440 628 375 600 q 567 657 504 657 q 772 576 699 657 q 846 360 846 494 q 795 162 846 247 q 654 30 744 76 q 449 -17 564 -17 q 256 34 340 -17 q 125 174 172 85 q 78 374 78 263 q 163 683 78 538 q 391 926 249 828 q 697 1051 533 1024 l 751 951 z "},"7":{"ha":836,"x_min":81,"x_max":799,"o":"m 178 -146 q 395 275 282 42 q 610 736 508 508 l 274 718 l 222 563 l 81 565 l 106 850 l 758 850 l 799 807 l 411 -228 l 178 -146 z "},"8":{"ha":879,"x_min":67,"x_max":819,"o":"m 447 1063 q 679 998 588 1063 q 771 815 771 933 q 744 719 771 769 q 676 628 718 668 q 592 574 633 589 q 761 431 703 499 q 819 282 819 364 q 769 119 819 186 q 636 17 719 51 q 451 -17 553 -17 q 176 52 285 -17 q 67 253 67 121 q 129 421 67 344 q 289 531 192 497 q 159 656 204 592 q 114 796 114 719 q 160 940 114 879 q 282 1031 206 1000 q 447 1063 358 1063 m 436 967 q 350 934 386 967 q 314 850 314 901 q 363 744 314 793 q 504 632 411 694 q 560 701 542 658 q 579 796 579 743 q 538 917 579 868 q 436 967 497 967 m 375 471 q 304 396 331 438 q 278 310 278 354 q 330 149 278 214 q 463 83 382 83 q 564 124 526 83 q 601 231 601 164 q 572 315 601 275 q 497 388 542 356 q 375 471 453 421 z "},"9":{"ha":903,"x_min":61,"x_max":831,"o":"m 190 -176 q 389 -57 296 -151 q 538 165 482 38 q 593 413 593 293 q 559 660 593 569 q 435 751 525 751 q 326 683 363 751 q 289 513 289 615 q 308 422 289 465 q 362 350 328 378 q 439 322 396 322 q 524 342 490 322 l 556 276 q 471 202 529 226 q 340 178 413 178 q 135 260 208 178 q 61 474 61 342 q 111 672 61 586 q 251 803 161 757 q 458 850 342 850 q 654 799 569 850 q 785 660 739 749 q 831 461 831 571 q 750 133 831 294 q 534 -139 669 -28 q 243 -278 399 -250 l 190 -176 z "},"\r":{"ha":0,"x_min":0,"x_max":0,"o":""}," ":{"ha":311,"x_min":0,"x_max":0,"o":""},"A":{"ha":1085,"x_min":3,"x_max":1082,"o":"m 93 122 l 428 1053 l 654 1053 l 979 121 l 1082 93 l 1082 0 l 618 0 l 618 93 l 708 124 l 679 228 l 313 228 l 282 126 l 383 94 l 383 0 l 3 0 l 3 94 l 93 122 m 553 664 l 503 850 l 351 353 l 643 353 l 553 664 z "},"Á":{"ha":1085,"x_min":3,"x_max":1082,"o":"m 706 1303 l 836 1172 q 688 1112 793 1139 q 507 1081 583 1085 l 439 1153 l 706 1303 m 93 122 l 428 1053 l 654 1053 l 979 121 l 1082 93 l 1082 0 l 618 0 l 618 93 l 708 124 l 679 228 l 313 228 l 282 126 l 383 94 l 383 0 l 3 0 l 3 94 l 93 122 m 553 664 l 503 850 l 351 353 l 643 353 l 553 664 z "},"Ă":{"ha":1085,"x_min":3,"x_max":1082,"o":"m 3 0 m 797 1331 q 764 1214 797 1267 q 673 1130 731 1161 q 544 1099 615 1099 q 415 1128 474 1099 q 324 1212 357 1158 q 290 1331 290 1265 l 433 1331 q 544 1236 457 1236 q 657 1331 632 1236 l 797 1331 m 93 122 l 428 1053 l 654 1053 l 979 121 l 1082 93 l 1082 0 l 618 0 l 618 93 l 708 124 l 679 228 l 313 228 l 282 126 l 383 94 l 383 0 l 3 0 l 3 94 l 93 122 m 553 664 l 503 850 l 351 353 l 643 353 l 553 664 z "},"Â":{"ha":1085,"x_min":3,"x_max":1082,"o":"m 464 1303 l 622 1303 l 806 1132 l 729 1083 l 544 1171 l 353 1083 l 278 1132 l 464 1303 m 93 122 l 428 1053 l 654 1053 l 979 121 l 1082 93 l 1082 0 l 618 0 l 618 93 l 708 124 l 679 228 l 313 228 l 282 126 l 383 94 l 383 0 l 3 0 l 3 94 l 93 122 m 553 664 l 503 850 l 351 353 l 643 353 l 553 664 z "},"Ä":{"ha":1085,"x_min":3,"x_max":1082,"o":"m 367 1303 q 456 1279 421 1303 q 492 1207 492 1256 q 448 1128 492 1158 q 347 1097 404 1097 q 263 1122 299 1097 q 228 1190 228 1146 q 270 1271 228 1239 q 367 1303 313 1303 m 736 1303 q 824 1280 792 1303 q 857 1208 857 1257 q 817 1130 857 1161 q 719 1099 778 1099 q 631 1124 667 1099 q 596 1193 596 1150 q 640 1272 596 1240 q 736 1303 683 1303 m 979 121 l 1082 93 l 1082 0 l 618 0 l 618 93 l 708 124 l 679 228 l 313 228 l 282 126 l 383 94 l 383 0 l 3 0 l 3 94 l 93 122 l 428 1053 l 654 1053 l 979 121 m 351 353 l 643 353 l 553 664 l 503 850 l 351 353 z "},"À":{"ha":1085,"x_min":3,"x_max":1082,"o":"m 571 1081 q 400 1113 499 1085 q 256 1172 301 1140 l 386 1303 l 639 1153 l 571 1081 m 93 122 l 428 1053 l 654 1053 l 979 121 l 1082 93 l 1082 0 l 618 0 l 618 93 l 708 124 l 679 228 l 313 228 l 282 126 l 383 94 l 383 0 l 3 0 l 3 94 l 93 122 m 553 664 l 503 850 l 351 353 l 643 353 l 553 664 z "},"Ā":{"ha":1085,"x_min":3,"x_max":1082,"o":"m 3 0 m 728 1283 l 728 1121 l 344 1121 l 344 1283 l 728 1283 m 93 122 l 428 1053 l 654 1053 l 979 121 l 1082 93 l 1082 0 l 618 0 l 618 93 l 708 124 l 679 228 l 313 228 l 282 126 l 383 94 l 383 0 l 3 0 l 3 94 l 93 122 m 553 664 l 503 850 l 351 353 l 643 353 l 553 664 z "},"Ą":{"ha":1085,"x_min":3,"x_max":1082,"o":"m 93 122 l 428 1053 l 654 1053 l 979 121 l 1082 93 l 1082 0 l 921 0 q 782 -71 846 -25 q 718 -164 718 -117 q 769 -203 718 -203 q 841 -194 810 -203 q 931 -165 872 -186 l 956 -257 q 647 -349 826 -349 q 543 -317 583 -349 q 503 -237 503 -286 q 541 -145 503 -193 q 638 -58 579 -97 q 754 0 696 -19 l 618 0 l 618 93 l 708 124 l 679 228 l 313 228 l 282 126 l 383 94 l 383 0 l 3 0 l 3 94 l 93 122 m 553 664 l 503 850 l 351 353 l 643 353 l 553 664 z "},"Å":{"ha":1085,"x_min":3,"x_max":1082,"o":"m 543 1303 q 688 1257 629 1303 q 746 1135 746 1211 q 726 1058 746 1092 q 671 1003 706 1025 l 979 121 l 1082 93 l 1082 0 l 618 0 l 618 93 l 708 124 l 679 228 l 313 228 l 282 126 l 383 94 l 383 0 l 3 0 l 3 94 l 93 122 l 411 1006 q 342 1135 342 1050 q 398 1258 342 1214 q 543 1303 454 1303 m 543 1217 q 481 1194 504 1217 q 457 1135 457 1171 q 481 1077 457 1100 q 543 1054 506 1054 q 602 1076 576 1054 q 628 1135 628 1099 q 604 1192 628 1167 q 543 1217 581 1217 m 351 353 l 643 353 l 553 664 l 503 850 l 351 353 z "},"Ã":{"ha":1085,"x_min":3,"x_max":1082,"o":"m 253 1161 q 301 1228 265 1196 q 383 1282 338 1261 q 461 1303 428 1303 q 518 1293 492 1303 q 582 1264 544 1283 q 626 1242 610 1249 q 660 1235 643 1235 q 772 1282 719 1235 l 833 1217 q 749 1126 811 1164 q 629 1088 686 1088 q 569 1098 596 1088 q 507 1128 542 1108 q 460 1150 478 1143 q 425 1157 443 1157 q 311 1108 369 1157 l 253 1161 m 93 122 l 428 1053 l 654 1053 l 979 121 l 1082 93 l 1082 0 l 618 0 l 618 93 l 708 124 l 679 228 l 313 228 l 282 126 l 383 94 l 383 0 l 3 0 l 3 94 l 93 122 m 553 664 l 503 850 l 351 353 l 643 353 l 553 664 z "},"Æ":{"ha":1314,"x_min":3,"x_max":1307,"o":"m 86 118 l 461 1053 l 1182 1053 l 1207 821 l 1075 821 l 1032 922 l 740 938 l 842 610 l 1013 614 l 1039 715 l 1146 715 l 1146 379 l 1038 379 l 1011 478 l 881 488 l 1000 101 l 1114 121 l 1189 249 l 1307 225 l 1272 0 l 636 0 l 636 94 l 743 122 l 711 228 l 296 228 l 257 124 l 376 96 l 376 0 l 3 0 l 3 96 l 86 118 m 557 754 l 535 856 l 347 360 l 672 360 l 557 754 z "},"B":{"ha":988,"x_min":54,"x_max":957,"o":"m 160 124 l 160 926 l 57 942 l 57 1053 l 268 1053 q 397 1058 306 1053 q 451 1061 422 1060 q 506 1063 479 1063 q 783 1003 682 1063 q 885 811 885 943 q 838 655 885 719 q 707 568 790 590 q 833 533 775 568 q 924 439 890 497 q 957 315 957 381 q 833 65 957 136 q 475 -7 710 -7 q 358 -4 436 -7 q 207 0 294 0 l 54 0 l 54 94 l 160 124 m 400 599 q 488 593 428 593 q 618 642 582 593 q 654 794 654 692 q 609 919 654 879 q 472 958 564 958 q 401 949 433 958 l 400 599 m 399 111 q 453 98 415 103 q 538 93 490 93 q 662 153 619 93 q 704 304 704 213 q 653 440 704 388 q 528 492 603 492 q 399 483 442 492 l 399 111 z "},"C":{"ha":1000,"x_min":46,"x_max":931,"o":"m 643 1063 q 903 1026 763 1063 q 931 1019 903 1026 l 917 756 l 775 756 l 725 894 q 685 924 715 911 q 579 938 656 938 q 435 886 494 938 q 344 747 375 835 q 314 553 314 660 q 347 331 314 436 q 442 162 379 226 q 594 97 506 97 q 700 109 657 97 q 757 151 743 121 l 813 288 l 931 288 l 931 46 q 867 31 921 46 q 727 -6 793 8 q 578 -19 661 -19 q 299 43 419 -19 q 112 222 178 106 q 46 492 46 338 q 125 782 46 651 q 341 988 204 913 q 643 1063 478 1063 z "},"Ć":{"ha":1000,"x_min":46,"x_max":931,"o":"m 46 0 m 643 1063 q 903 1026 763 1063 q 931 1019 903 1026 l 917 756 l 775 756 l 725 894 q 685 924 715 911 q 579 938 656 938 q 435 886 494 938 q 344 747 375 835 q 314 553 314 660 q 347 331 314 436 q 442 162 379 226 q 594 97 506 97 q 700 109 657 97 q 757 151 743 121 l 813 288 l 931 288 l 931 46 q 867 31 921 46 q 727 -6 793 8 q 578 -19 661 -19 q 299 43 419 -19 q 112 222 178 106 q 46 492 46 338 q 125 782 46 651 q 341 988 204 913 q 643 1063 478 1063 m 718 1303 l 849 1172 q 701 1112 806 1139 q 519 1081 596 1085 l 451 1153 l 718 1303 z "},"Č":{"ha":1000,"x_min":46,"x_max":931,"o":"m 46 0 m 643 1063 q 903 1026 763 1063 q 931 1019 903 1026 l 917 756 l 775 756 l 725 894 q 685 924 715 911 q 579 938 656 938 q 435 886 494 938 q 344 747 375 835 q 314 553 314 660 q 347 331 314 436 q 442 162 379 226 q 594 97 506 97 q 700 109 657 97 q 757 151 743 121 l 813 288 l 931 288 l 931 46 q 867 31 921 46 q 727 -6 793 8 q 578 -19 661 -19 q 299 43 419 -19 q 112 222 178 106 q 46 492 46 338 q 125 782 46 651 q 341 988 204 913 q 643 1063 478 1063 m 364 1303 l 554 1215 l 753 1303 l 828 1253 l 635 1083 l 478 1083 l 288 1253 l 364 1303 z "},"Ç":{"ha":993,"x_min":44,"x_max":929,"o":"m 640 1063 q 770 1053 714 1063 q 903 1026 826 1043 q 929 1019 906 1025 l 915 756 l 772 756 l 724 894 q 683 924 714 911 q 576 938 653 938 q 432 885 492 938 q 342 746 372 833 q 313 553 313 658 q 345 330 313 435 q 441 161 378 225 q 592 97 504 97 q 705 110 665 97 q 756 151 744 124 l 811 288 l 929 288 l 929 46 q 892 38 919 46 q 856 28 865 31 q 742 -3 788 8 q 653 -15 696 -14 q 657 -89 653 -26 q 761 -131 721 -94 q 801 -219 801 -168 q 744 -327 801 -293 q 592 -361 686 -361 q 522 -355 560 -361 q 446 -340 485 -349 l 446 -239 q 486 -245 461 -242 q 531 -249 511 -249 q 565 -238 553 -249 q 578 -210 578 -228 q 566 -182 578 -192 q 536 -172 554 -172 l 496 -174 q 505 -96 496 -146 q 524 -17 514 -46 q 269 58 378 -8 q 103 237 161 125 q 44 492 44 349 q 124 785 44 656 q 341 989 204 915 q 640 1063 478 1063 z "},"D":{"ha":1096,"x_min":61,"x_max":1051,"o":"m 160 122 l 160 928 l 64 942 l 64 1053 l 286 1053 q 343 1054 317 1053 q 390 1057 369 1056 q 524 1063 476 1063 q 917 933 782 1063 q 1051 557 1051 804 q 984 259 1051 386 q 794 63 917 132 q 506 -7 671 -7 q 400 -4 469 -7 q 290 0 346 0 l 61 0 l 61 94 l 160 122 m 403 121 q 507 99 438 99 q 563 101 543 99 q 690 167 638 107 q 770 317 743 226 q 797 507 797 407 q 508 954 797 954 q 403 935 438 954 l 403 121 z "},"Ð":{"ha":1093,"x_min":33,"x_max":1051,"o":"m 160 122 l 160 478 l 33 478 l 33 618 l 160 618 l 160 928 l 64 942 l 64 1053 l 286 1053 q 343 1054 317 1053 q 390 1057 369 1056 q 524 1063 476 1063 q 917 933 782 1063 q 1051 557 1051 804 q 984 259 1051 386 q 794 63 917 132 q 506 -7 671 -7 q 400 -4 469 -7 q 290 0 346 0 l 61 0 l 61 94 l 160 122 m 403 121 q 507 99 438 99 q 563 101 543 99 q 690 167 638 107 q 770 317 743 226 q 797 507 797 407 q 725 841 797 731 q 508 954 653 951 q 403 935 438 954 l 403 618 l 588 618 l 588 478 l 403 478 l 403 121 z "},"Ď":{"ha":1096,"x_min":61,"x_max":1051,"o":"m 61 0 m 160 122 l 160 928 l 64 942 l 64 1053 l 286 1053 q 343 1054 317 1053 q 390 1057 369 1056 q 524 1063 476 1063 q 917 933 782 1063 q 1051 557 1051 804 q 984 259 1051 386 q 794 63 917 132 q 506 -7 671 -7 q 400 -4 469 -7 q 290 0 346 0 l 61 0 l 61 94 l 160 122 m 403 121 q 507 99 438 99 q 563 101 543 99 q 690 167 638 107 q 770 317 743 226 q 797 507 797 407 q 508 954 797 954 q 403 935 438 954 l 403 121 m 304 1303 l 494 1215 l 693 1303 l 768 1253 l 575 1083 l 418 1083 l 228 1253 l 304 1303 z "},"Đ":{"ha":1093,"x_min":33,"x_max":1051,"o":"m 33 0 m 160 122 l 160 478 l 33 478 l 33 618 l 160 618 l 160 928 l 64 942 l 64 1053 l 286 1053 q 343 1054 317 1053 q 390 1057 369 1056 q 524 1063 476 1063 q 917 933 782 1063 q 1051 557 1051 804 q 984 259 1051 386 q 794 63 917 132 q 506 -7 671 -7 q 400 -4 469 -7 q 290 0 346 0 l 61 0 l 61 94 l 160 122 m 403 121 q 507 99 438 99 q 563 101 543 99 q 690 167 638 107 q 770 317 743 226 q 797 507 797 407 q 725 841 797 731 q 508 954 653 951 q 403 935 438 954 l 403 618 l 588 618 l 588 478 l 403 478 l 403 121 z "},"E":{"ha":967,"x_min":68,"x_max":933,"o":"m 168 121 l 168 926 l 72 942 l 72 1053 l 842 1053 l 863 821 l 724 821 l 660 929 l 408 944 l 408 592 l 582 599 l 619 700 l 742 700 l 742 369 l 619 369 l 582 476 l 408 481 l 408 108 l 707 128 l 793 261 l 933 236 l 897 0 l 68 0 l 68 94 l 168 121 z "},"É":{"ha":967,"x_min":68,"x_max":933,"o":"m 667 1303 l 797 1172 q 649 1112 754 1139 q 468 1081 544 1085 l 400 1153 l 667 1303 m 168 121 l 168 926 l 72 942 l 72 1053 l 842 1053 l 863 821 l 724 821 l 660 929 l 408 944 l 408 592 l 582 599 l 619 700 l 742 700 l 742 369 l 619 369 l 582 476 l 408 481 l 408 108 l 707 128 l 793 261 l 933 236 l 897 0 l 68 0 l 68 94 l 168 121 z "},"Ě":{"ha":967,"x_min":68,"x_max":933,"o":"m 68 0 m 168 121 l 168 926 l 72 942 l 72 1053 l 842 1053 l 863 821 l 724 821 l 660 929 l 408 944 l 408 592 l 582 599 l 619 700 l 742 700 l 742 369 l 619 369 l 582 476 l 408 481 l 408 108 l 707 128 l 793 261 l 933 236 l 897 0 l 68 0 l 68 94 l 168 121 m 304 1303 l 494 1215 l 693 1303 l 768 1253 l 575 1083 l 418 1083 l 228 1253 l 304 1303 z "},"Ê":{"ha":967,"x_min":68,"x_max":933,"o":"m 425 1303 l 582 1303 l 765 1132 l 690 1083 l 506 1171 l 314 1083 l 239 1132 l 425 1303 m 168 121 l 168 926 l 72 942 l 72 1053 l 842 1053 l 863 821 l 724 821 l 660 929 l 408 944 l 408 592 l 582 599 l 619 700 l 742 700 l 742 369 l 619 369 l 582 476 l 408 481 l 408 108 l 707 128 l 793 261 l 933 236 l 897 0 l 68 0 l 68 94 l 168 121 z "},"Ë":{"ha":967,"x_min":68,"x_max":933,"o":"m 328 1303 q 417 1279 382 1303 q 453 1207 453 1256 q 409 1128 453 1158 q 308 1097 365 1097 q 224 1122 260 1097 q 189 1190 189 1146 q 231 1271 189 1239 q 328 1303 274 1303 m 697 1303 q 785 1280 753 1303 q 818 1208 818 1257 q 778 1130 818 1161 q 681 1099 739 1099 q 592 1124 628 1099 q 557 1193 557 1150 q 601 1272 557 1240 q 697 1303 644 1303 m 863 821 l 724 821 l 660 929 l 408 944 l 408 592 l 582 599 l 619 700 l 742 700 l 742 369 l 619 369 l 582 476 l 408 481 l 408 108 l 707 128 l 793 261 l 933 236 l 897 0 l 68 0 l 68 94 l 168 121 l 168 926 l 72 942 l 72 1053 l 842 1053 l 863 821 z "},"Ė":{"ha":967,"x_min":68,"x_max":933,"o":"m 68 0 m 168 121 l 168 926 l 72 942 l 72 1053 l 842 1053 l 863 821 l 724 821 l 660 929 l 408 944 l 408 592 l 582 599 l 619 700 l 742 700 l 742 369 l 619 369 l 582 476 l 408 481 l 408 108 l 707 128 l 793 261 l 933 236 l 897 0 l 68 0 l 68 94 l 168 121 m 517 1303 q 606 1279 571 1303 q 642 1207 642 1256 q 598 1128 642 1158 q 497 1097 554 1097 q 413 1122 449 1097 q 378 1190 378 1146 q 420 1271 378 1239 q 517 1303 463 1303 z "},"È":{"ha":967,"x_min":68,"x_max":933,"o":"m 532 1081 q 440 1092 507 1079 q 309 1128 374 1106 q 217 1172 244 1150 l 347 1303 l 600 1153 l 532 1081 m 168 121 l 168 926 l 72 942 l 72 1053 l 842 1053 l 863 821 l 724 821 l 660 929 l 408 944 l 408 592 l 582 599 l 619 700 l 742 700 l 742 369 l 619 369 l 582 476 l 408 481 l 408 108 l 707 128 l 793 261 l 933 236 l 897 0 l 68 0 l 68 94 l 168 121 z "},"Ē":{"ha":967,"x_min":68,"x_max":933,"o":"m 68 0 m 168 121 l 168 926 l 72 942 l 72 1053 l 842 1053 l 863 821 l 724 821 l 660 929 l 408 944 l 408 592 l 582 599 l 619 700 l 742 700 l 742 369 l 619 369 l 582 476 l 408 481 l 408 108 l 707 128 l 793 261 l 933 236 l 897 0 l 68 0 l 68 94 l 168 121 m 703 1283 l 703 1121 l 319 1121 l 319 1283 l 703 1283 z "},"Ę":{"ha":967,"x_min":68,"x_max":933,"o":"m 168 121 l 168 926 l 72 942 l 72 1053 l 842 1053 l 863 821 l 724 821 l 660 929 l 408 944 l 408 592 l 582 599 l 619 700 l 742 700 l 742 369 l 619 369 l 582 476 l 408 481 l 408 108 l 707 128 l 793 261 l 933 236 l 897 0 l 869 0 q 731 -72 792 -26 q 669 -164 669 -117 q 719 -203 669 -203 q 791 -194 760 -203 q 881 -165 822 -186 l 904 -257 q 597 -349 776 -349 q 492 -317 532 -349 q 453 -232 453 -286 q 491 -144 453 -190 q 588 -58 529 -97 q 704 0 647 -19 l 68 0 l 68 94 l 168 121 z "},"F":{"ha":897,"x_min":54,"x_max":853,"o":"m 160 117 l 160 928 l 54 942 l 54 1053 l 832 1053 l 853 817 l 733 815 l 685 919 l 400 935 l 400 579 l 596 588 l 640 692 l 742 692 l 742 346 l 629 346 l 599 457 l 401 460 l 401 126 l 618 108 l 618 0 l 58 0 l 58 94 l 160 117 z "},"G":{"ha":1075,"x_min":44,"x_max":1024,"o":"m 606 1063 q 794 1052 692 1063 q 951 1025 896 1042 l 936 793 l 814 793 l 751 915 q 697 942 739 929 q 592 956 656 956 q 434 901 499 956 q 338 758 369 847 q 306 561 306 668 q 369 224 306 358 q 572 89 433 89 q 686 114 631 89 q 747 175 742 139 l 747 349 l 604 368 l 604 481 l 1024 481 l 1024 368 l 960 351 l 960 36 q 926 39 938 39 q 854 32 893 39 q 754 13 815 25 q 627 -11 678 -3 q 529 -19 576 -19 q 276 49 386 -19 q 105 238 165 118 q 44 507 44 357 q 115 802 44 676 q 312 995 185 928 q 606 1063 439 1063 z "},"Ğ":{"ha":1075,"x_min":44,"x_max":1024,"o":"m 44 0 m 606 1063 q 794 1052 692 1063 q 951 1025 896 1042 l 936 793 l 814 793 l 751 915 q 697 942 739 929 q 592 956 656 956 q 434 901 499 956 q 338 758 369 847 q 306 561 306 668 q 369 224 306 358 q 572 89 433 89 q 686 114 631 89 q 747 175 742 139 l 747 349 l 604 368 l 604 481 l 1024 481 l 1024 368 l 960 351 l 960 36 q 926 39 938 39 q 854 32 893 39 q 754 13 815 25 q 627 -11 678 -3 q 529 -19 576 -19 q 276 49 386 -19 q 105 238 165 118 q 44 507 44 357 q 115 802 44 676 q 312 995 185 928 q 606 1063 439 1063 m 842 1303 q 808 1186 842 1239 q 717 1102 775 1133 q 589 1071 660 1071 q 460 1101 518 1071 q 368 1184 401 1131 q 335 1303 335 1238 l 478 1303 q 589 1208 501 1208 q 701 1303 676 1208 l 842 1303 z "},"Ģ":{"ha":1075,"x_min":44,"x_max":1024,"o":"m 44 0 m 606 1063 q 794 1052 692 1063 q 951 1025 896 1042 l 936 793 l 814 793 l 751 915 q 697 942 739 929 q 592 956 656 956 q 434 901 499 956 q 338 758 369 847 q 306 561 306 668 q 369 224 306 358 q 572 89 433 89 q 686 114 631 89 q 747 175 742 139 l 747 349 l 604 368 l 604 481 l 1024 481 l 1024 368 l 960 351 l 960 36 q 926 39 938 39 q 854 32 893 39 q 754 13 815 25 q 627 -11 678 -3 q 529 -19 576 -19 q 276 49 386 -19 q 105 238 165 118 q 44 507 44 357 q 115 802 44 676 q 312 995 185 928 q 606 1063 439 1063 m 540 -28 q 669 -81 619 -28 q 718 -218 718 -135 q 665 -350 718 -287 q 546 -435 613 -412 l 460 -400 l 460 -385 q 510 -333 496 -354 q 525 -281 525 -311 q 499 -217 525 -243 q 440 -190 472 -190 l 440 -137 l 540 -28 z "},"H":{"ha":1207,"x_min":40,"x_max":1174,"o":"m 160 124 l 160 926 l 40 942 l 40 1053 l 519 1053 l 519 942 l 403 926 l 403 599 l 806 599 l 806 929 l 692 942 l 692 1053 l 1167 1053 l 1167 942 l 1047 928 l 1047 122 l 1174 93 l 1174 0 l 682 0 l 682 93 l 806 122 l 806 468 l 403 468 l 403 124 l 526 94 l 526 0 l 44 0 l 44 94 l 160 124 z "},"I":{"ha":575,"x_min":38,"x_max":538,"o":"m 165 122 l 165 926 l 38 942 l 38 1053 l 531 1053 l 531 942 l 410 925 l 410 124 l 538 94 l 538 0 l 38 0 l 38 94 l 165 122 z "},"Ĳ":{"ha":1108,"x_min":38,"x_max":1074,"o":"m 165 122 l 165 926 l 38 942 l 38 1053 l 531 1053 l 531 942 l 410 925 l 410 124 l 538 94 l 538 0 l 38 0 l 38 94 l 165 122 m 499 -200 q 623 -133 574 -172 q 699 -32 672 -93 q 726 99 721 31 q 732 275 732 167 l 732 926 l 632 942 l 632 1053 l 1074 1053 l 1074 942 l 978 926 l 978 363 q 968 131 978 236 q 936 -28 958 26 q 840 -153 907 -99 q 694 -238 774 -208 q 546 -268 614 -268 l 499 -200 z "},"Í":{"ha":575,"x_min":38,"x_max":576,"o":"m 446 1303 l 576 1172 q 428 1112 533 1139 q 247 1081 324 1085 l 179 1153 l 446 1303 m 165 122 l 165 926 l 38 942 l 38 1053 l 531 1053 l 531 942 l 410 925 l 410 124 l 538 94 l 538 0 l 38 0 l 38 94 l 165 122 z "},"Î":{"ha":575,"x_min":19,"x_max":546,"o":"m 206 1303 l 363 1303 l 546 1132 l 469 1083 l 286 1171 l 94 1083 l 19 1132 l 206 1303 m 165 122 l 165 926 l 38 942 l 38 1053 l 531 1053 l 531 942 l 410 925 l 410 124 l 538 94 l 538 0 l 38 0 l 38 94 l 165 122 z "},"Ï":{"ha":575,"x_min":-32,"x_max":597,"o":"m 107 1303 q 197 1279 161 1303 q 232 1207 232 1256 q 188 1128 232 1158 q 88 1097 144 1097 q 3 1122 39 1097 q -32 1190 -32 1146 q 10 1271 -32 1239 q 107 1303 53 1303 m 476 1303 q 565 1280 532 1303 q 597 1208 597 1257 q 558 1130 597 1161 q 460 1099 518 1099 q 372 1124 407 1099 q 336 1193 336 1150 q 380 1272 336 1240 q 476 1303 424 1303 m 531 942 l 410 925 l 410 124 l 538 94 l 538 0 l 38 0 l 38 94 l 165 122 l 165 926 l 38 942 l 38 1053 l 531 1053 l 531 942 z "},"İ":{"ha":575,"x_min":38,"x_max":538,"o":"m 38 0 m 165 122 l 165 926 l 38 942 l 38 1053 l 531 1053 l 531 942 l 410 925 l 410 124 l 538 94 l 538 0 l 38 0 l 38 94 l 165 122 m 292 1303 q 381 1279 346 1303 q 417 1207 417 1256 q 373 1128 417 1158 q 272 1097 329 1097 q 188 1122 224 1097 q 153 1190 153 1146 q 195 1271 153 1239 q 292 1303 238 1303 z "},"Ì":{"ha":575,"x_min":-3,"x_max":538,"o":"m 313 1081 q 221 1092 288 1079 q 90 1128 154 1106 q -3 1172 25 1150 l 128 1303 l 381 1153 l 313 1081 m 165 122 l 165 926 l 38 942 l 38 1053 l 531 1053 l 531 942 l 410 925 l 410 124 l 538 94 l 538 0 l 38 0 l 38 94 l 165 122 z "},"Ī":{"ha":575,"x_min":38,"x_max":538,"o":"m 38 0 m 479 1283 l 479 1121 l 96 1121 l 96 1283 l 479 1283 m 165 122 l 165 926 l 38 942 l 38 1053 l 531 1053 l 531 942 l 410 925 l 410 124 l 538 94 l 538 0 l 38 0 l 38 94 l 165 122 z "},"Į":{"ha":575,"x_min":38,"x_max":538,"o":"m 493 0 q 406 -35 454 -8 q 325 -96 358 -61 q 292 -164 292 -131 q 342 -203 292 -203 q 393 -197 371 -203 q 450 -176 415 -190 l 476 -165 l 500 -257 q 219 -349 393 -349 q 115 -317 156 -349 q 75 -235 75 -286 q 113 -145 75 -192 q 210 -60 151 -99 q 328 0 269 -21 l 38 0 l 38 94 l 165 122 l 165 926 l 38 942 l 38 1053 l 531 1053 l 531 942 l 410 925 l 410 124 l 538 94 l 538 0 l 493 0 z "},"Ĩ":{"ha":575,"x_min":-7,"x_max":574,"o":"m -7 1161 q 42 1228 6 1196 q 123 1282 78 1261 q 201 1303 168 1303 q 258 1293 232 1303 q 322 1264 285 1283 q 367 1242 350 1249 q 400 1235 383 1235 q 513 1282 460 1235 l 574 1217 q 489 1126 551 1164 q 369 1088 426 1088 q 309 1098 336 1088 q 247 1128 282 1108 q 201 1150 218 1143 q 165 1157 183 1157 q 51 1108 110 1157 l -7 1161 m 165 122 l 165 926 l 38 942 l 38 1053 l 531 1053 l 531 942 l 410 925 l 410 124 l 538 94 l 538 0 l 38 0 l 38 94 l 165 122 z "},"J":{"ha":533,"x_min":-76,"x_max":499,"o":"m 499 942 l 403 926 l 403 363 q 393 131 403 236 q 361 -28 383 26 q 265 -153 332 -99 q 119 -238 199 -208 q -29 -268 39 -268 l -76 -200 q 48 -133 -1 -172 q 124 -32 97 -93 q 151 99 146 31 q 157 275 157 167 l 157 926 l 57 942 l 57 1053 l 499 1053 l 499 942 z "},"Ĵ":{"ha":532,"x_min":-76,"x_max":539,"o":"m 539 1132 l 463 1083 l 278 1171 l 88 1083 l 11 1132 l 199 1303 l 356 1303 l 539 1132 m 499 942 l 403 926 l 403 363 q 393 131 403 236 q 361 -28 383 26 q 265 -153 332 -99 q 119 -238 199 -208 q -29 -268 39 -268 l -76 -200 q 48 -133 -1 -172 q 124 -32 97 -93 q 151 99 146 31 q 157 275 157 167 l 157 926 l 57 942 l 57 1053 l 499 1053 l 499 942 z "},"K":{"ha":1042,"x_min":29,"x_max":1047,"o":"m 160 124 l 160 925 l 29 942 l 29 1053 l 521 1053 l 521 942 l 400 925 l 400 540 l 711 926 l 604 942 l 601 1053 l 1021 1053 l 1021 942 l 894 925 l 603 603 q 690 501 644 565 q 804 328 735 438 q 902 178 868 226 q 960 119 936 129 l 1047 94 l 1047 0 l 761 0 q 705 49 733 1 q 628 203 676 97 q 549 365 585 300 q 476 464 514 429 l 400 378 l 400 124 l 536 94 l 536 0 l 31 0 l 31 94 l 160 124 z "},"Ķ":{"ha":1042,"x_min":29,"x_max":1047,"o":"m 29 0 m 160 124 l 160 925 l 29 942 l 29 1053 l 521 1053 l 521 942 l 400 925 l 400 540 l 711 926 l 604 942 l 601 1053 l 1021 1053 l 1021 942 l 894 925 l 603 603 q 690 501 644 565 q 804 328 735 438 q 902 178 868 226 q 960 119 936 129 l 1047 94 l 1047 0 l 761 0 q 705 49 733 1 q 628 203 676 97 q 549 365 585 300 q 476 464 514 429 l 400 378 l 400 124 l 536 94 l 536 0 l 31 0 l 31 94 l 160 124 m 500 -28 q 628 -81 579 -28 q 678 -218 678 -135 q 625 -350 678 -287 q 506 -435 572 -412 l 419 -400 l 419 -385 q 470 -333 456 -354 q 485 -281 485 -311 q 458 -217 485 -243 q 400 -190 432 -190 l 400 -137 l 500 -28 z "},"L":{"ha":876,"x_min":63,"x_max":864,"o":"m 160 121 l 160 914 l 67 928 l 67 1053 l 526 1053 l 526 928 l 403 913 l 403 111 l 647 138 l 760 297 l 864 260 l 817 0 l 63 0 l 63 94 l 160 121 z "},"Ĺ":{"ha":876,"x_min":63,"x_max":864,"o":"m 63 0 m 160 121 l 160 914 l 67 928 l 67 1053 l 526 1053 l 526 928 l 403 913 l 403 111 l 647 138 l 760 297 l 864 260 l 817 0 l 63 0 l 63 94 l 160 121 m 440 1303 l 571 1172 q 423 1112 528 1139 q 242 1081 318 1085 l 174 1153 l 440 1303 z "},"Ľ":{"ha":876,"x_min":63,"x_max":864,"o":"m 63 0 m 160 121 l 160 914 l 67 928 l 67 1053 l 526 1053 l 526 928 l 403 913 l 403 111 l 647 138 l 760 297 l 864 260 l 817 0 l 63 0 l 63 94 l 160 121 m 633 713 q 642 834 640 775 q 643 936 643 893 q 632 1026 643 982 q 608 1086 621 1071 l 618 1115 l 794 1160 q 826 1077 814 1139 q 839 957 839 1015 q 815 803 839 882 q 757 668 790 724 l 640 694 l 633 713 z "},"Ļ":{"ha":876,"x_min":63,"x_max":864,"o":"m 63 0 m 160 121 l 160 914 l 67 928 l 67 1053 l 526 1053 l 526 928 l 403 913 l 403 111 l 647 138 l 760 297 l 864 260 l 817 0 l 63 0 l 63 94 l 160 121 m 404 -28 q 533 -81 483 -28 q 582 -218 582 -135 q 529 -350 582 -287 q 410 -435 476 -412 l 324 -400 l 324 -385 q 374 -333 360 -354 q 389 -281 389 -311 q 363 -217 389 -243 q 304 -190 336 -190 l 304 -137 l 404 -28 z "},"Ŀ":{"ha":968,"x_min":63,"x_max":978,"o":"m 526 928 l 403 913 l 403 111 l 647 138 l 760 297 l 864 260 l 817 0 l 63 0 l 63 94 l 160 121 l 160 914 l 67 928 l 67 1053 l 526 1053 l 526 928 m 838 715 q 940 679 903 715 q 978 583 978 643 q 928 476 978 518 q 813 435 878 435 q 715 471 756 435 q 675 561 675 507 q 699 638 675 601 q 762 694 724 674 q 838 715 800 715 z "},"Ł":{"ha":874,"x_min":46,"x_max":864,"o":"m 526 928 l 403 913 l 403 640 q 508 686 475 671 l 683 761 l 683 576 l 403 464 l 403 111 l 647 138 l 760 297 l 864 260 l 817 0 l 63 0 l 63 94 l 160 121 l 160 367 l 46 321 l 46 403 l 46 486 l 160 535 l 160 914 l 67 928 l 67 1053 l 526 1053 l 526 928 z "},"M":{"ha":1397,"x_min":42,"x_max":1383,"o":"m 158 124 l 206 911 l 81 926 l 81 1053 l 542 1053 l 704 514 l 726 376 l 756 514 l 908 1053 l 1333 1053 l 1333 926 l 1207 911 l 1276 122 l 1383 93 l 1383 0 l 933 0 l 933 93 l 1046 124 l 1008 643 l 1006 919 l 982 825 l 742 -12 l 653 -12 l 429 660 l 347 914 l 346 725 l 325 125 l 450 94 l 450 0 l 42 0 l 42 94 l 158 124 z "},"N":{"ha":1157,"x_min":53,"x_max":1118,"o":"m 1118 929 l 1025 914 l 1025 0 l 758 0 l 389 622 l 315 806 l 317 128 l 454 94 l 454 0 l 53 0 l 53 94 l 160 125 l 160 913 l 58 928 l 58 1053 l 403 1053 l 811 343 l 871 182 l 871 910 l 749 929 l 749 1053 l 1118 1053 l 1118 929 z "},"Ń":{"ha":1157,"x_min":53,"x_max":1118,"o":"m 53 0 m 1118 929 l 1025 914 l 1025 0 l 758 0 l 389 622 l 315 806 l 317 128 l 454 94 l 454 0 l 53 0 l 53 94 l 160 125 l 160 913 l 58 928 l 58 1053 l 403 1053 l 811 343 l 871 182 l 871 910 l 749 929 l 749 1053 l 1118 1053 l 1118 929 m 760 1303 l 890 1172 q 742 1112 847 1139 q 561 1081 638 1085 l 493 1153 l 760 1303 z "},"Ň":{"ha":1157,"x_min":53,"x_max":1118,"o":"m 53 0 m 1118 929 l 1025 914 l 1025 0 l 758 0 l 389 622 l 315 806 l 317 128 l 454 94 l 454 0 l 53 0 l 53 94 l 160 125 l 160 913 l 58 928 l 58 1053 l 403 1053 l 811 343 l 871 182 l 871 910 l 749 929 l 749 1053 l 1118 1053 l 1118 929 m 394 1303 l 585 1215 l 783 1303 l 858 1253 l 665 1083 l 508 1083 l 318 1253 l 394 1303 z "},"Ņ":{"ha":1157,"x_min":53,"x_max":1118,"o":"m 53 0 m 1118 929 l 1025 914 l 1025 0 l 758 0 l 389 622 l 315 806 l 317 128 l 454 94 l 454 0 l 53 0 l 53 94 l 160 125 l 160 913 l 58 928 l 58 1053 l 403 1053 l 811 343 l 871 182 l 871 910 l 749 929 l 749 1053 l 1118 1053 l 1118 929 m 551 -28 q 680 -81 631 -28 q 729 -218 729 -135 q 676 -350 729 -287 q 557 -435 624 -412 l 471 -400 l 471 -385 q 522 -333 507 -354 q 536 -281 536 -311 q 510 -217 536 -243 q 451 -190 483 -190 l 451 -137 l 551 -28 z "},"Ñ":{"ha":1157,"x_min":53,"x_max":1118,"o":"m 53 0 m 1118 929 l 1025 914 l 1025 0 l 758 0 l 389 622 l 315 806 l 317 128 l 454 94 l 454 0 l 53 0 l 53 94 l 160 125 l 160 913 l 58 928 l 58 1053 l 403 1053 l 811 343 l 871 182 l 871 910 l 749 929 l 749 1053 l 1118 1053 l 1118 929 m 310 1161 q 358 1228 322 1196 q 440 1282 394 1261 q 518 1303 485 1303 q 575 1293 549 1303 q 639 1264 601 1283 q 683 1242 667 1249 q 717 1235 700 1235 q 829 1282 776 1235 l 890 1217 q 806 1126 868 1164 q 686 1088 743 1088 q 626 1098 653 1088 q 564 1128 599 1108 q 517 1150 535 1143 q 482 1157 500 1157 q 368 1108 426 1157 l 310 1161 z "},"O":{"ha":1085,"x_min":47,"x_max":1042,"o":"m 557 1063 q 811 996 701 1063 q 981 813 921 929 q 1042 549 1042 696 q 980 257 1042 386 q 805 54 918 128 q 543 -19 692 -19 q 284 47 397 -19 q 109 232 171 114 q 47 499 47 350 q 105 767 47 644 q 265 965 163 889 q 557 1063 393 1063 m 550 951 q 364 836 414 951 q 314 513 314 721 q 342 311 314 408 q 423 151 369 214 q 551 89 476 89 q 692 144 643 89 q 759 295 742 200 q 776 535 776 390 q 747 751 776 657 q 667 899 718 846 q 550 951 615 951 z "},"Ó":{"ha":1085,"x_min":44,"x_max":1042,"o":"m 849 1172 q 701 1112 806 1139 q 519 1081 596 1085 l 451 1153 l 718 1303 l 849 1172 m 557 1063 q 811 996 701 1063 q 981 813 921 929 q 1042 549 1042 696 q 980 257 1042 386 q 805 54 918 128 q 543 -19 692 -19 q 281 49 394 -19 q 106 238 167 117 q 47 511 44 358 q 119 791 51 665 q 301 990 186 917 q 557 1063 415 1063 m 550 951 q 364 836 414 951 q 314 513 314 721 q 342 311 314 408 q 423 151 369 214 q 551 89 476 89 q 692 144 643 89 q 759 295 742 200 q 776 535 776 390 q 747 751 776 657 q 667 899 718 846 q 550 951 615 951 z "},"Ô":{"ha":1085,"x_min":44,"x_max":1042,"o":"m 817 1132 l 742 1083 l 557 1171 l 365 1083 l 290 1132 l 476 1303 l 635 1303 l 817 1132 m 557 1063 q 811 996 701 1063 q 981 813 921 929 q 1042 549 1042 696 q 980 257 1042 386 q 805 54 918 128 q 543 -19 692 -19 q 281 49 394 -19 q 106 238 167 117 q 47 511 44 358 q 119 791 51 665 q 301 990 186 917 q 557 1063 415 1063 m 550 951 q 364 836 414 951 q 314 513 314 721 q 342 311 314 408 q 423 151 369 214 q 551 89 476 89 q 692 144 643 89 q 759 295 742 200 q 776 535 776 390 q 747 751 776 657 q 667 899 718 846 q 550 951 615 951 z "},"Ö":{"ha":1085,"x_min":47,"x_max":1042,"o":"m 47 0 m 557 1063 q 811 996 701 1063 q 981 813 921 929 q 1042 549 1042 696 q 980 257 1042 386 q 805 54 918 128 q 543 -19 692 -19 q 284 47 397 -19 q 109 232 171 114 q 47 499 47 350 q 105 767 47 644 q 265 965 163 889 q 557 1063 393 1063 m 550 951 q 364 836 414 951 q 314 513 314 721 q 342 311 314 408 q 423 151 369 214 q 551 89 476 89 q 692 144 643 89 q 759 295 742 200 q 776 535 776 390 q 747 751 776 657 q 667 899 718 846 q 550 951 615 951 m 378 1303 q 467 1279 432 1303 q 503 1207 503 1256 q 459 1128 503 1158 q 358 1097 415 1097 q 274 1122 310 1097 q 239 1190 239 1146 q 281 1271 239 1239 q 378 1303 324 1303 m 747 1303 q 835 1280 803 1303 q 868 1208 868 1257 q 828 1130 868 1161 q 731 1099 789 1099 q 642 1124 678 1099 q 607 1193 607 1150 q 651 1272 607 1240 q 747 1303 694 1303 z "},"Ò":{"ha":1085,"x_min":47,"x_max":1042,"o":"m 47 0 m 557 1063 q 811 996 701 1063 q 981 813 921 929 q 1042 549 1042 696 q 980 257 1042 386 q 805 54 918 128 q 543 -19 692 -19 q 284 47 397 -19 q 109 232 171 114 q 47 499 47 350 q 105 767 47 644 q 265 965 163 889 q 557 1063 393 1063 m 550 951 q 364 836 414 951 q 314 513 314 721 q 342 311 314 408 q 423 151 369 214 q 551 89 476 89 q 692 144 643 89 q 759 295 742 200 q 776 535 776 390 q 747 751 776 657 q 667 899 718 846 q 550 951 615 951 m 583 1081 q 492 1092 558 1079 q 360 1128 425 1106 q 268 1172 296 1150 l 399 1303 l 651 1153 l 583 1081 z "},"Ő":{"ha":1085,"x_min":47,"x_max":1042,"o":"m 47 0 m 557 1063 q 811 996 701 1063 q 981 813 921 929 q 1042 549 1042 696 q 980 257 1042 386 q 805 54 918 128 q 543 -19 692 -19 q 284 47 397 -19 q 109 232 171 114 q 47 499 47 350 q 105 767 47 644 q 265 965 163 889 q 557 1063 393 1063 m 550 951 q 364 836 414 951 q 314 513 314 721 q 342 311 314 408 q 423 151 369 214 q 551 89 476 89 q 692 144 643 89 q 759 295 742 200 q 776 535 776 390 q 747 751 776 657 q 667 899 718 846 q 550 951 615 951 m 449 1415 l 599 1303 q 476 1163 551 1236 q 349 1067 401 1089 l 251 1133 l 449 1415 m 835 1415 l 990 1303 q 856 1152 926 1221 q 733 1067 785 1083 l 640 1133 l 835 1415 z "},"Ō":{"ha":1085,"x_min":47,"x_max":1042,"o":"m 47 0 m 735 1283 l 735 1121 l 351 1121 l 351 1283 l 735 1283 m 557 1063 q 811 996 701 1063 q 981 813 921 929 q 1042 549 1042 696 q 980 257 1042 386 q 805 54 918 128 q 543 -19 692 -19 q 284 47 397 -19 q 109 232 171 114 q 47 499 47 350 q 105 767 47 644 q 265 965 163 889 q 557 1063 393 1063 m 550 951 q 364 836 414 951 q 314 513 314 721 q 342 311 314 408 q 423 151 369 214 q 551 89 476 89 q 692 144 643 89 q 759 295 742 200 q 776 535 776 390 q 747 751 776 657 q 667 899 718 846 q 550 951 615 951 z "},"Ø":{"ha":1085,"x_min":47,"x_max":1042,"o":"m 318 29 q 117 216 188 93 q 47 493 47 339 q 113 781 47 651 q 296 987 179 911 q 557 1063 413 1063 q 699 1043 639 1063 l 735 1147 l 822 1118 l 783 1011 q 974 826 906 950 q 1042 553 1042 703 q 980 258 1042 389 q 805 54 918 128 q 543 -19 692 -19 q 403 -1 472 -19 l 342 -144 l 258 -115 l 318 29 m 642 921 q 550 951 600 951 q 363 835 413 951 q 314 513 314 719 q 334 343 314 431 q 390 196 354 256 l 642 921 m 460 118 q 551 89 503 89 q 694 145 644 89 q 760 297 743 201 q 776 535 776 392 q 760 698 776 618 q 711 839 743 778 l 460 118 z "},"Õ":{"ha":1085,"x_min":47,"x_max":1042,"o":"m 47 0 m 557 1063 q 811 996 701 1063 q 981 813 921 929 q 1042 549 1042 696 q 980 257 1042 386 q 805 54 918 128 q 543 -19 692 -19 q 284 47 397 -19 q 109 232 171 114 q 47 499 47 350 q 105 767 47 644 q 265 965 163 889 q 557 1063 393 1063 m 550 951 q 364 836 414 951 q 314 513 314 721 q 342 311 314 408 q 423 151 369 214 q 551 89 476 89 q 692 144 643 89 q 759 295 742 200 q 776 535 776 390 q 747 751 776 657 q 667 899 718 846 q 550 951 615 951 m 264 1161 q 313 1228 276 1196 q 394 1282 349 1261 q 472 1303 439 1303 q 529 1293 503 1303 q 593 1264 556 1283 q 638 1242 621 1249 q 671 1235 654 1235 q 783 1282 731 1235 l 844 1217 q 760 1126 822 1164 q 640 1088 697 1088 q 580 1098 607 1088 q 518 1128 553 1108 q 472 1150 489 1143 q 436 1157 454 1157 q 322 1108 381 1157 l 264 1161 z "},"Œ":{"ha":1507,"x_min":47,"x_max":1479,"o":"m 557 1063 q 660 1053 613 1063 l 1375 1053 l 1396 821 l 1276 821 l 1214 929 l 963 944 l 963 586 l 1139 593 l 1169 693 l 1278 693 l 1278 361 l 1169 361 l 1139 469 l 963 474 l 963 108 l 1272 128 l 1358 261 l 1479 236 l 1443 0 l 682 0 q 543 -19 613 -19 q 284 47 397 -19 q 109 232 171 114 q 47 499 47 350 q 114 785 47 656 q 297 988 181 914 q 557 1063 413 1063 m 550 951 q 363 835 413 951 q 314 513 314 719 q 341 311 314 408 q 422 151 368 214 q 551 89 476 89 q 653 113 613 89 q 722 183 694 136 l 722 818 q 648 917 689 882 q 550 951 607 951 z "},"P":{"ha":928,"x_min":40,"x_max":926,"o":"m 160 124 l 160 913 l 43 936 l 43 1053 l 286 1053 q 343 1054 318 1053 q 386 1057 368 1056 q 518 1063 467 1063 q 822 991 718 1063 q 926 754 926 919 q 874 568 926 646 q 728 449 821 490 q 518 408 636 408 q 399 410 438 408 l 399 124 l 564 94 l 564 0 l 40 0 l 40 94 l 160 124 m 399 531 q 513 524 431 524 q 646 590 603 524 q 689 767 689 656 q 633 904 689 856 q 489 953 578 953 q 434 949 461 953 q 399 943 407 946 l 399 531 z "},"Þ":{"ha":935,"x_min":15,"x_max":932,"o":"m 160 124 l 160 925 l 15 942 l 15 1053 l 535 1053 l 535 942 l 400 925 l 400 821 q 550 833 510 833 q 833 768 735 833 q 932 556 932 703 q 823 298 932 385 q 529 211 714 211 q 400 217 453 211 l 400 124 l 572 94 l 572 0 l 49 0 l 49 94 l 160 124 m 400 328 q 499 322 418 322 q 633 383 585 322 q 682 540 682 444 q 627 673 682 629 q 475 717 572 717 q 433 715 456 717 q 400 713 411 714 l 400 328 z "},"Q":{"ha":1085,"x_min":47,"x_max":1042,"o":"m 557 1063 q 812 995 701 1063 q 982 811 922 928 q 1042 549 1042 694 q 944 191 1042 340 q 669 -3 846 42 q 829 -89 710 -89 q 1008 -56 908 -89 l 1008 -204 q 922 -251 976 -236 q 808 -265 867 -265 q 556 -19 606 -265 l 543 -19 q 284 47 397 -19 q 109 232 171 114 q 47 499 47 350 q 117 792 47 660 q 313 996 186 924 q 557 1063 422 1063 m 550 951 q 363 835 413 951 q 314 513 314 719 q 341 311 314 408 q 422 151 368 214 q 551 89 476 89 q 694 145 644 89 q 760 297 743 201 q 776 535 776 392 q 751 735 776 639 q 675 891 726 831 q 550 951 624 951 z "},"R":{"ha":1035,"x_min":42,"x_max":1047,"o":"m 515 1063 q 813 996 700 1063 q 925 788 925 929 q 869 588 925 667 q 696 468 813 508 q 732 442 722 451 q 791 369 763 413 q 856 261 819 325 q 917 161 896 193 q 960 119 939 129 l 1047 94 l 1047 0 l 761 0 q 703 51 731 0 q 636 203 675 101 q 556 379 589 321 q 482 438 522 438 l 400 436 l 400 121 l 529 94 l 529 0 l 42 0 l 42 94 l 160 124 l 160 919 l 54 936 l 54 1053 l 207 1053 q 385 1058 271 1053 q 515 1063 457 1063 m 482 951 q 432 950 456 951 q 400 943 408 949 l 400 549 q 469 543 442 543 q 640 594 586 543 q 693 763 693 644 q 636 901 693 850 q 482 951 579 951 z "},"Ŕ":{"ha":1035,"x_min":42,"x_max":1047,"o":"m 42 0 m 515 1063 q 813 996 700 1063 q 925 788 925 929 q 869 588 925 667 q 696 468 813 508 q 732 442 722 451 q 791 369 763 413 q 856 261 819 325 q 917 161 896 193 q 960 119 939 129 l 1047 94 l 1047 0 l 761 0 q 703 51 731 0 q 636 203 675 101 q 556 379 589 321 q 482 438 522 438 l 400 436 l 400 121 l 529 94 l 529 0 l 42 0 l 42 94 l 160 124 l 160 919 l 54 936 l 54 1053 l 207 1053 q 385 1058 271 1053 q 515 1063 457 1063 m 482 951 q 432 950 456 951 q 400 943 408 949 l 400 549 q 469 543 442 543 q 640 594 586 543 q 693 763 693 644 q 636 901 693 850 q 482 951 579 951 m 661 1303 l 792 1172 q 644 1112 749 1139 q 463 1081 539 1085 l 394 1153 l 661 1303 z "},"Ř":{"ha":1035,"x_min":42,"x_max":1047,"o":"m 42 0 m 515 1063 q 813 996 700 1063 q 925 788 925 929 q 869 588 925 667 q 696 468 813 508 q 732 442 722 451 q 791 369 763 413 q 856 261 819 325 q 917 161 896 193 q 960 119 939 129 l 1047 94 l 1047 0 l 761 0 q 703 51 731 0 q 636 203 675 101 q 556 379 589 321 q 482 438 522 438 l 400 436 l 400 121 l 529 94 l 529 0 l 42 0 l 42 94 l 160 124 l 160 919 l 54 936 l 54 1053 l 207 1053 q 385 1058 271 1053 q 515 1063 457 1063 m 482 951 q 432 950 456 951 q 400 943 408 949 l 400 549 q 469 543 442 543 q 640 594 586 543 q 693 763 693 644 q 636 901 693 850 q 482 951 579 951 m 303 1303 l 493 1215 l 692 1303 l 767 1253 l 574 1083 l 417 1083 l 226 1253 l 303 1303 z "},"Ŗ":{"ha":1035,"x_min":42,"x_max":1047,"o":"m 42 0 m 515 1063 q 813 996 700 1063 q 925 788 925 929 q 869 588 925 667 q 696 468 813 508 q 732 442 722 451 q 791 369 763 413 q 856 261 819 325 q 917 161 896 193 q 960 119 939 129 l 1047 94 l 1047 0 l 761 0 q 703 51 731 0 q 636 203 675 101 q 556 379 589 321 q 482 438 522 438 l 400 436 l 400 121 l 529 94 l 529 0 l 42 0 l 42 94 l 160 124 l 160 919 l 54 936 l 54 1053 l 207 1053 q 385 1058 271 1053 q 515 1063 457 1063 m 482 951 q 432 950 456 951 q 400 943 408 949 l 400 549 q 469 543 442 543 q 640 594 586 543 q 693 763 693 644 q 636 901 693 850 q 482 951 579 951 m 565 -28 q 694 -81 644 -28 q 743 -218 743 -135 q 690 -350 743 -287 q 571 -435 638 -412 l 485 -400 l 485 -385 q 535 -333 521 -354 q 550 -281 550 -311 q 524 -217 550 -243 q 465 -190 497 -190 l 465 -137 l 565 -28 z "},"S":{"ha":893,"x_min":89,"x_max":851,"o":"m 447 -19 q 253 -2 361 -19 q 93 43 146 15 l 93 318 l 194 318 l 258 154 q 334 99 289 113 q 449 86 379 86 q 566 125 522 86 q 610 236 610 164 q 454 403 610 321 q 247 522 317 476 q 133 628 176 567 q 89 774 89 689 q 139 926 89 860 q 273 1027 189 992 q 453 1063 357 1063 q 633 1049 526 1063 q 782 1014 740 1035 l 782 789 l 669 789 l 607 932 q 548 955 590 946 q 476 964 506 964 q 363 935 408 964 q 318 853 318 907 q 350 756 318 799 q 437 678 382 714 q 594 589 492 643 q 785 454 718 525 q 851 286 851 383 q 797 121 851 190 q 651 16 743 51 q 447 -19 560 -19 z "},"Ś":{"ha":893,"x_min":89,"x_max":851,"o":"m 89 0 m 447 -19 q 253 -2 361 -19 q 93 43 146 15 l 93 318 l 194 318 l 258 154 q 334 99 289 113 q 449 86 379 86 q 566 125 522 86 q 610 236 610 164 q 454 403 610 321 q 247 522 317 476 q 133 628 176 567 q 89 774 89 689 q 139 926 89 860 q 273 1027 189 992 q 453 1063 357 1063 q 633 1049 526 1063 q 782 1014 740 1035 l 782 789 l 669 789 l 607 932 q 548 955 590 946 q 476 964 506 964 q 363 935 408 964 q 318 853 318 907 q 350 756 318 799 q 437 678 382 714 q 594 589 492 643 q 785 454 718 525 q 851 286 851 383 q 797 121 851 190 q 651 16 743 51 q 447 -19 560 -19 m 549 1303 l 679 1172 q 531 1112 636 1139 q 350 1081 426 1085 l 282 1153 l 549 1303 z "},"Š":{"ha":893,"x_min":89,"x_max":851,"o":"m 89 0 m 447 -19 q 253 -2 361 -19 q 93 43 146 15 l 93 318 l 194 318 l 258 154 q 334 99 289 113 q 449 86 379 86 q 566 125 522 86 q 610 236 610 164 q 454 403 610 321 q 247 522 317 476 q 133 628 176 567 q 89 774 89 689 q 139 926 89 860 q 273 1027 189 992 q 453 1063 357 1063 q 633 1049 526 1063 q 782 1014 740 1035 l 782 789 l 669 789 l 607 932 q 548 955 590 946 q 476 964 506 964 q 363 935 408 964 q 318 853 318 907 q 350 756 318 799 q 437 678 382 714 q 594 589 492 643 q 785 454 718 525 q 851 286 851 383 q 797 121 851 190 q 651 16 743 51 q 447 -19 560 -19 m 246 1303 l 436 1215 l 635 1303 l 710 1253 l 517 1083 l 360 1083 l 169 1253 l 246 1303 z "},"Ş":{"ha":893,"x_min":89,"x_max":853,"o":"m 853 286 q 752 73 853 153 q 494 -18 651 -7 q 496 -89 492 -60 q 600 -131 560 -94 q 640 -219 640 -168 q 583 -327 640 -293 q 431 -361 525 -361 q 361 -355 399 -361 q 285 -340 324 -349 l 285 -239 q 325 -245 300 -242 q 369 -249 350 -249 q 404 -238 392 -249 q 417 -210 417 -228 q 405 -182 417 -192 q 375 -172 393 -172 l 335 -174 q 344 -98 335 -150 q 365 -15 354 -46 q 209 7 285 -8 q 93 43 133 22 l 93 318 l 194 318 l 258 154 q 334 99 289 113 q 449 86 379 86 q 566 125 522 86 q 610 236 610 164 q 454 403 610 321 q 247 522 317 476 q 133 628 176 567 q 89 774 89 689 q 139 926 89 860 q 273 1027 189 992 q 453 1063 357 1063 q 633 1049 526 1063 q 782 1014 740 1035 l 782 789 l 669 789 l 607 932 q 548 955 590 946 q 476 964 506 964 q 363 935 408 964 q 318 853 318 907 q 350 756 318 799 q 437 678 382 714 q 594 589 492 643 q 785 454 718 525 q 851 286 851 383 l 853 286 z "},"Ș":{"ha":893,"x_min":89,"x_max":851,"o":"m 89 0 m 447 -19 q 253 -2 361 -19 q 93 43 146 15 l 93 318 l 194 318 l 258 154 q 334 99 289 113 q 449 86 379 86 q 566 125 522 86 q 610 236 610 164 q 454 403 610 321 q 247 522 317 476 q 133 628 176 567 q 89 774 89 689 q 139 926 89 860 q 273 1027 189 992 q 453 1063 357 1063 q 633 1049 526 1063 q 782 1014 740 1035 l 782 789 l 669 789 l 607 932 q 548 955 590 946 q 476 964 506 964 q 363 935 408 964 q 318 853 318 907 q 350 756 318 799 q 437 678 382 714 q 594 589 492 643 q 785 454 718 525 q 851 286 851 383 q 797 121 851 190 q 651 16 743 51 q 447 -19 560 -19 m 413 -28 q 541 -81 492 -28 q 590 -218 590 -135 q 538 -350 590 -287 q 418 -435 485 -412 l 332 -400 l 332 -385 q 383 -333 368 -354 q 397 -281 397 -311 q 371 -217 397 -243 q 313 -190 344 -190 l 313 -137 l 413 -28 z "},"T":{"ha":988,"x_min":32,"x_max":956,"o":"m 388 121 l 388 939 l 201 921 l 154 775 l 32 769 l 49 1053 l 956 1053 l 956 778 l 860 765 l 807 921 l 628 939 l 628 122 l 781 94 l 781 0 l 232 0 l 232 94 l 388 121 z "},"Ť":{"ha":988,"x_min":32,"x_max":956,"o":"m 32 0 m 314 1303 l 504 1215 l 703 1303 l 778 1253 l 585 1083 l 428 1083 l 238 1253 l 314 1303 m 388 121 l 388 939 l 201 921 l 154 775 l 32 769 l 49 1053 l 956 1053 l 956 778 l 860 765 l 807 921 l 628 939 l 628 122 l 781 94 l 781 0 l 232 0 l 232 94 l 388 121 z "},"Ț":{"ha":988,"x_min":32,"x_max":956,"o":"m 32 0 m 388 121 l 388 939 l 201 921 l 154 775 l 32 769 l 49 1053 l 956 1053 l 956 778 l 860 765 l 807 921 l 628 939 l 628 122 l 781 94 l 781 0 l 232 0 l 232 94 l 388 121 m 482 -28 q 610 -81 561 -28 q 660 -218 660 -135 q 607 -350 660 -287 q 488 -435 554 -412 l 401 -400 l 401 -385 q 452 -333 438 -354 q 467 -281 467 -311 q 440 -217 467 -243 q 382 -190 414 -190 l 382 -137 l 482 -28 z "},"U":{"ha":1093,"x_min":28,"x_max":1074,"o":"m 1074 942 l 976 925 l 976 453 q 878 103 976 225 q 579 -19 781 -19 q 242 88 353 -19 q 132 415 132 196 q 135 926 132 585 l 28 942 l 28 1053 l 490 1053 l 490 942 l 375 926 l 375 414 q 429 180 375 258 q 608 101 483 101 q 776 194 728 101 q 825 451 825 286 l 822 925 l 708 942 l 708 1053 l 1074 1053 l 1074 942 z "},"Ú":{"ha":1093,"x_min":28,"x_max":1074,"o":"m 28 0 m 1074 942 l 976 925 l 976 453 q 878 103 976 225 q 579 -19 781 -19 q 242 88 353 -19 q 132 415 132 196 q 135 926 132 585 l 28 942 l 28 1053 l 490 1053 l 490 942 l 375 926 l 375 414 q 429 180 375 258 q 608 101 483 101 q 776 194 728 101 q 825 451 825 286 l 822 925 l 708 942 l 708 1053 l 1074 1053 l 1074 942 m 750 1303 l 881 1172 q 733 1112 838 1139 q 551 1081 628 1085 l 483 1153 l 750 1303 z "},"Û":{"ha":1086,"x_min":28,"x_max":1074,"o":"m 850 1132 l 774 1083 l 589 1171 l 399 1083 l 322 1132 l 510 1303 l 667 1303 l 850 1132 m 1074 942 l 976 925 l 976 453 q 878 103 976 225 q 579 -19 781 -19 q 242 88 353 -19 q 132 415 132 196 q 135 926 132 585 l 28 942 l 28 1053 l 490 1053 l 490 942 l 375 926 l 375 414 q 429 180 375 258 q 608 101 483 101 q 776 194 728 101 q 825 451 825 286 l 822 925 l 708 942 l 708 1053 l 1074 1053 l 1074 942 z "},"Ü":{"ha":1093,"x_min":28,"x_max":1074,"o":"m 28 0 m 1074 942 l 976 925 l 976 453 q 878 103 976 225 q 579 -19 781 -19 q 242 88 353 -19 q 132 415 132 196 q 135 926 132 585 l 28 942 l 28 1053 l 490 1053 l 490 942 l 375 926 l 375 414 q 429 180 375 258 q 608 101 483 101 q 776 194 728 101 q 825 451 825 286 l 822 925 l 708 942 l 708 1053 l 1074 1053 l 1074 942 m 411 1303 q 501 1279 465 1303 q 536 1207 536 1256 q 492 1128 536 1158 q 392 1097 449 1097 q 308 1122 343 1097 q 272 1190 272 1146 q 315 1271 272 1239 q 411 1303 357 1303 m 781 1303 q 869 1280 836 1303 q 901 1208 901 1257 q 862 1130 901 1161 q 764 1099 822 1099 q 676 1124 711 1099 q 640 1193 640 1150 q 684 1272 640 1240 q 781 1303 728 1303 z "},"Ù":{"ha":1093,"x_min":28,"x_max":1074,"o":"m 28 0 m 1074 942 l 976 925 l 976 453 q 878 103 976 225 q 579 -19 781 -19 q 242 88 353 -19 q 132 415 132 196 q 135 926 132 585 l 28 942 l 28 1053 l 490 1053 l 490 942 l 375 926 l 375 414 q 429 180 375 258 q 608 101 483 101 q 776 194 728 101 q 825 451 825 286 l 822 925 l 708 942 l 708 1053 l 1074 1053 l 1074 942 m 615 1081 q 524 1092 590 1079 q 392 1128 457 1106 q 300 1172 328 1150 l 431 1303 l 683 1153 l 615 1081 z "},"Ű":{"ha":1093,"x_min":28,"x_max":1074,"o":"m 28 0 m 1074 942 l 976 925 l 976 453 q 878 103 976 225 q 579 -19 781 -19 q 242 88 353 -19 q 132 415 132 196 q 135 926 132 585 l 28 942 l 28 1053 l 490 1053 l 490 942 l 375 926 l 375 414 q 429 180 375 258 q 608 101 483 101 q 776 194 728 101 q 825 451 825 286 l 822 925 l 708 942 l 708 1053 l 1074 1053 l 1074 942 m 449 1415 l 599 1303 q 476 1163 551 1236 q 349 1067 401 1089 l 251 1133 l 449 1415 m 835 1415 l 990 1303 q 856 1152 926 1221 q 733 1067 785 1083 l 640 1133 l 835 1415 z "},"Ū":{"ha":1093,"x_min":28,"x_max":1074,"o":"m 28 0 m 1074 942 l 976 925 l 976 453 q 878 103 976 225 q 579 -19 781 -19 q 242 88 353 -19 q 132 415 132 196 q 135 926 132 585 l 28 942 l 28 1053 l 490 1053 l 490 942 l 375 926 l 375 414 q 429 180 375 258 q 608 101 483 101 q 776 194 728 101 q 825 451 825 286 l 822 925 l 708 942 l 708 1053 l 1074 1053 l 1074 942 m 797 1256 l 797 1093 l 414 1093 l 414 1256 l 797 1256 z "},"Ų":{"ha":1093,"x_min":28,"x_max":1072,"o":"m 1072 1051 l 1072 940 l 975 924 l 975 451 q 897 128 975 247 q 657 -15 818 8 q 547 -82 596 -40 q 499 -165 499 -124 q 549 -204 499 -204 q 600 -198 578 -204 q 657 -178 622 -192 l 683 -167 l 707 -258 q 426 -350 600 -350 q 322 -319 363 -350 q 282 -236 282 -287 q 347 -117 282 -178 q 497 -17 411 -56 q 222 108 313 1 q 132 414 132 215 q 135 926 132 585 l 28 942 l 28 1053 l 490 1053 l 490 942 l 375 926 l 375 414 q 429 180 375 258 q 608 101 483 101 q 776 194 728 101 q 825 451 825 286 l 822 925 l 708 942 l 708 1053 l 1072 1051 z "},"Ů":{"ha":1093,"x_min":28,"x_max":1074,"o":"m 1074 1053 l 1074 942 l 976 925 l 976 453 q 878 103 976 225 q 579 -19 781 -19 q 242 88 353 -19 q 132 415 132 196 q 135 926 132 585 l 28 942 l 28 1053 l 418 1053 q 394 1135 394 1089 q 451 1258 394 1213 q 596 1303 508 1303 q 741 1257 683 1303 q 799 1135 799 1211 q 776 1053 799 1089 l 1074 1053 m 596 1217 q 535 1194 558 1217 q 511 1135 511 1171 q 535 1077 511 1100 q 596 1054 558 1054 q 656 1076 631 1054 q 681 1135 681 1099 q 656 1193 681 1169 q 596 1217 632 1217 m 607 101 q 775 194 726 101 q 824 451 824 286 l 821 925 l 707 942 l 707 993 q 594 968 657 968 q 490 992 538 968 l 490 942 l 375 926 l 375 414 q 429 180 375 258 q 608 101 483 101 l 607 101 z "},"V":{"ha":1013,"x_min":8,"x_max":1004,"o":"m 8 942 l 8 1053 l 461 1053 l 461 944 l 350 926 l 497 415 l 540 233 l 582 411 l 721 926 l 615 942 l 615 1053 l 1004 1053 l 1004 942 l 922 929 l 615 -10 l 429 -10 l 89 929 l 8 942 z "},"W":{"ha":1547,"x_min":10,"x_max":1536,"o":"m 10 942 l 10 1053 l 435 1053 l 435 943 l 353 928 l 513 301 q 535 188 525 231 l 557 301 l 686 821 l 660 928 l 571 942 l 571 1053 l 1010 1053 l 1010 943 l 899 926 l 1038 301 l 1063 185 l 1090 301 l 1242 928 l 1140 942 l 1140 1053 l 1536 1053 l 1536 942 l 1435 928 l 1153 -11 l 921 -11 l 765 536 l 615 -10 l 399 -10 l 94 928 l 10 942 z "},"X":{"ha":1053,"x_min":17,"x_max":1038,"o":"m 136 124 l 414 507 l 125 926 l 17 942 l 17 1053 l 496 1053 l 496 944 l 397 928 l 542 661 l 707 928 l 614 942 l 614 1053 l 1038 1053 l 1038 942 l 907 926 l 621 556 l 926 125 l 1038 93 l 1038 0 l 561 0 l 561 93 l 658 119 l 501 390 l 343 124 l 469 93 l 469 0 l 17 0 l 17 93 l 136 124 z "},"Y":{"ha":1004,"x_min":8,"x_max":994,"o":"m 400 125 l 400 347 l 83 929 l 8 942 l 8 1053 l 436 1053 l 436 944 l 364 931 l 535 571 l 554 507 l 578 576 l 722 925 l 614 942 l 613 1053 l 994 1053 l 994 942 l 906 917 l 640 368 l 640 128 l 824 94 l 824 0 l 236 0 l 236 94 l 400 125 z "},"Ý":{"ha":1004,"x_min":8,"x_max":994,"o":"m 8 0 m 400 125 l 400 347 l 83 929 l 8 942 l 8 1053 l 436 1053 l 436 944 l 364 931 l 535 571 l 554 507 l 578 576 l 722 925 l 614 942 l 613 1053 l 994 1053 l 994 942 l 906 917 l 640 368 l 640 128 l 824 94 l 824 0 l 236 0 l 236 94 l 400 125 m 681 1303 l 811 1172 q 663 1112 768 1139 q 482 1081 558 1085 l 414 1153 l 681 1303 z "},"Ÿ":{"ha":1004,"x_min":8,"x_max":994,"o":"m 8 0 m 400 125 l 400 347 l 83 929 l 8 942 l 8 1053 l 436 1053 l 436 944 l 364 931 l 535 571 l 554 507 l 578 576 l 722 925 l 614 942 l 613 1053 l 994 1053 l 994 942 l 906 917 l 640 368 l 640 128 l 824 94 l 824 0 l 236 0 l 236 94 l 400 125 m 342 1303 q 431 1279 396 1303 q 467 1207 467 1256 q 423 1128 467 1158 q 322 1097 379 1097 q 238 1122 274 1097 q 203 1190 203 1146 q 245 1271 203 1239 q 342 1303 288 1303 m 711 1303 q 799 1280 767 1303 q 832 1208 832 1257 q 792 1130 832 1161 q 694 1099 753 1099 q 606 1124 642 1099 q 571 1193 571 1150 q 615 1272 571 1240 q 711 1303 658 1303 z "},"Z":{"ha":942,"x_min":35,"x_max":932,"o":"m 910 950 l 417 224 l 318 111 l 696 143 l 831 324 l 932 296 l 857 0 l 63 0 l 35 94 l 536 821 l 649 944 l 260 913 l 174 747 l 69 767 l 99 1053 l 878 1053 l 910 950 z "},"Ź":{"ha":942,"x_min":35,"x_max":932,"o":"m 35 0 m 910 950 l 417 224 l 318 111 l 696 143 l 831 324 l 932 296 l 857 0 l 63 0 l 35 94 l 536 821 l 649 944 l 260 913 l 174 747 l 69 767 l 99 1053 l 878 1053 l 910 950 m 640 1303 l 771 1172 q 623 1112 728 1139 q 442 1081 518 1085 l 374 1153 l 640 1303 z "},"Ž":{"ha":942,"x_min":35,"x_max":932,"o":"m 35 0 m 910 950 l 417 224 l 318 111 l 696 143 l 831 324 l 932 296 l 857 0 l 63 0 l 35 94 l 536 821 l 649 944 l 260 913 l 174 747 l 69 767 l 99 1053 l 878 1053 l 910 950 m 282 1303 l 472 1215 l 671 1303 l 746 1253 l 553 1083 l 396 1083 l 206 1253 l 282 1303 z "},"Ż":{"ha":942,"x_min":35,"x_max":932,"o":"m 35 0 m 910 950 l 417 224 l 318 111 l 696 143 l 831 324 l 932 296 l 857 0 l 63 0 l 35 94 l 536 821 l 649 944 l 260 913 l 174 747 l 69 767 l 99 1053 l 878 1053 l 910 950 m 479 1303 q 569 1279 533 1303 q 604 1207 604 1256 q 560 1128 604 1158 q 460 1097 517 1097 q 376 1122 411 1097 q 340 1190 340 1146 q 383 1271 340 1239 q 479 1303 425 1303 z "},"a":{"ha":832,"x_min":47,"x_max":828,"o":"m 428 781 q 663 715 586 781 q 739 501 739 649 l 739 92 l 828 92 l 828 19 q 751 -10 800 0 q 653 -19 701 -19 q 568 1 601 -19 q 531 58 535 21 q 333 -19 449 -19 q 126 38 206 -19 q 47 199 47 96 q 111 353 47 290 q 278 446 175 415 q 499 476 382 476 l 499 485 q 466 614 497 576 q 354 651 435 651 q 231 635 296 651 q 131 593 167 618 l 85 697 q 234 759 135 738 q 428 781 333 781 m 499 372 q 349 336 408 372 q 290 228 290 300 q 319 141 290 171 q 403 111 347 111 q 499 140 464 111 l 499 372 z "},"á":{"ha":832,"x_min":47,"x_max":828,"o":"m 47 0 m 428 781 q 663 715 586 781 q 739 501 739 649 l 739 92 l 828 92 l 828 19 q 751 -10 800 0 q 653 -19 701 -19 q 568 1 601 -19 q 531 58 535 21 q 333 -19 449 -19 q 126 38 206 -19 q 47 199 47 96 q 111 353 47 290 q 278 446 175 415 q 499 476 382 476 l 499 485 q 466 614 497 576 q 354 651 435 651 q 231 635 296 651 q 131 593 167 618 l 85 697 q 234 759 135 738 q 428 781 333 781 m 499 372 q 349 336 408 372 q 290 228 290 300 q 319 141 290 171 q 403 111 347 111 q 499 140 464 111 l 499 372 m 525 1256 l 697 1124 q 564 998 654 1054 q 371 906 474 942 l 311 967 l 525 1256 z "},"ă":{"ha":832,"x_min":47,"x_max":828,"o":"m 47 0 m 428 781 q 663 715 586 781 q 739 501 739 649 l 739 92 l 828 92 l 828 19 q 751 -10 800 0 q 653 -19 701 -19 q 568 1 601 -19 q 531 58 535 21 q 333 -19 449 -19 q 126 38 206 -19 q 47 199 47 96 q 111 353 47 290 q 278 446 175 415 q 499 476 382 476 l 499 485 q 466 614 497 576 q 354 651 435 651 q 231 635 296 651 q 131 593 167 618 l 85 697 q 234 759 135 738 q 428 781 333 781 m 499 372 q 349 336 408 372 q 290 228 290 300 q 319 141 290 171 q 403 111 347 111 q 499 140 464 111 l 499 372 m 699 1149 q 665 1029 699 1083 q 573 943 631 975 q 446 911 515 911 q 316 943 374 911 q 225 1029 258 975 q 192 1149 192 1083 l 335 1149 q 446 1047 360 1047 q 517 1075 489 1047 q 558 1149 546 1103 l 699 1149 z "},"â":{"ha":832,"x_min":47,"x_max":828,"o":"m 47 0 m 428 781 q 663 715 586 781 q 739 501 739 649 l 739 92 l 828 92 l 828 19 q 751 -10 800 0 q 653 -19 701 -19 q 568 1 601 -19 q 531 58 535 21 q 333 -19 449 -19 q 126 38 206 -19 q 47 199 47 96 q 111 353 47 290 q 278 446 175 415 q 499 476 382 476 l 499 485 q 466 614 497 576 q 354 651 435 651 q 231 635 296 651 q 131 593 167 618 l 85 697 q 234 759 135 738 q 428 781 333 781 m 499 372 q 349 336 408 372 q 290 228 290 300 q 319 141 290 171 q 403 111 347 111 q 499 140 464 111 l 499 372 m 318 1204 l 490 1204 l 678 956 l 579 906 l 404 1046 l 224 906 l 135 956 l 318 1204 z "},"ä":{"ha":832,"x_min":47,"x_max":828,"o":"m 47 0 m 428 781 q 663 715 586 781 q 739 501 739 649 l 739 92 l 828 92 l 828 19 q 751 -10 800 0 q 653 -19 701 -19 q 568 1 601 -19 q 531 58 535 21 q 333 -19 449 -19 q 126 38 206 -19 q 47 199 47 96 q 111 353 47 290 q 278 446 175 415 q 499 476 382 476 l 499 485 q 466 614 497 576 q 354 651 435 651 q 231 635 296 651 q 131 593 167 618 l 85 697 q 234 759 135 738 q 428 781 333 781 m 499 372 q 349 336 408 372 q 290 228 290 300 q 319 141 290 171 q 403 111 347 111 q 499 140 464 111 l 499 372 m 217 914 q 131 940 165 914 q 96 1008 96 965 q 140 1088 96 1057 q 235 1119 183 1119 q 325 1095 290 1119 q 360 1024 360 1071 q 315 944 360 974 q 217 914 271 914 m 574 915 q 485 942 519 915 q 451 1010 451 968 q 496 1089 451 1058 q 592 1119 540 1119 q 681 1095 650 1119 q 713 1025 713 1071 q 671 944 713 974 q 574 915 629 915 z "},"à":{"ha":832,"x_min":47,"x_max":828,"o":"m 47 0 m 428 781 q 663 715 586 781 q 739 501 739 649 l 739 92 l 828 92 l 828 19 q 751 -10 800 0 q 653 -19 701 -19 q 568 1 601 -19 q 531 58 535 21 q 333 -19 449 -19 q 126 38 206 -19 q 47 199 47 96 q 111 353 47 290 q 278 446 175 415 q 499 476 382 476 l 499 485 q 466 614 497 576 q 354 651 435 651 q 231 635 296 651 q 131 593 167 618 l 85 697 q 234 759 135 738 q 428 781 333 781 m 499 372 q 349 336 408 372 q 290 228 290 300 q 319 141 290 171 q 403 111 347 111 q 499 140 464 111 l 499 372 m 485 907 q 372 938 435 904 q 251 1022 308 971 q 158 1124 193 1074 l 331 1256 l 544 967 l 485 907 z "},"ā":{"ha":832,"x_min":47,"x_max":828,"o":"m 47 0 m 428 781 q 663 715 586 781 q 739 501 739 649 l 739 92 l 828 92 l 828 19 q 751 -10 800 0 q 653 -19 701 -19 q 568 1 601 -19 q 531 58 535 21 q 333 -19 449 -19 q 126 38 206 -19 q 47 199 47 96 q 111 353 47 290 q 278 446 175 415 q 499 476 382 476 l 499 485 q 466 614 497 576 q 354 651 435 651 q 231 635 296 651 q 131 593 167 618 l 85 697 q 234 759 135 738 q 428 781 333 781 m 499 372 q 349 336 408 372 q 290 228 290 300 q 319 141 290 171 q 403 111 347 111 q 499 140 464 111 l 499 372 m 628 1074 l 628 911 l 244 911 l 244 1074 l 628 1074 z "},"ą":{"ha":832,"x_min":47,"x_max":828,"o":"m 428 781 q 663 715 586 781 q 739 501 739 649 l 739 92 l 828 92 l 828 19 q 708 -69 750 -28 q 665 -157 665 -111 q 746 -215 665 -215 q 824 -206 775 -215 l 824 -306 q 750 -340 792 -328 q 663 -351 708 -351 q 529 -318 582 -351 q 476 -219 476 -285 q 618 -15 476 -107 q 556 10 581 -10 q 531 58 531 29 q 333 -19 449 -19 q 126 38 206 -19 q 47 199 47 96 q 113 354 47 292 q 281 447 178 417 q 499 476 383 476 l 499 482 q 467 613 499 575 q 354 651 435 651 q 231 635 296 651 q 131 593 167 618 l 85 697 q 234 759 135 738 q 428 781 333 781 m 499 372 q 348 335 406 372 q 290 228 290 299 q 319 141 290 171 q 403 111 347 111 q 499 140 464 111 l 499 372 z "},"å":{"ha":832,"x_min":47,"x_max":828,"o":"m 47 0 m 428 781 q 663 715 586 781 q 739 501 739 649 l 739 92 l 828 92 l 828 19 q 751 -10 800 0 q 653 -19 701 -19 q 568 1 601 -19 q 531 58 535 21 q 333 -19 449 -19 q 126 38 206 -19 q 47 199 47 96 q 111 353 47 290 q 278 446 175 415 q 499 476 382 476 l 499 485 q 466 614 497 576 q 354 651 435 651 q 231 635 296 651 q 131 593 167 618 l 85 697 q 234 759 135 738 q 428 781 333 781 m 499 372 q 349 336 408 372 q 290 228 290 300 q 319 141 290 171 q 403 111 347 111 q 499 140 464 111 l 499 372 m 404 1244 q 504 1219 458 1244 q 577 1150 550 1193 q 604 1058 604 1107 q 576 963 604 1006 q 501 895 547 919 q 404 871 456 871 q 306 896 351 871 q 233 964 260 921 q 206 1058 206 1007 q 233 1153 206 1110 q 306 1220 260 1196 q 404 1244 351 1244 m 404 1149 q 340 1124 365 1149 q 314 1058 314 1099 q 340 994 314 1019 q 404 968 365 968 q 469 994 443 968 q 494 1058 494 1019 q 468 1122 494 1096 q 404 1149 442 1149 z "},"ã":{"ha":832,"x_min":47,"x_max":828,"o":"m 47 0 m 428 781 q 663 715 586 781 q 739 501 739 649 l 739 92 l 828 92 l 828 19 q 751 -10 800 0 q 653 -19 701 -19 q 568 1 601 -19 q 531 58 535 21 q 333 -19 449 -19 q 126 38 206 -19 q 47 199 47 96 q 111 353 47 290 q 278 446 175 415 q 499 476 382 476 l 499 485 q 466 614 497 576 q 354 651 435 651 q 231 635 296 651 q 131 593 167 618 l 85 697 q 234 759 135 738 q 428 781 333 781 m 499 372 q 349 336 408 372 q 290 228 290 300 q 319 141 290 171 q 403 111 347 111 q 499 140 464 111 l 499 372 m 114 994 q 162 1062 126 1029 q 242 1115 197 1094 q 322 1136 286 1136 q 388 1126 360 1136 q 447 1096 417 1115 q 486 1075 469 1082 q 521 1068 503 1068 q 580 1081 554 1068 q 633 1117 606 1094 l 694 1050 q 608 951 672 996 q 490 907 543 907 q 426 917 454 907 q 363 949 399 928 q 320 971 336 964 q 286 978 304 978 q 231 964 261 978 q 172 928 201 950 l 114 994 z "},"æ":{"ha":1283,"x_min":47,"x_max":1233,"o":"m 918 781 q 1233 471 1233 781 q 1224 360 1233 435 l 744 360 q 967 117 764 117 q 1076 129 1017 117 q 1189 165 1136 142 l 1225 78 q 1077 6 1171 32 q 897 -19 983 -19 q 607 75 713 -19 q 333 -19 507 -19 q 126 38 206 -19 q 47 199 47 96 q 111 353 47 290 q 278 446 175 415 q 499 476 382 476 l 499 485 q 466 611 497 575 q 354 647 435 647 q 228 630 297 647 q 131 589 158 613 l 85 697 q 234 759 135 738 q 428 781 333 781 q 669 708 593 781 q 918 781 772 781 m 896 686 q 789 623 828 686 q 744 468 750 560 l 1000 468 q 1006 546 1006 524 q 981 650 1006 614 q 896 686 956 686 m 499 372 q 349 336 408 372 q 290 228 290 300 q 319 141 290 171 q 403 111 347 111 q 455 117 426 111 q 499 133 483 124 l 499 372 z "},"b":{"ha":900,"x_min":17,"x_max":850,"o":"m 17 978 l 17 1072 l 303 1104 l 342 1093 l 342 738 q 519 781 415 781 q 763 681 676 781 q 850 410 850 582 q 794 192 850 290 q 640 38 738 94 q 422 -19 542 -19 q 236 -2 333 -19 q 101 38 139 15 l 101 939 l 17 978 m 342 136 q 384 94 356 110 q 447 79 413 79 q 570 170 532 79 q 608 397 608 261 q 559 585 608 507 q 426 663 510 663 q 342 649 376 663 l 342 136 z "},"c":{"ha":769,"x_min":51,"x_max":747,"o":"m 496 781 q 623 772 554 781 q 722 746 692 763 l 722 531 l 599 531 l 544 658 q 456 675 517 675 q 338 597 376 675 q 300 400 300 518 q 357 193 300 271 q 521 115 414 115 q 626 128 572 115 q 711 163 681 140 l 747 78 q 612 6 693 31 q 428 -19 531 -19 q 227 28 313 -19 q 97 161 142 75 q 51 361 51 247 q 108 581 51 486 q 265 728 164 676 q 496 781 367 781 z "},"ć":{"ha":769,"x_min":51,"x_max":750,"o":"m 51 0 m 496 781 q 623 772 554 781 q 722 746 692 763 l 722 531 l 599 531 l 544 658 q 456 675 517 675 q 338 597 376 675 q 300 400 300 518 q 357 193 300 271 q 521 115 414 115 q 626 128 572 115 q 711 163 681 140 l 747 78 q 612 6 693 31 q 428 -19 531 -19 q 227 28 313 -19 q 97 161 142 75 q 51 361 51 247 q 108 581 51 486 q 265 728 164 676 q 496 781 367 781 m 578 1256 l 750 1124 q 617 998 707 1054 q 424 906 526 942 l 364 967 l 578 1256 z "},"č":{"ha":769,"x_min":51,"x_max":747,"o":"m 51 0 m 496 781 q 623 772 554 781 q 722 746 692 763 l 722 531 l 599 531 l 544 658 q 456 675 517 675 q 338 597 376 675 q 300 400 300 518 q 357 193 300 271 q 521 115 414 115 q 626 128 572 115 q 711 163 681 140 l 747 78 q 612 6 693 31 q 428 -19 531 -19 q 227 28 313 -19 q 97 161 142 75 q 51 361 51 247 q 108 581 51 486 q 265 728 164 676 q 496 781 367 781 m 278 1204 l 458 1064 l 633 1203 l 732 1153 l 544 906 l 372 906 l 189 1154 l 278 1204 z "},"ç":{"ha":769,"x_min":53,"x_max":749,"o":"m 490 -89 q 594 -131 554 -94 q 635 -219 635 -168 q 577 -327 635 -293 q 425 -361 519 -361 q 356 -355 393 -361 q 279 -340 318 -349 l 279 -239 q 319 -245 294 -242 q 364 -249 344 -249 q 399 -238 386 -249 q 411 -210 411 -228 q 399 -182 411 -192 q 369 -172 388 -172 l 329 -174 q 339 -98 329 -150 q 360 -15 349 -46 q 134 105 215 4 q 53 360 53 206 q 109 580 53 485 q 267 727 165 675 q 497 779 368 779 q 624 770 556 779 q 724 744 693 761 l 724 529 l 600 529 l 546 657 q 457 674 518 674 q 340 595 378 674 q 301 399 301 517 q 358 192 301 269 q 522 114 415 114 q 628 126 574 114 q 713 161 682 139 l 749 76 q 489 -18 654 -6 q 490 -89 486 -60 z "},"d":{"ha":938,"x_min":50,"x_max":908,"o":"m 813 1088 l 813 92 l 908 92 l 908 19 q 828 -8 881 4 q 703 -19 775 -19 q 590 29 619 -19 q 494 -8 553 3 q 372 -19 435 -19 q 203 32 276 -19 q 90 172 129 83 q 50 367 50 260 q 110 581 50 486 q 270 728 169 675 q 492 781 371 781 q 572 775 538 781 l 572 939 l 422 978 l 422 1072 l 768 1106 l 813 1088 m 469 689 q 376 649 415 689 q 319 547 338 610 q 300 418 300 485 q 317 260 297 335 q 377 138 336 185 q 479 90 418 90 q 572 104 538 90 l 572 665 q 469 689 536 689 z "},"ð":{"ha":897,"x_min":43,"x_max":840,"o":"m 674 1103 l 568 1011 q 771 764 701 911 q 840 442 840 617 q 739 98 840 214 q 425 -18 638 -18 q 228 28 315 -18 q 92 156 140 74 q 43 340 43 238 q 93 543 43 456 q 231 678 143 631 q 431 725 319 725 q 547 705 494 725 q 632 653 599 685 q 576 799 618 731 q 471 921 535 868 l 360 819 l 289 878 l 394 975 q 207 1046 308 1025 l 225 1147 q 486 1064 361 1133 l 561 1132 l 599 1168 l 674 1103 m 442 617 q 320 549 353 617 q 288 351 288 481 q 308 228 288 289 q 366 127 329 167 q 447 88 403 88 q 573 171 535 88 q 611 388 611 254 q 606 460 611 435 q 545 569 592 521 q 442 617 499 617 z "},"ď":{"ha":1043,"x_min":50,"x_max":1082,"o":"m 50 0 m 813 1088 l 813 92 l 908 92 l 908 19 q 828 -8 881 4 q 703 -19 775 -19 q 590 29 619 -19 q 494 -8 553 3 q 372 -19 435 -19 q 203 32 276 -19 q 90 172 129 83 q 50 367 50 260 q 110 581 50 486 q 270 728 169 675 q 492 781 371 781 q 572 775 538 781 l 572 939 l 422 978 l 422 1072 l 768 1106 l 813 1088 m 469 689 q 376 649 415 689 q 319 547 338 610 q 300 418 300 485 q 317 260 297 335 q 377 138 336 185 q 479 90 418 90 q 572 104 538 90 l 572 665 q 469 689 536 689 m 876 713 q 885 834 883 775 q 886 936 886 893 q 875 1026 886 982 q 851 1086 864 1071 l 861 1115 l 1038 1160 q 1069 1077 1057 1139 q 1082 957 1082 1015 q 1058 803 1082 882 q 1000 668 1033 724 l 883 694 l 876 713 z "},"đ":{"ha":938,"x_min":50,"x_max":921,"o":"m 813 792 l 813 92 l 908 92 l 908 19 q 828 -8 881 4 q 703 -19 775 -19 q 590 29 619 -19 q 494 -8 553 3 q 372 -19 435 -19 q 203 28 276 -19 q 90 158 129 76 q 50 339 50 240 q 108 552 50 465 q 267 682 167 639 q 492 725 368 725 q 572 719 538 725 l 572 792 l 310 792 l 310 878 l 572 878 l 572 939 l 422 978 l 422 1072 l 768 1106 l 813 1088 l 813 878 l 921 878 l 921 792 l 813 792 m 572 610 q 469 633 536 633 q 342 564 385 633 q 300 363 300 494 q 319 240 300 303 q 378 133 338 176 q 479 90 419 90 q 572 104 538 90 l 572 610 z "},"e":{"ha":840,"x_min":50,"x_max":782,"o":"m 465 781 q 701 703 619 781 q 782 479 782 626 q 772 360 782 418 l 300 360 q 363 178 310 239 q 515 117 415 117 q 731 163 626 117 l 767 78 q 622 6 713 32 q 447 -19 531 -19 q 153 80 257 -19 q 50 360 50 179 q 103 578 50 482 q 250 727 156 674 q 465 781 344 781 m 444 686 q 300 468 318 686 l 549 468 q 554 553 554 518 q 444 686 554 686 z "},"é":{"ha":840,"x_min":50,"x_max":782,"o":"m 50 0 m 465 781 q 701 703 619 781 q 782 479 782 626 q 772 360 782 418 l 300 360 q 363 178 310 239 q 515 117 415 117 q 731 163 626 117 l 767 78 q 622 6 713 32 q 447 -19 531 -19 q 153 80 257 -19 q 50 360 50 179 q 103 578 50 482 q 250 727 156 674 q 465 781 344 781 m 444 686 q 300 468 318 686 l 549 468 q 554 553 554 518 q 444 686 554 686 m 572 1256 l 744 1124 q 611 998 701 1054 q 418 906 521 942 l 358 967 l 572 1256 z "},"ě":{"ha":840,"x_min":50,"x_max":782,"o":"m 50 0 m 465 781 q 701 703 619 781 q 782 479 782 626 q 772 360 782 418 l 300 360 q 363 178 310 239 q 515 117 415 117 q 731 163 626 117 l 767 78 q 622 6 713 32 q 447 -19 531 -19 q 153 80 257 -19 q 50 360 50 179 q 103 578 50 482 q 250 727 156 674 q 465 781 344 781 m 444 686 q 300 468 318 686 l 549 468 q 554 553 554 518 q 444 686 554 686 m 264 1204 l 444 1064 l 619 1203 l 718 1153 l 531 906 l 358 906 l 175 1154 l 264 1204 z "},"ê":{"ha":840,"x_min":50,"x_max":782,"o":"m 50 0 m 465 781 q 701 703 619 781 q 782 479 782 626 q 772 360 782 418 l 300 360 q 363 178 310 239 q 515 117 415 117 q 731 163 626 117 l 767 78 q 622 6 713 32 q 447 -19 531 -19 q 153 80 257 -19 q 50 360 50 179 q 103 578 50 482 q 250 727 156 674 q 465 781 344 781 m 444 686 q 300 468 318 686 l 549 468 q 554 553 554 518 q 444 686 554 686 m 365 1204 l 538 1204 l 725 956 l 626 906 l 451 1046 l 271 906 l 182 956 l 365 1204 z "},"ë":{"ha":840,"x_min":50,"x_max":782,"o":"m 50 0 m 465 781 q 701 703 619 781 q 782 479 782 626 q 772 360 782 418 l 300 360 q 363 178 310 239 q 515 117 415 117 q 731 163 626 117 l 767 78 q 622 6 713 32 q 447 -19 531 -19 q 153 80 257 -19 q 50 360 50 179 q 103 578 50 482 q 250 727 156 674 q 465 781 344 781 m 444 686 q 300 468 318 686 l 549 468 q 554 553 554 518 q 444 686 554 686 m 264 914 q 178 940 213 914 q 143 1008 143 965 q 187 1088 143 1057 q 282 1119 231 1119 q 372 1095 338 1119 q 407 1024 407 1071 q 363 944 407 974 q 264 914 318 914 m 621 915 q 533 942 567 915 q 499 1010 499 968 q 543 1089 499 1058 q 639 1119 588 1119 q 728 1095 697 1119 q 760 1025 760 1071 q 718 944 760 974 q 621 915 676 915 z "},"ė":{"ha":840,"x_min":50,"x_max":782,"o":"m 50 0 m 465 781 q 701 703 619 781 q 782 479 782 626 q 772 360 782 418 l 300 360 q 363 178 310 239 q 515 117 415 117 q 731 163 626 117 l 767 78 q 622 6 713 32 q 447 -19 531 -19 q 153 80 257 -19 q 50 360 50 179 q 103 578 50 482 q 250 727 156 674 q 465 781 344 781 m 444 686 q 300 468 318 686 l 549 468 q 554 553 554 518 q 444 686 554 686 m 447 1106 q 538 1081 503 1106 q 572 1010 572 1057 q 528 930 572 960 q 429 900 483 900 q 343 926 378 900 q 308 994 308 951 q 352 1074 308 1043 q 447 1106 396 1106 z "},"è":{"ha":840,"x_min":50,"x_max":782,"o":"m 50 0 m 465 781 q 701 703 619 781 q 782 479 782 626 q 772 360 782 418 l 300 360 q 363 178 310 239 q 515 117 415 117 q 731 163 626 117 l 767 78 q 622 6 713 32 q 447 -19 531 -19 q 153 80 257 -19 q 50 360 50 179 q 103 578 50 482 q 250 727 156 674 q 465 781 344 781 m 444 686 q 300 468 318 686 l 549 468 q 554 553 554 518 q 444 686 554 686 m 532 907 q 419 938 482 904 q 298 1022 356 971 q 206 1124 240 1074 l 378 1256 l 592 967 l 532 907 z "},"ē":{"ha":840,"x_min":50,"x_max":782,"o":"m 50 0 m 465 781 q 701 703 619 781 q 782 479 782 626 q 772 360 782 418 l 300 360 q 363 178 310 239 q 515 117 415 117 q 731 163 626 117 l 767 78 q 622 6 713 32 q 447 -19 531 -19 q 153 80 257 -19 q 50 360 50 179 q 103 578 50 482 q 250 727 156 674 q 465 781 344 781 m 444 686 q 300 468 318 686 l 549 468 q 554 553 554 518 q 444 686 554 686 m 642 1074 l 642 911 l 258 911 l 258 1074 l 642 1074 z "},"ę":{"ha":840,"x_min":50,"x_max":796,"o":"m 465 781 q 701 703 619 781 q 782 479 782 626 q 772 360 782 418 l 300 360 q 363 178 310 239 q 515 117 415 117 q 731 163 626 117 l 767 78 q 597 -147 597 -68 q 634 -197 597 -181 q 725 -214 671 -214 q 796 -206 763 -214 l 796 -299 q 706 -335 765 -321 q 601 -349 647 -349 q 473 -320 522 -349 q 424 -231 424 -292 q 461 -107 424 -158 q 572 -6 499 -56 q 435 -19 508 -19 q 150 83 250 -15 q 50 360 50 182 q 103 578 50 482 q 250 727 156 674 q 465 781 344 781 m 444 686 q 300 468 318 686 l 549 468 q 554 553 554 518 q 444 686 554 686 z "},"f":{"ha":642,"x_min":35,"x_max":640,"o":"m 158 113 l 158 619 l 35 619 l 35 690 l 158 744 l 158 815 q 205 988 158 904 q 328 1124 251 1072 q 494 1176 406 1176 q 575 1170 531 1176 q 640 1154 619 1164 l 640 978 q 566 1003 614 992 q 489 1015 518 1015 q 416 988 433 1015 q 399 888 399 960 l 399 758 l 603 758 l 603 619 l 399 619 l 399 113 l 561 92 l 561 0 l 49 0 l 49 92 l 158 113 z "},"g":{"ha":865,"x_min":46,"x_max":869,"o":"m 419 781 q 658 717 575 781 q 810 781 689 781 l 869 781 l 869 617 l 729 617 q 742 533 742 579 q 644 331 742 399 q 392 263 547 263 q 272 272 322 263 q 261 224 261 246 q 285 165 261 183 q 358 146 310 146 l 518 146 q 702 127 632 146 q 808 60 772 108 q 844 -75 844 13 q 782 -233 844 -168 q 617 -328 719 -297 q 394 -360 515 -360 q 142 -313 236 -360 q 47 -160 47 -267 q 78 -53 47 -101 q 161 24 110 -6 q 101 70 117 42 q 86 151 86 99 q 115 230 86 186 q 178 303 143 274 q 46 511 46 367 q 97 660 46 599 q 232 751 147 721 q 419 781 317 781 m 396 686 q 312 652 343 686 q 281 563 281 618 q 310 422 281 472 q 408 371 339 371 q 493 415 465 371 q 521 525 521 458 q 489 644 521 603 q 396 686 457 686 m 269 3 q 250 -93 250 -36 q 303 -212 250 -172 q 440 -253 357 -253 q 581 -228 536 -253 q 625 -129 625 -203 q 592 -27 625 -54 q 472 0 558 0 l 353 0 q 269 3 294 0 z "},"ğ":{"ha":865,"x_min":46,"x_max":869,"o":"m 46 0 m 419 781 q 658 717 575 781 q 810 781 689 781 l 869 781 l 869 617 l 729 617 q 742 533 742 579 q 644 331 742 399 q 392 263 547 263 q 272 272 322 263 q 261 224 261 246 q 285 165 261 183 q 358 146 310 146 l 518 146 q 702 127 632 146 q 808 60 772 108 q 844 -75 844 13 q 782 -233 844 -168 q 617 -328 719 -297 q 394 -360 515 -360 q 142 -313 236 -360 q 47 -160 47 -267 q 78 -53 47 -101 q 161 24 110 -6 q 101 70 117 42 q 86 151 86 99 q 115 230 86 186 q 178 303 143 274 q 46 511 46 367 q 97 660 46 599 q 232 751 147 721 q 419 781 317 781 m 396 686 q 312 652 343 686 q 281 563 281 618 q 310 422 281 472 q 408 371 339 371 q 493 415 465 371 q 521 525 521 458 q 489 644 521 603 q 396 686 457 686 m 269 3 q 250 -93 250 -36 q 303 -212 250 -172 q 440 -253 357 -253 q 581 -228 536 -253 q 625 -129 625 -203 q 592 -27 625 -54 q 472 0 558 0 l 353 0 q 269 3 294 0 m 657 1149 q 623 1029 657 1083 q 531 943 589 975 q 404 911 474 911 q 274 943 332 911 q 183 1029 217 975 q 150 1149 150 1083 l 293 1149 q 404 1047 318 1047 q 476 1075 447 1047 q 517 1149 504 1103 l 657 1149 z "},"ģ":{"ha":865,"x_min":46,"x_max":869,"o":"m 46 0 m 419 781 q 658 717 575 781 q 810 781 689 781 l 869 781 l 869 617 l 729 617 q 742 533 742 579 q 644 331 742 399 q 392 263 547 263 q 272 272 322 263 q 261 224 261 246 q 285 165 261 183 q 358 146 310 146 l 518 146 q 702 127 632 146 q 808 60 772 108 q 844 -75 844 13 q 782 -233 844 -168 q 617 -328 719 -297 q 394 -360 515 -360 q 142 -313 236 -360 q 47 -160 47 -267 q 78 -53 47 -101 q 161 24 110 -6 q 101 70 117 42 q 86 151 86 99 q 115 230 86 186 q 178 303 143 274 q 46 511 46 367 q 97 660 46 599 q 232 751 147 721 q 419 781 317 781 m 396 686 q 312 652 343 686 q 281 563 281 618 q 310 422 281 472 q 408 371 339 371 q 493 415 465 371 q 521 525 521 458 q 489 644 521 603 q 396 686 457 686 m 269 3 q 250 -93 250 -36 q 303 -212 250 -172 q 440 -253 357 -253 q 581 -228 536 -253 q 625 -129 625 -203 q 592 -27 625 -54 q 472 0 558 0 l 353 0 q 269 3 294 0 m 450 904 q 322 958 371 904 q 272 1094 272 1011 q 325 1226 272 1164 q 444 1311 378 1289 l 531 1276 l 531 1261 q 480 1209 494 1231 q 465 1157 465 1188 q 492 1093 465 1119 q 550 1067 518 1067 l 550 1014 l 450 904 z "},"h":{"ha":967,"x_min":40,"x_max":933,"o":"m 138 111 l 138 939 l 46 978 l 46 1072 l 339 1106 l 378 1093 l 378 760 l 364 690 q 615 781 464 781 q 760 738 711 781 q 826 620 810 696 q 840 425 842 544 l 840 111 l 933 92 l 933 0 l 503 1 l 503 92 l 601 111 l 601 392 q 594 526 601 478 q 559 603 586 575 q 475 632 532 632 q 378 601 417 632 l 378 110 l 444 92 l 444 0 l 40 0 l 40 92 l 138 111 z "},"ħ":{"ha":967,"x_min":29,"x_max":933,"o":"m 138 111 l 138 792 l 29 792 l 29 878 l 138 878 l 138 939 l 46 978 l 46 1072 l 339 1106 l 378 1093 l 378 878 l 501 878 l 501 792 l 378 792 l 378 760 l 364 690 q 615 781 464 781 q 760 738 711 781 q 826 620 810 696 q 840 425 842 544 l 840 111 l 933 92 l 933 0 l 503 1 l 503 92 l 601 111 l 601 392 q 594 526 601 478 q 559 603 586 575 q 475 632 532 632 q 378 601 417 632 l 378 110 l 444 92 l 444 0 l 40 0 l 40 92 l 138 111 z "},"i":{"ha":507,"x_min":54,"x_max":482,"o":"m 269 1178 q 372 1144 336 1178 q 408 1050 408 1110 q 359 941 408 983 q 243 899 310 899 q 144 935 185 899 q 104 1026 104 971 q 128 1103 104 1068 q 191 1158 153 1138 q 269 1178 229 1178 m 385 764 l 385 110 l 482 92 l 482 0 l 54 0 l 54 92 l 144 111 l 144 533 l 58 631 l 58 694 l 326 781 l 385 764 z "},"ı":{"ha":507,"x_min":54,"x_max":482,"o":"m 144 111 l 144 533 l 58 631 l 58 694 l 326 781 l 385 764 l 385 110 l 482 92 l 482 0 l 54 0 l 54 92 l 144 111 z "},"í":{"ha":507,"x_min":54,"x_max":558,"o":"m 54 0 m 144 111 l 144 533 l 58 631 l 58 694 l 326 781 l 385 764 l 385 110 l 482 92 l 482 0 l 54 0 l 54 92 l 144 111 m 386 1256 l 558 1124 q 425 998 515 1054 q 232 906 335 942 l 172 967 l 386 1256 z "},"î":{"ha":507,"x_min":-4,"x_max":539,"o":"m 179 1204 l 350 1204 l 539 956 l 440 906 l 264 1046 l 85 906 l -4 956 l 179 1204 m 144 111 l 144 533 l 58 631 l 58 694 l 326 785 l 385 768 l 385 110 l 481 92 l 481 0 l 54 0 l 54 92 l 144 111 z "},"ï":{"ha":507,"x_min":-44,"x_max":572,"o":"m 0 0 m 144 111 l 144 533 l 58 631 l 58 694 l 326 781 l 385 764 l 385 110 l 482 92 l 482 0 l 54 0 l 54 92 l 144 111 m 76 914 q -10 940 25 914 q -44 1008 -44 965 q -1 1088 -44 1057 q 94 1119 43 1119 q 185 1095 150 1119 q 219 1024 219 1071 q 175 944 219 974 q 76 914 131 914 m 433 915 q 345 942 379 915 q 311 1010 311 968 q 356 1089 311 1058 q 451 1119 400 1119 q 541 1095 510 1119 q 572 1025 572 1071 q 531 944 572 974 q 433 915 489 915 z "},"ì":{"ha":507,"x_min":19,"x_max":481,"o":"m 346 907 q 233 937 296 904 q 113 1021 171 969 q 19 1124 54 1072 l 192 1256 l 406 967 l 346 907 m 144 111 l 144 533 l 58 631 l 58 694 l 326 785 l 385 768 l 385 110 l 481 92 l 481 0 l 54 0 l 54 92 l 144 111 z "},"ĳ":{"ha":971,"x_min":54,"x_max":889,"o":"m 54 0 m 269 1178 q 372 1144 336 1178 q 408 1050 408 1110 q 359 941 408 983 q 243 899 310 899 q 144 935 185 899 q 104 1026 104 971 q 128 1103 104 1068 q 191 1158 153 1138 q 269 1178 229 1178 m 385 764 l 385 110 l 482 92 l 482 0 l 54 0 l 54 92 l 144 111 l 144 533 l 58 631 l 58 694 l 326 781 l 385 764 m 750 1178 q 852 1144 815 1178 q 889 1050 889 1110 q 840 942 889 986 q 724 899 792 899 q 625 935 665 899 q 585 1026 585 971 q 609 1103 585 1068 q 672 1158 633 1138 q 750 1178 710 1178 m 878 763 l 878 -32 q 811 -276 878 -183 q 621 -368 744 -368 q 542 -360 588 -368 q 479 -343 496 -351 l 479 -215 q 517 -221 493 -218 q 563 -224 542 -224 q 614 -196 597 -224 q 634 -125 631 -168 q 638 -4 638 -82 l 638 533 l 563 633 l 563 693 l 822 781 l 878 763 z "},"ī":{"ha":507,"x_min":54,"x_max":482,"o":"m 54 0 m 144 111 l 144 533 l 58 631 l 58 694 l 326 781 l 385 764 l 385 110 l 482 92 l 482 0 l 54 0 l 54 92 l 144 111 m 443 1074 l 443 911 l 60 911 l 60 1074 l 443 1074 z "},"į":{"ha":507,"x_min":35,"x_max":486,"o":"m 243 899 q 144 935 185 899 q 104 1026 104 971 q 128 1103 104 1068 q 191 1158 153 1138 q 269 1178 229 1178 q 372 1144 336 1178 q 408 1050 408 1110 q 359 941 408 983 q 243 899 310 899 m 486 -257 q 179 -349 358 -349 q 74 -317 114 -349 q 35 -232 35 -286 q 73 -142 35 -189 q 170 -58 111 -96 q 286 0 229 -19 l 54 0 l 54 92 l 144 111 l 144 533 l 58 631 l 58 694 l 326 781 l 385 764 l 385 110 l 482 92 l 482 0 l 451 0 q 315 -69 379 -24 q 251 -164 251 -114 q 301 -203 251 -203 q 375 -194 340 -203 q 463 -165 410 -185 l 486 -257 z "},"ĩ":{"ha":507,"x_min":-26,"x_max":554,"o":"m 0 0 m 144 111 l 144 533 l 58 631 l 58 694 l 326 781 l 385 764 l 385 110 l 482 92 l 482 0 l 54 0 l 54 92 l 144 111 m -26 994 q 22 1062 -14 1029 q 101 1115 57 1094 q 182 1136 146 1136 q 248 1126 219 1136 q 307 1096 276 1115 q 346 1075 329 1082 q 381 1068 363 1068 q 440 1081 414 1068 q 493 1117 465 1094 l 554 1050 q 467 951 532 996 q 350 907 403 907 q 286 917 314 907 q 222 949 258 928 q 180 971 196 964 q 146 978 164 978 q 91 964 121 978 q 32 928 61 950 l -26 994 z "},"j":{"ha":464,"x_min":-28,"x_max":382,"o":"m 243 1178 q 345 1144 308 1178 q 382 1050 382 1110 q 333 942 382 986 q 217 899 285 899 q 118 935 158 899 q 78 1026 78 971 q 102 1103 78 1068 q 165 1158 126 1138 q 243 1178 203 1178 m 371 763 l 371 -32 q 304 -276 371 -183 q 114 -368 238 -368 q 35 -360 81 -368 q -28 -343 -11 -351 l -28 -215 q 10 -221 -14 -218 q 56 -224 35 -224 q 107 -196 90 -224 q 127 -125 124 -168 q 131 -4 131 -82 l 131 533 l 56 633 l 56 693 l 315 781 l 371 763 z "},"ȷ":{"ha":464,"x_min":-28,"x_max":371,"o":"m 56 633 l 56 693 l 315 781 l 371 763 l 371 -32 q 304 -276 371 -183 q 114 -368 238 -368 q 35 -360 81 -368 q -28 -343 -11 -351 l -28 -215 q 10 -221 -14 -218 q 56 -224 35 -224 q 107 -196 90 -224 q 127 -125 124 -168 q 131 -4 131 -82 l 131 533 l 56 633 z "},"ĵ":{"ha":464,"x_min":-28,"x_max":519,"o":"m 160 1244 l 332 1244 l 519 996 l 421 946 l 246 1086 l 65 946 l -24 996 l 160 1244 m 56 633 l 56 693 l 315 781 l 371 763 l 371 -32 q 304 -276 371 -183 q 114 -368 238 -368 q 35 -360 81 -368 q -28 -343 -11 -351 l -28 -215 q 10 -221 -14 -218 q 56 -224 35 -224 q 107 -196 90 -224 q 127 -125 124 -168 q 131 -4 131 -82 l 131 533 l 56 633 z "},"k":{"ha":921,"x_min":29,"x_max":899,"o":"m 138 113 l 138 917 l 29 965 l 29 1061 l 336 1106 l 378 1088 l 378 482 l 369 386 l 590 624 l 465 638 l 465 758 l 899 758 l 899 638 l 761 625 l 597 468 l 829 107 l 899 93 l 899 0 l 497 0 l 497 93 l 554 113 l 440 325 l 371 246 l 376 190 l 376 110 l 457 92 l 457 0 l 47 0 l 47 92 l 138 113 z "},"ķ":{"ha":921,"x_min":29,"x_max":899,"o":"m 29 0 m 138 113 l 138 917 l 29 965 l 29 1061 l 336 1106 l 378 1088 l 378 482 l 369 386 l 590 624 l 465 638 l 465 758 l 899 758 l 899 638 l 761 625 l 597 468 l 829 107 l 899 93 l 899 0 l 497 0 l 497 93 l 554 113 l 440 325 l 371 246 l 376 190 l 376 110 l 457 92 l 457 0 l 47 0 l 47 92 l 138 113 m 421 -28 q 549 -81 500 -28 q 599 -218 599 -135 q 546 -350 599 -287 q 426 -435 493 -412 l 340 -400 l 340 -385 q 391 -333 376 -354 q 406 -281 406 -311 q 379 -217 406 -243 q 321 -190 353 -190 l 321 -137 l 421 -28 z "},"ĸ":{"ha":921,"x_min":46,"x_max":899,"o":"m 138 113 l 138 556 l 46 619 l 46 706 l 297 781 l 378 758 l 378 481 l 369 386 l 590 624 l 465 638 l 465 758 l 899 758 l 899 638 l 761 625 l 597 468 l 829 107 l 899 93 l 899 0 l 497 0 l 497 93 l 554 113 l 440 325 l 371 246 l 376 190 l 376 110 l 457 92 l 457 0 l 47 0 l 47 92 l 138 113 z "},"l":{"ha":499,"x_min":36,"x_max":486,"o":"m 128 110 l 128 939 l 36 978 l 36 1072 l 328 1106 l 368 1093 l 368 113 l 486 92 l 486 0 l 47 0 l 47 92 l 128 110 z "},"ĺ":{"ha":499,"x_min":36,"x_max":550,"o":"m 36 0 m 128 110 l 128 939 l 36 978 l 36 1072 l 328 1106 l 368 1093 l 368 113 l 486 92 l 486 0 l 47 0 l 47 92 l 128 110 m 378 1507 l 550 1375 q 417 1249 507 1306 q 224 1157 326 1193 l 164 1218 l 378 1507 z "},"ľ":{"ha":499,"x_min":36,"x_max":638,"o":"m 36 0 m 128 110 l 128 939 l 36 978 l 36 1072 l 328 1106 l 368 1093 l 368 113 l 486 92 l 486 0 l 47 0 l 47 92 l 128 110 m 432 713 q 440 834 439 775 q 442 936 442 893 q 431 1026 442 982 q 407 1086 419 1071 l 417 1115 l 593 1160 q 625 1077 613 1139 q 638 957 638 1015 q 613 803 638 882 q 556 668 589 724 l 439 694 l 432 713 z "},"ļ":{"ha":499,"x_min":36,"x_max":486,"o":"m 36 0 m 128 110 l 128 939 l 36 978 l 36 1072 l 328 1106 l 368 1093 l 368 113 l 486 92 l 486 0 l 47 0 l 47 92 l 128 110 m 204 -28 q 333 -81 283 -28 q 382 -218 382 -135 q 329 -350 382 -287 q 210 -435 276 -412 l 124 -400 l 124 -385 q 174 -333 160 -354 q 189 -281 189 -311 q 163 -217 189 -243 q 104 -190 136 -190 l 104 -137 l 204 -28 z "},"ŀ":{"ha":776,"x_min":33,"x_max":778,"o":"m 365 1093 l 365 113 l 485 92 l 485 0 l 46 0 l 46 92 l 125 110 l 125 939 l 33 978 l 33 1072 l 326 1106 l 365 1093 m 638 689 q 741 653 704 689 q 778 557 778 618 q 728 451 778 493 q 614 408 678 408 q 517 444 558 408 q 476 535 476 479 q 500 611 476 575 q 562 668 524 647 q 638 689 600 689 z "},"ł":{"ha":499,"x_min":36,"x_max":500,"o":"m 128 110 l 128 438 l 49 411 l 49 579 l 128 608 l 128 939 l 36 978 l 36 1072 l 328 1106 l 368 1093 l 368 696 l 500 746 l 500 567 l 368 521 l 368 113 l 486 92 l 486 0 l 47 0 l 47 92 l 128 110 z "},"m":{"ha":1471,"x_min":58,"x_max":1439,"o":"m 150 110 l 150 556 l 58 621 l 58 706 l 311 781 l 361 768 l 361 667 q 475 748 406 715 q 608 782 544 781 q 839 675 788 792 q 956 753 892 726 q 1090 781 1021 781 q 1284 697 1224 781 q 1344 457 1344 613 l 1344 111 l 1439 92 l 1439 0 l 1025 0 l 1025 92 l 1104 111 l 1104 426 q 1094 546 1104 504 q 1053 607 1083 588 q 964 626 1024 626 q 915 617 942 626 q 865 592 888 607 q 872 478 872 554 l 872 111 l 968 92 l 968 0 l 536 0 l 536 92 l 632 113 l 632 432 q 606 580 632 533 q 508 626 579 626 q 439 617 472 626 q 390 592 406 607 l 390 111 l 479 92 l 479 0 l 67 0 l 67 92 l 150 110 z "},"n":{"ha":994,"x_min":58,"x_max":963,"o":"m 150 110 l 150 556 l 58 621 l 58 706 l 310 781 l 361 768 l 361 667 q 492 750 414 719 q 644 781 571 781 q 818 704 768 781 q 868 475 868 628 l 868 110 l 963 92 l 963 0 l 531 0 l 531 92 l 628 111 l 628 444 q 618 556 628 519 q 580 608 608 593 q 493 624 551 624 q 439 613 475 624 q 390 593 403 603 l 390 111 l 474 92 l 474 0 l 65 0 l 65 92 l 150 110 z "},"ń":{"ha":994,"x_min":58,"x_max":963,"o":"m 639 1256 l 813 1124 q 680 998 771 1056 q 486 906 589 940 l 426 967 l 639 1256 m 150 110 l 150 556 l 58 621 l 58 706 l 310 781 l 361 768 l 361 667 q 492 750 414 719 q 644 781 571 781 q 818 704 768 781 q 868 475 868 628 l 868 110 l 963 92 l 963 0 l 531 0 l 531 92 l 628 111 l 628 444 q 618 556 628 519 q 580 608 608 593 q 493 624 551 624 q 439 613 475 624 q 390 593 403 603 l 390 111 l 474 92 l 474 0 l 65 0 l 65 92 l 150 110 z "},"ň":{"ha":994,"x_min":58,"x_max":963,"o":"m 58 0 m 150 110 l 150 556 l 58 621 l 58 706 l 310 781 l 361 768 l 361 667 q 492 750 414 719 q 644 781 571 781 q 818 704 768 781 q 868 475 868 628 l 868 110 l 963 92 l 963 0 l 531 0 l 531 92 l 628 111 l 628 444 q 618 556 628 519 q 580 608 608 593 q 493 624 551 624 q 439 613 475 624 q 390 593 403 603 l 390 111 l 474 92 l 474 0 l 65 0 l 65 92 l 150 110 m 319 1204 l 500 1064 l 675 1203 l 774 1153 l 586 906 l 414 906 l 231 1154 l 319 1204 z "},"ņ":{"ha":994,"x_min":58,"x_max":963,"o":"m 58 0 m 150 110 l 150 556 l 58 621 l 58 706 l 310 781 l 361 768 l 361 667 q 492 750 414 719 q 644 781 571 781 q 818 704 768 781 q 868 475 868 628 l 868 110 l 963 92 l 963 0 l 531 0 l 531 92 l 628 111 l 628 444 q 618 556 628 519 q 580 608 608 593 q 493 624 551 624 q 439 613 475 624 q 390 593 403 603 l 390 111 l 474 92 l 474 0 l 65 0 l 65 92 l 150 110 m 454 -28 q 583 -81 533 -28 q 632 -218 632 -135 q 579 -350 632 -287 q 460 -435 526 -412 l 374 -400 l 374 -385 q 424 -333 410 -354 q 439 -281 439 -311 q 413 -217 439 -243 q 354 -190 386 -190 l 354 -137 l 454 -28 z "},"ñ":{"ha":994,"x_min":58,"x_max":963,"o":"m 58 0 m 150 110 l 150 556 l 58 621 l 58 706 l 310 781 l 361 768 l 361 667 q 492 750 414 719 q 644 781 571 781 q 818 704 768 781 q 868 475 868 628 l 868 110 l 963 92 l 963 0 l 531 0 l 531 92 l 628 111 l 628 444 q 618 556 628 519 q 580 608 608 593 q 493 624 551 624 q 439 613 475 624 q 390 593 403 603 l 390 111 l 474 92 l 474 0 l 65 0 l 65 92 l 150 110 m 228 994 q 276 1062 240 1029 q 356 1115 311 1094 q 436 1136 400 1136 q 502 1126 474 1136 q 561 1096 531 1115 q 600 1075 583 1082 q 635 1068 617 1068 q 694 1081 668 1068 q 747 1117 719 1094 l 808 1050 q 722 951 786 996 q 604 907 657 907 q 540 917 568 907 q 476 949 513 928 q 434 971 450 964 q 400 978 418 978 q 345 964 375 978 q 286 928 315 950 l 228 994 z "},"o":{"ha":906,"x_min":49,"x_max":857,"o":"m 467 782 q 757 683 657 782 q 857 401 857 585 q 806 181 857 275 q 662 35 754 86 q 447 -17 569 -17 q 152 88 256 -17 q 51 381 49 193 q 167 672 56 567 q 467 782 278 776 m 461 682 q 342 605 378 682 q 307 400 307 528 q 342 178 307 272 q 456 83 376 83 q 572 168 540 83 q 603 389 603 253 q 571 599 603 517 q 461 682 539 682 z "},"ó":{"ha":906,"x_min":49,"x_max":857,"o":"m 49 0 m 467 782 q 757 683 657 782 q 857 401 857 585 q 806 181 857 275 q 662 35 754 86 q 447 -17 569 -17 q 152 88 256 -17 q 51 381 49 193 q 167 672 56 567 q 467 782 278 776 m 461 682 q 342 605 378 682 q 307 400 307 528 q 342 178 307 272 q 456 83 376 83 q 572 168 540 83 q 603 389 603 253 q 571 599 603 517 q 461 682 539 682 m 578 1256 l 750 1124 q 617 998 707 1054 q 424 906 526 942 l 364 967 l 578 1256 z "},"ô":{"ha":906,"x_min":49,"x_max":857,"o":"m 49 0 m 467 782 q 757 683 657 782 q 857 401 857 585 q 806 181 857 275 q 662 35 754 86 q 447 -17 569 -17 q 152 88 256 -17 q 51 381 49 193 q 167 672 56 567 q 467 782 278 776 m 461 682 q 342 605 378 682 q 307 400 307 528 q 342 178 307 272 q 456 83 376 83 q 572 168 540 83 q 603 389 603 253 q 571 599 603 517 q 461 682 539 682 m 369 1204 l 542 1204 l 729 956 l 631 906 l 456 1046 l 275 906 l 186 956 l 369 1204 z "},"ö":{"ha":906,"x_min":49,"x_max":857,"o":"m 49 0 m 467 782 q 757 683 657 782 q 857 401 857 585 q 806 181 857 275 q 662 35 754 86 q 447 -17 569 -17 q 152 88 256 -17 q 51 381 49 193 q 167 672 56 567 q 467 782 278 776 m 461 682 q 342 605 378 682 q 307 400 307 528 q 342 178 307 272 q 456 83 376 83 q 572 168 540 83 q 603 389 603 253 q 571 599 603 517 q 461 682 539 682 m 268 914 q 182 940 217 914 q 147 1008 147 965 q 191 1088 147 1057 q 286 1119 235 1119 q 376 1095 342 1119 q 411 1024 411 1071 q 367 944 411 974 q 268 914 322 914 m 625 915 q 537 942 571 915 q 503 1010 503 968 q 547 1089 503 1058 q 643 1119 592 1119 q 733 1095 701 1119 q 764 1025 764 1071 q 722 944 764 974 q 625 915 681 915 z "},"ò":{"ha":906,"x_min":49,"x_max":857,"o":"m 49 0 m 467 782 q 757 683 657 782 q 857 401 857 585 q 806 181 857 275 q 662 35 754 86 q 447 -17 569 -17 q 152 88 256 -17 q 51 381 49 193 q 167 672 56 567 q 467 782 278 776 m 461 682 q 342 605 378 682 q 307 400 307 528 q 342 178 307 272 q 456 83 376 83 q 572 168 540 83 q 603 389 603 253 q 571 599 603 517 q 461 682 539 682 m 538 907 q 424 938 488 904 q 303 1022 361 971 q 211 1124 246 1074 l 383 1256 l 597 967 l 538 907 z "},"ő":{"ha":906,"x_min":49,"x_max":865,"o":"m 49 0 m 467 782 q 757 683 657 782 q 857 401 857 585 q 806 181 857 275 q 662 35 754 86 q 447 -17 569 -17 q 152 88 256 -17 q 51 381 49 193 q 167 672 56 567 q 467 782 278 776 m 461 682 q 342 605 378 682 q 307 400 307 528 q 342 178 307 272 q 456 83 376 83 q 572 168 540 83 q 603 389 603 253 q 571 599 603 517 q 461 682 539 682 m 324 1246 l 474 1133 q 351 993 426 1067 q 224 897 276 919 l 126 964 l 324 1246 m 710 1246 l 865 1133 q 731 983 801 1051 q 608 897 660 914 l 515 964 l 710 1246 z "},"ō":{"ha":906,"x_min":49,"x_max":857,"o":"m 49 0 m 644 1074 l 644 911 l 261 911 l 261 1074 l 644 1074 m 467 782 q 757 683 657 782 q 857 401 857 585 q 806 181 857 275 q 662 35 754 86 q 447 -17 569 -17 q 152 88 256 -17 q 51 381 49 193 q 167 672 56 567 q 467 782 278 776 m 461 682 q 342 605 378 682 q 307 400 307 528 q 342 178 307 272 q 456 83 376 83 q 572 168 540 83 q 603 389 603 253 q 571 599 603 517 q 461 682 539 682 z "},"ø":{"ha":906,"x_min":51,"x_max":857,"o":"m 292 4 q 110 139 169 43 q 51 371 51 235 q 163 669 51 561 q 465 782 275 776 q 539 778 503 782 l 572 889 l 647 871 l 614 763 q 796 635 735 731 q 857 401 857 540 q 806 181 857 275 q 661 35 754 86 q 447 -17 568 -17 q 368 -11 418 -17 l 329 -139 l 253 -121 l 292 4 m 503 674 q 460 682 485 682 q 341 602 376 682 q 306 400 306 522 q 317 273 306 339 q 347 167 328 207 l 503 674 m 407 94 q 454 83 429 83 q 569 167 538 83 q 601 389 601 250 q 564 611 601 542 l 407 94 z "},"õ":{"ha":906,"x_min":49,"x_max":857,"o":"m 49 0 m 467 782 q 757 683 657 782 q 857 401 857 585 q 806 181 857 275 q 662 35 754 86 q 447 -17 569 -17 q 152 88 256 -17 q 51 381 49 193 q 167 672 56 567 q 467 782 278 776 m 461 682 q 342 605 378 682 q 307 400 307 528 q 342 178 307 272 q 456 83 376 83 q 572 168 540 83 q 603 389 603 253 q 571 599 603 517 q 461 682 539 682 m 167 994 q 215 1062 179 1029 q 294 1115 250 1094 q 375 1136 339 1136 q 441 1126 413 1136 q 500 1096 469 1115 q 539 1075 522 1082 q 574 1068 556 1068 q 633 1081 607 1068 q 686 1117 658 1094 l 747 1050 q 660 951 725 996 q 543 907 596 907 q 479 917 507 907 q 415 949 451 928 q 373 971 389 964 q 339 978 357 978 q 284 964 314 978 q 225 928 254 950 l 167 994 z "},"œ":{"ha":1471,"x_min":49,"x_max":1424,"o":"m 1106 781 q 1335 708 1254 781 q 1421 497 1415 636 q 1413 360 1424 436 l 939 360 q 1003 178 950 239 q 1154 117 1056 117 q 1371 163 1265 117 l 1407 78 q 1261 6 1353 32 q 1086 -19 1169 -19 q 761 114 863 -19 q 623 17 708 51 q 447 -17 538 -17 q 152 88 256 -17 q 51 381 49 193 q 167 672 56 567 q 467 782 278 776 q 789 644 689 785 q 924 745 843 710 q 1106 781 1004 781 m 1083 686 q 980 625 1015 686 q 940 468 944 564 l 1188 468 q 1193 553 1193 518 q 1083 686 1193 686 m 461 682 q 342 603 376 682 q 307 400 307 524 q 342 178 307 272 q 456 83 376 83 q 572 168 540 83 q 603 389 603 253 q 571 599 603 517 q 461 682 539 682 z "},"p":{"ha":915,"x_min":39,"x_max":865,"o":"m 557 781 q 788 681 711 781 q 865 404 865 581 q 808 192 865 289 q 654 40 751 96 q 440 -17 557 -17 q 394 -12 424 -17 q 361 -8 365 -8 l 369 -119 l 369 -233 l 514 -253 l 514 -347 l 42 -347 l 42 -253 l 131 -233 l 131 556 l 39 621 l 39 706 l 290 781 l 338 768 l 338 681 q 427 751 358 721 q 557 781 496 781 m 460 657 q 408 642 435 657 q 369 610 381 626 l 369 150 q 415 115 379 126 q 485 103 451 103 q 592 181 556 103 q 629 365 629 258 q 587 574 629 492 q 460 657 544 657 z "},"þ":{"ha":914,"x_min":10,"x_max":865,"o":"m 356 1093 l 356 738 q 533 781 432 781 q 778 681 690 781 q 865 410 865 581 q 809 193 865 292 q 654 38 753 94 q 436 -19 556 -19 q 346 -14 407 -19 l 356 -69 l 356 -232 l 500 -251 l 500 -347 l 10 -347 l 10 -251 l 115 -232 l 115 939 l 31 978 l 31 1072 l 317 1104 l 356 1093 m 440 663 q 356 649 390 663 l 356 136 q 398 94 369 110 q 461 79 426 79 q 585 170 547 79 q 622 397 622 261 q 573 585 622 508 q 440 663 524 663 z "},"q":{"ha":906,"x_min":50,"x_max":901,"o":"m 499 781 q 601 769 550 781 q 683 738 651 758 l 778 781 l 813 765 l 813 -240 l 901 -257 l 901 -347 l 443 -347 l 443 -257 l 572 -242 l 572 -32 l 581 51 q 497 0 546 17 q 394 -17 447 -17 q 137 86 224 -17 q 50 375 50 189 q 110 584 50 492 q 272 728 169 676 q 499 781 375 781 m 493 678 q 342 604 383 678 q 300 383 300 531 q 342 193 300 267 q 472 119 383 119 q 572 147 538 119 l 572 640 q 538 668 561 658 q 493 678 515 678 z "},"r":{"ha":656,"x_min":58,"x_max":626,"o":"m 150 110 l 150 556 l 58 621 l 58 706 l 310 781 l 358 768 l 358 636 q 401 707 368 674 q 475 760 433 740 q 553 781 517 781 q 626 772 610 781 l 626 558 q 574 582 611 574 q 511 590 538 590 q 438 583 472 590 q 390 565 404 575 l 390 115 l 549 92 l 549 0 l 67 0 l 67 92 l 150 110 z "},"ŕ":{"ha":656,"x_min":58,"x_max":626,"o":"m 58 0 m 150 110 l 150 556 l 58 621 l 58 706 l 310 781 l 358 768 l 358 636 q 401 707 368 674 q 475 760 433 740 q 553 781 517 781 q 626 772 610 781 l 626 558 q 574 582 611 574 q 511 590 538 590 q 438 583 472 590 q 390 565 404 575 l 390 115 l 549 92 l 549 0 l 67 0 l 67 92 l 150 110 m 407 1256 l 579 1124 q 446 998 536 1054 q 253 906 356 942 l 193 967 l 407 1256 z "},"ř":{"ha":656,"x_min":0,"x_max":626,"o":"m 0 0 m 150 110 l 150 556 l 58 621 l 58 706 l 310 781 l 358 768 l 358 636 q 401 707 368 674 q 475 760 433 740 q 553 781 517 781 q 626 772 610 781 l 626 558 q 574 582 611 574 q 511 590 538 590 q 438 583 472 590 q 390 565 404 575 l 390 115 l 549 92 l 549 0 l 67 0 l 67 92 l 150 110 m 89 1204 l 269 1064 l 444 1203 l 543 1153 l 356 906 l 183 906 l 0 1154 l 89 1204 z "},"ŗ":{"ha":656,"x_min":58,"x_max":626,"o":"m 58 0 m 150 110 l 150 556 l 58 621 l 58 706 l 310 781 l 358 768 l 358 636 q 401 707 368 674 q 475 760 433 740 q 553 781 517 781 q 626 772 610 781 l 626 558 q 574 582 611 574 q 511 590 538 590 q 438 583 472 590 q 390 565 404 575 l 390 115 l 549 92 l 549 0 l 67 0 l 67 92 l 150 110 m 257 -28 q 385 -81 336 -28 q 435 -218 435 -135 q 382 -350 435 -287 q 263 -435 329 -412 l 176 -400 l 176 -385 q 227 -333 213 -354 q 242 -281 242 -311 q 215 -217 242 -243 q 157 -190 189 -190 l 157 -137 l 257 -28 z "},"s":{"ha":743,"x_min":56,"x_max":703,"o":"m 179 224 l 222 149 q 290 92 263 108 q 363 75 318 75 q 445 98 417 75 q 474 160 474 121 q 428 222 472 194 q 297 289 385 250 q 117 407 178 344 q 56 563 56 469 q 106 683 57 633 q 228 756 154 732 q 381 781 301 781 q 525 772 443 783 q 650 742 607 760 l 650 556 l 531 556 l 493 640 q 447 679 474 664 q 393 694 421 694 q 322 677 350 694 q 293 632 293 660 q 315 569 293 596 q 374 522 336 543 q 483 467 411 500 q 648 365 593 417 q 703 228 703 314 q 601 42 703 101 q 340 -17 500 -17 q 194 0 271 -17 q 68 44 117 17 l 68 224 l 179 224 z "},"š":{"ha":743,"x_min":56,"x_max":703,"o":"m 203 1204 l 383 1064 l 560 1203 l 658 1153 l 469 906 l 299 906 l 115 1154 l 203 1204 m 179 224 l 222 149 q 290 92 263 108 q 363 75 318 75 q 445 98 417 75 q 474 160 474 121 q 428 222 472 194 q 297 289 385 250 q 117 407 178 344 q 56 563 56 469 q 106 683 57 633 q 228 756 154 732 q 381 781 301 781 q 525 772 443 783 q 650 742 607 760 l 650 556 l 531 556 l 493 640 q 447 679 474 664 q 393 694 421 694 q 322 677 350 694 q 293 632 293 660 q 315 569 293 596 q 374 522 336 543 q 483 467 411 500 q 648 365 593 417 q 703 228 703 314 q 601 42 703 101 q 340 -17 500 -17 q 194 0 271 -17 q 68 44 117 17 l 68 224 l 179 224 z "},"ş":{"ha":743,"x_min":56,"x_max":703,"o":"m 703 229 q 622 59 703 118 q 410 -12 542 0 q 410 -53 408 -32 q 414 -89 411 -75 q 518 -131 478 -94 q 558 -219 558 -168 q 501 -327 558 -293 q 349 -361 443 -361 q 279 -355 317 -361 q 203 -340 242 -349 l 203 -239 q 243 -245 218 -242 q 288 -249 268 -249 q 322 -238 310 -249 q 335 -210 335 -228 q 323 -182 335 -192 q 293 -172 311 -172 l 253 -174 q 263 -97 253 -150 q 283 -14 272 -44 q 165 7 224 -8 q 68 44 107 22 l 68 224 l 179 224 l 222 149 q 290 92 263 108 q 363 75 318 75 q 445 98 417 75 q 474 160 474 121 q 428 222 472 194 q 297 289 385 250 q 117 407 178 344 q 56 563 56 469 q 106 683 57 633 q 228 756 154 732 q 381 781 301 781 q 525 772 443 783 q 650 742 607 760 l 650 556 l 531 556 l 493 640 q 447 679 474 664 q 393 694 421 694 q 322 677 350 694 q 293 632 293 660 q 315 569 293 596 q 374 522 336 543 q 483 467 411 500 q 648 365 593 417 q 703 228 703 314 l 703 229 z "},"ș":{"ha":743,"x_min":56,"x_max":703,"o":"m 56 0 m 179 224 l 222 149 q 290 92 263 108 q 363 75 318 75 q 445 98 417 75 q 474 160 474 121 q 428 222 472 194 q 297 289 385 250 q 117 407 178 344 q 56 563 56 469 q 106 683 57 633 q 228 756 154 732 q 381 781 301 781 q 525 772 443 783 q 650 742 607 760 l 650 556 l 531 556 l 493 640 q 447 679 474 664 q 393 694 421 694 q 322 677 350 694 q 293 632 293 660 q 315 569 293 596 q 374 522 336 543 q 483 467 411 500 q 648 365 593 417 q 703 228 703 314 q 601 42 703 101 q 340 -17 500 -17 q 194 0 271 -17 q 68 44 117 17 l 68 224 l 179 224 m 325 -28 q 453 -81 404 -28 q 503 -218 503 -135 q 450 -350 503 -287 q 331 -435 397 -412 l 244 -400 l 244 -385 q 295 -333 281 -354 q 310 -281 310 -311 q 283 -217 310 -243 q 225 -190 257 -190 l 225 -137 l 325 -28 z "},"ß":{"ha":1003,"x_min":31,"x_max":982,"o":"m 135 132 l 135 586 q 250 931 135 810 q 578 1053 365 1053 q 764 1003 688 1053 q 840 865 840 954 q 813 772 840 808 q 733 697 785 736 q 672 642 692 665 q 653 588 653 619 q 688 513 653 539 q 794 461 722 488 q 892 417 856 438 q 956 358 929 396 q 982 261 982 321 q 899 55 982 125 q 667 -15 815 -15 q 538 -8 606 -15 q 458 13 471 0 l 458 146 q 542 104 494 119 q 633 89 589 89 q 719 119 686 89 q 753 201 753 150 q 723 268 753 247 q 631 311 693 289 q 540 347 575 329 q 481 404 506 365 q 456 507 456 443 q 476 588 456 556 q 536 661 496 619 q 601 740 579 704 q 622 829 622 775 q 597 915 622 885 q 525 944 572 944 q 407 872 439 944 q 375 664 375 799 l 375 0 l 31 0 l 31 97 l 135 132 z "},"t":{"ha":626,"x_min":19,"x_max":593,"o":"m 346 758 l 578 758 l 578 638 l 356 638 l 356 376 q 360 235 356 285 q 382 153 364 185 q 439 121 400 121 q 502 128 464 121 q 557 144 540 136 l 593 68 q 474 5 551 26 q 318 -17 397 -17 q 199 10 242 -17 q 140 90 157 36 q 122 233 122 144 l 122 638 l 19 638 l 19 714 q 150 769 108 728 q 192 833 175 794 q 232 940 210 872 l 346 940 l 346 758 z "},"ť":{"ha":626,"x_min":19,"x_max":676,"o":"m 19 0 m 346 758 l 578 758 l 578 638 l 356 638 l 356 376 q 360 235 356 285 q 382 153 364 185 q 439 121 400 121 q 502 128 464 121 q 557 144 540 136 l 593 68 q 474 5 551 26 q 318 -17 397 -17 q 199 10 242 -17 q 140 90 157 36 q 122 233 122 144 l 122 638 l 19 638 l 19 714 q 150 769 108 728 q 192 833 175 794 q 232 940 210 872 l 346 940 l 346 758 m 471 908 q 479 1030 478 971 q 481 1132 481 1089 q 469 1222 481 1178 q 446 1282 458 1267 l 456 1311 l 632 1356 q 664 1273 651 1335 q 676 1153 676 1211 q 652 999 676 1078 q 594 864 628 919 l 478 890 l 471 908 z "},"ț":{"ha":626,"x_min":19,"x_max":593,"o":"m 19 0 m 346 758 l 578 758 l 578 638 l 356 638 l 356 376 q 360 235 356 285 q 382 153 364 185 q 439 121 400 121 q 502 128 464 121 q 557 144 540 136 l 593 68 q 474 5 551 26 q 318 -17 397 -17 q 199 10 242 -17 q 140 90 157 36 q 122 233 122 144 l 122 638 l 19 638 l 19 714 q 150 769 108 728 q 192 833 175 794 q 232 940 210 872 l 346 940 l 346 758 m 260 -28 q 388 -81 339 -28 q 438 -218 438 -135 q 385 -350 438 -287 q 265 -435 332 -412 l 179 -400 l 179 -385 q 230 -333 215 -354 q 244 -281 244 -311 q 218 -217 244 -243 q 160 -190 192 -190 l 160 -137 l 260 -28 z "},"u":{"ha":903,"x_min":36,"x_max":868,"o":"m 36 636 l 36 719 l 294 781 l 331 769 l 331 297 q 352 158 331 203 q 435 114 374 114 q 503 123 468 114 q 556 149 538 132 l 556 578 l 469 625 l 469 719 l 753 781 l 790 769 l 790 92 l 868 92 l 868 19 q 782 -8 844 3 q 676 -19 719 -19 q 606 -1 633 -19 q 579 56 579 18 l 579 82 q 478 11 546 42 q 356 -19 410 -19 q 156 49 213 -19 q 100 265 100 117 l 100 589 l 36 636 z "},"ú":{"ha":903,"x_min":36,"x_max":868,"o":"m 557 1256 l 729 1124 q 596 997 688 1054 q 403 906 504 940 l 343 967 l 557 1256 m 36 636 l 36 719 l 294 781 l 331 769 l 331 297 q 352 158 331 203 q 435 114 374 114 q 503 123 468 114 q 556 149 538 132 l 556 578 l 469 625 l 469 719 l 753 781 l 790 769 l 790 92 l 868 92 l 868 19 q 782 -8 844 3 q 676 -19 719 -19 q 606 -1 633 -19 q 579 56 579 18 l 579 82 q 478 11 546 42 q 356 -19 410 -19 q 156 49 213 -19 q 100 265 100 117 l 100 589 l 36 636 z "},"û":{"ha":903,"x_min":36,"x_max":868,"o":"m 350 1204 l 522 1204 l 710 956 l 611 906 l 436 1046 l 256 906 l 167 956 l 350 1204 m 36 636 l 36 719 l 294 781 l 331 769 l 331 297 q 352 158 331 203 q 435 114 374 114 q 503 123 468 114 q 556 149 538 132 l 556 578 l 469 625 l 469 719 l 753 781 l 790 769 l 790 92 l 868 92 l 868 19 q 782 -8 844 3 q 676 -19 719 -19 q 606 -1 633 -19 q 579 56 579 18 l 579 82 q 478 11 546 42 q 356 -19 410 -19 q 156 49 213 -19 q 100 265 100 117 l 100 589 l 36 636 z "},"ü":{"ha":903,"x_min":36,"x_max":868,"o":"m 36 0 m 36 636 l 36 719 l 294 781 l 331 769 l 331 297 q 352 158 331 203 q 435 114 374 114 q 503 123 468 114 q 556 149 538 132 l 556 578 l 469 625 l 469 719 l 753 781 l 790 769 l 790 92 l 868 92 l 868 19 q 782 -8 844 3 q 676 -19 719 -19 q 606 -1 633 -19 q 579 56 579 18 l 579 82 q 478 11 546 42 q 356 -19 410 -19 q 156 49 213 -19 q 100 265 100 117 l 100 589 l 36 636 m 249 914 q 163 940 197 914 q 128 1008 128 965 q 172 1088 128 1057 q 267 1119 215 1119 q 357 1095 322 1119 q 392 1024 392 1071 q 347 944 392 974 q 249 914 303 914 m 606 915 q 517 942 551 915 q 483 1010 483 968 q 528 1089 483 1058 q 624 1119 572 1119 q 713 1095 682 1119 q 744 1025 744 1071 q 703 944 744 974 q 606 915 661 915 z "},"ù":{"ha":903,"x_min":36,"x_max":868,"o":"m 518 907 q 406 936 468 904 q 285 1019 343 968 q 190 1124 226 1071 l 364 1256 l 578 967 l 518 907 m 36 636 l 36 719 l 294 781 l 331 769 l 331 297 q 352 158 331 203 q 435 114 374 114 q 503 123 468 114 q 556 149 538 132 l 556 578 l 469 625 l 469 719 l 753 781 l 790 769 l 790 92 l 868 92 l 868 19 q 782 -8 844 3 q 676 -19 719 -19 q 606 -1 633 -19 q 579 56 579 18 l 579 82 q 478 11 546 42 q 356 -19 410 -19 q 156 49 213 -19 q 100 265 100 117 l 100 589 l 36 636 z "},"ű":{"ha":903,"x_min":36,"x_max":868,"o":"m 36 0 m 36 636 l 36 719 l 294 781 l 331 769 l 331 297 q 352 158 331 203 q 435 114 374 114 q 503 123 468 114 q 556 149 538 132 l 556 578 l 469 625 l 469 719 l 753 781 l 790 769 l 790 92 l 868 92 l 868 19 q 782 -8 844 3 q 676 -19 719 -19 q 606 -1 633 -19 q 579 56 579 18 l 579 82 q 478 11 546 42 q 356 -19 410 -19 q 156 49 213 -19 q 100 265 100 117 l 100 589 l 36 636 m 324 1246 l 474 1133 q 351 993 426 1067 q 224 897 276 919 l 126 964 l 324 1246 m 710 1246 l 865 1133 q 731 983 801 1051 q 608 897 660 914 l 515 964 l 710 1246 z "},"ū":{"ha":903,"x_min":36,"x_max":868,"o":"m 36 0 m 36 636 l 36 719 l 294 781 l 331 769 l 331 297 q 352 158 331 203 q 435 114 374 114 q 503 123 468 114 q 556 149 538 132 l 556 578 l 469 625 l 469 719 l 753 781 l 790 769 l 790 92 l 868 92 l 868 19 q 782 -8 844 3 q 676 -19 719 -19 q 606 -1 633 -19 q 579 56 579 18 l 579 82 q 478 11 546 42 q 356 -19 410 -19 q 156 49 213 -19 q 100 265 100 117 l 100 589 l 36 636 m 642 1074 l 642 911 l 258 911 l 258 1074 l 642 1074 z "},"ų":{"ha":903,"x_min":36,"x_max":868,"o":"m 814 -3 q 680 -72 742 -28 q 618 -165 618 -117 q 668 -204 618 -204 q 742 -195 707 -204 q 829 -167 776 -186 l 853 -258 q 546 -350 725 -350 q 441 -319 481 -350 q 401 -233 401 -287 q 470 -111 401 -175 q 625 -11 539 -47 q 579 56 579 7 l 579 82 q 478 11 546 42 q 356 -19 410 -19 q 156 49 213 -19 q 100 265 100 117 l 100 589 l 36 636 l 36 719 l 294 781 l 331 769 l 331 297 q 352 158 331 203 q 435 114 374 114 q 503 123 468 114 q 556 149 538 132 l 556 578 l 469 625 l 469 719 l 753 781 l 790 769 l 790 92 l 868 92 l 868 19 q 815 -1 853 8 l 814 -3 z "},"ů":{"ha":903,"x_min":36,"x_max":868,"o":"m 36 0 m 36 636 l 36 719 l 294 781 l 331 769 l 331 297 q 352 158 331 203 q 435 114 374 114 q 503 123 468 114 q 556 149 538 132 l 556 578 l 469 625 l 469 719 l 753 781 l 790 769 l 790 92 l 868 92 l 868 19 q 782 -8 844 3 q 676 -19 719 -19 q 606 -1 633 -19 q 579 56 579 18 l 579 82 q 478 11 546 42 q 356 -19 410 -19 q 156 49 213 -19 q 100 265 100 117 l 100 589 l 36 636 m 451 1244 q 551 1219 506 1244 q 624 1150 597 1193 q 651 1058 651 1107 q 623 963 651 1006 q 549 895 594 919 q 451 871 503 871 q 353 896 399 871 q 280 964 307 921 q 253 1058 253 1007 q 280 1153 253 1110 q 353 1220 307 1196 q 451 1244 399 1244 m 451 1149 q 387 1124 413 1149 q 361 1058 361 1099 q 387 994 361 1019 q 451 968 413 968 q 516 994 490 968 q 542 1058 542 1019 q 515 1122 542 1096 q 451 1149 489 1149 z "},"v":{"ha":871,"x_min":3,"x_max":868,"o":"m 3 639 l 3 758 l 394 758 l 394 638 l 333 618 l 444 297 l 481 169 l 510 300 l 608 619 l 526 638 l 526 758 l 868 758 l 868 638 l 789 614 l 538 -3 l 342 -3 l 72 621 l 3 639 z "},"w":{"ha":1249,"x_min":1,"x_max":1247,"o":"m 1 638 l 1 758 l 388 758 l 388 638 l 321 619 l 399 304 l 421 197 l 436 285 l 565 758 l 763 758 l 885 285 l 906 189 l 925 285 l 999 617 l 908 638 l 908 758 l 1247 758 l 1247 638 l 1153 615 l 978 -3 l 751 -3 l 647 344 l 610 490 l 585 344 l 492 -3 l 274 -3 l 81 619 l 1 638 z "},"x":{"ha":881,"x_min":0,"x_max":881,"o":"m 111 115 l 321 363 l 93 621 l 6 638 l 6 758 l 432 758 l 432 638 l 368 621 l 393 583 l 476 474 l 493 501 l 589 625 l 503 638 l 503 758 l 879 758 l 879 638 l 754 617 l 556 401 l 793 114 l 881 92 l 881 0 l 461 0 l 461 92 l 518 113 l 478 167 l 396 274 l 386 250 l 296 117 l 394 92 l 394 0 l 0 0 l 0 92 l 111 115 z "},"y":{"ha":836,"x_min":3,"x_max":849,"o":"m 100 -176 q 149 -186 129 -183 q 200 -187 169 -189 q 305 -135 263 -187 q 368 0 347 -83 l 329 0 l 63 619 l 3 638 l 3 758 l 400 758 l 400 638 l 322 621 l 457 258 l 467 189 l 488 258 l 597 622 l 504 638 l 504 758 l 849 758 l 849 638 l 782 624 q 650 292 740 519 q 517 -37 560 65 q 454 -183 485 -124 q 389 -282 424 -242 q 308 -347 351 -325 q 207 -368 264 -368 q 140 -365 174 -368 q 99 -357 107 -362 l 100 -176 z "},"ý":{"ha":836,"x_min":3,"x_max":849,"o":"m 3 0 m 100 -176 q 149 -186 129 -183 q 200 -187 169 -189 q 305 -135 263 -187 q 368 0 347 -83 l 329 0 l 63 619 l 3 638 l 3 758 l 400 758 l 400 638 l 322 621 l 457 258 l 467 189 l 488 258 l 597 622 l 504 638 l 504 758 l 849 758 l 849 638 l 782 624 q 650 292 740 519 q 517 -37 560 65 q 454 -183 485 -124 q 389 -282 424 -242 q 308 -347 351 -325 q 207 -368 264 -368 q 140 -365 174 -368 q 99 -357 107 -362 l 100 -176 m 574 1256 l 746 1124 q 613 998 703 1054 q 419 906 522 942 l 360 967 l 574 1256 z "},"ÿ":{"ha":836,"x_min":3,"x_max":849,"o":"m 3 0 m 100 -176 q 149 -186 129 -183 q 200 -187 169 -189 q 305 -135 263 -187 q 368 0 347 -83 l 329 0 l 63 619 l 3 638 l 3 758 l 400 758 l 400 638 l 322 621 l 457 258 l 467 189 l 488 258 l 597 622 l 504 638 l 504 758 l 849 758 l 849 638 l 782 624 q 650 292 740 519 q 517 -37 560 65 q 454 -183 485 -124 q 389 -282 424 -242 q 308 -347 351 -325 q 207 -368 264 -368 q 140 -365 174 -368 q 99 -357 107 -362 l 100 -176 m 265 914 q 179 940 214 914 q 144 1008 144 965 q 188 1088 144 1057 q 283 1119 232 1119 q 374 1095 339 1119 q 408 1024 408 1071 q 364 944 408 974 q 265 914 319 914 m 622 915 q 534 942 568 915 q 500 1010 500 968 q 544 1089 500 1058 q 640 1119 589 1119 q 730 1095 699 1119 q 761 1025 761 1071 q 719 944 761 974 q 622 915 678 915 z "},"z":{"ha":781,"x_min":35,"x_max":754,"o":"m 749 675 l 426 206 l 343 103 l 589 126 l 629 243 l 754 243 l 744 0 l 67 0 l 35 68 l 114 193 l 410 596 l 467 657 l 233 643 l 189 506 l 65 506 l 65 758 l 714 758 l 749 675 z "},"ź":{"ha":781,"x_min":35,"x_max":754,"o":"m 35 0 m 749 675 l 426 206 l 343 103 l 589 126 l 629 243 l 754 243 l 744 0 l 67 0 l 35 68 l 114 193 l 410 596 l 467 657 l 233 643 l 189 506 l 65 506 l 65 758 l 714 758 l 749 675 m 463 1256 l 635 1124 q 501 998 592 1054 q 308 906 411 942 l 249 967 l 463 1256 z "},"ž":{"ha":781,"x_min":35,"x_max":754,"o":"m 35 0 m 749 675 l 426 206 l 343 103 l 589 126 l 629 243 l 754 243 l 744 0 l 67 0 l 35 68 l 114 193 l 410 596 l 467 657 l 233 643 l 189 506 l 65 506 l 65 758 l 714 758 l 749 675 m 221 1204 l 401 1064 l 576 1203 l 675 1153 l 488 906 l 315 906 l 132 1154 l 221 1204 z "},"ż":{"ha":781,"x_min":35,"x_max":754,"o":"m 35 0 m 749 675 l 426 206 l 343 103 l 589 126 l 629 243 l 754 243 l 744 0 l 67 0 l 35 68 l 114 193 l 410 596 l 467 657 l 233 643 l 189 506 l 65 506 l 65 758 l 714 758 l 749 675 m 407 1106 q 497 1081 463 1106 q 532 1010 532 1057 q 488 930 532 960 q 389 900 443 900 q 303 926 338 900 q 268 994 268 951 q 312 1074 268 1043 q 407 1106 356 1106 z "},"ﬁ":{"ha":1149,"x_min":35,"x_max":1124,"o":"m 911 1178 q 1014 1144 978 1178 q 1050 1050 1050 1110 q 1001 941 1050 983 q 885 899 951 899 q 786 935 826 899 q 746 1026 746 971 q 770 1103 746 1068 q 833 1158 794 1138 q 911 1178 871 1178 m 494 1176 q 575 1170 531 1176 q 640 1154 619 1164 l 640 978 q 566 1003 614 992 q 489 1015 518 1015 q 416 988 433 1015 q 399 888 399 960 l 399 758 l 603 758 l 603 619 l 399 619 l 399 113 l 561 92 l 561 0 l 49 0 l 49 92 l 158 113 l 158 619 l 35 619 l 35 690 l 158 744 l 158 815 q 205 988 158 904 q 328 1124 251 1072 q 494 1176 406 1176 m 1026 764 l 1026 110 l 1124 92 l 1124 0 l 696 0 l 696 92 l 786 111 l 786 533 l 700 631 l 700 694 l 968 781 l 1026 764 z "},"ﬂ":{"ha":1140,"x_min":35,"x_max":1128,"o":"m 158 113 l 158 619 l 35 619 l 35 690 l 158 744 l 158 815 q 205 988 158 904 q 328 1124 251 1072 q 494 1176 406 1176 q 575 1170 531 1176 q 640 1154 619 1164 l 640 978 q 566 1003 614 992 q 489 1015 518 1015 q 416 988 433 1015 q 399 888 399 960 l 399 758 l 603 758 l 603 619 l 399 619 l 399 113 l 561 92 l 561 0 l 49 0 l 49 92 l 158 113 m 769 110 l 769 939 l 678 978 l 678 1072 l 969 1106 l 1010 1093 l 1010 113 l 1128 92 l 1128 0 l 689 0 l 689 92 l 769 110 z "},"ª":{"ha":793,"x_min":113,"x_max":728,"o":"m 417 1079 q 610 1035 546 1079 q 674 879 674 990 l 672 601 l 728 601 l 728 529 q 634 508 686 518 q 556 497 582 497 q 501 509 521 497 q 475 550 482 521 q 294 497 413 497 q 165 544 217 497 q 113 668 113 592 q 166 780 113 735 q 300 847 219 825 q 464 868 381 868 l 464 881 q 434 947 464 931 q 344 963 404 963 q 259 952 306 963 q 188 926 213 942 l 153 1028 q 269 1064 185 1049 q 417 1079 353 1079 m 463 789 q 356 758 400 783 q 311 688 311 732 q 335 631 311 653 q 397 608 360 608 q 463 619 421 608 l 463 789 z "},"º":{"ha":793,"x_min":85,"x_max":711,"o":"m 411 1081 q 631 1002 551 1081 q 711 783 711 924 q 666 628 710 693 q 549 529 622 563 q 385 496 475 496 q 164 571 243 496 q 85 783 85 646 q 127 944 85 876 q 243 1046 169 1011 q 411 1081 317 1081 m 401 992 q 322 935 346 992 q 297 793 297 878 q 324 648 297 708 q 401 588 350 588 q 480 634 461 588 q 499 781 499 681 q 474 928 499 865 q 401 992 449 992 z "},"Ω":{"ha":1446,"x_min":107,"x_max":1331,"o":"m 219 367 l 249 197 l 488 197 q 351 305 417 233 q 243 460 285 376 q 201 618 201 544 q 269 856 201 756 q 455 1010 336 957 q 724 1063 574 1063 q 983 1015 869 1063 q 1160 873 1096 967 q 1224 649 1224 779 q 1140 414 1224 542 q 949 197 1056 286 l 1167 197 l 1235 372 l 1331 367 l 1289 0 l 824 0 l 824 163 q 899 287 865 197 q 952 483 933 376 q 971 671 971 590 q 906 884 971 808 q 718 960 840 960 q 516 881 578 960 q 454 647 454 803 q 506 388 454 532 q 625 163 557 243 l 626 0 l 107 0 l 107 363 l 219 367 z "},"μ":{"ha":868,"x_min":71,"x_max":903,"o":"m 135 -242 l 135 589 l 71 636 l 71 719 l 329 781 l 365 769 l 365 297 q 387 158 365 203 q 469 114 408 114 q 538 123 503 114 q 590 149 572 132 l 590 578 l 504 625 l 504 719 l 788 781 l 825 769 l 825 92 l 903 92 l 903 19 q 817 -8 879 3 q 711 -19 754 -19 q 641 -1 668 -19 q 614 56 614 18 l 614 82 q 513 11 581 42 q 390 -19 444 -19 l 365 -19 l 365 -242 l 135 -242 z "},"π":{"ha":1110,"x_min":42,"x_max":1060,"o":"m 1031 831 q 969 642 1022 717 q 821 561 917 568 l 807 249 q 813 167 804 203 q 844 132 821 132 q 901 151 875 132 q 939 203 928 169 l 1060 203 q 969 53 1038 115 q 821 -10 901 -10 q 665 35 713 -10 q 624 169 617 81 l 669 561 l 461 561 l 460 292 q 436 137 454 190 q 364 35 418 83 q 256 -17 333 7 l 89 78 q 138 95 99 78 q 192 124 176 113 q 266 206 246 158 q 290 329 286 253 l 310 561 l 243 561 q 178 544 206 563 q 140 493 151 526 l 43 514 q 44 542 42 524 q 53 579 46 560 q 133 707 74 656 q 267 758 193 758 l 799 758 q 880 775 846 758 q 933 831 914 792 l 1031 831 z "},"ऄ":{"ha":1210,"x_min":21,"x_max":1210,"o":"m 1208 771 l 1088 771 l 1088 -53 l 1056 -53 l 901 35 l 901 282 l 899 282 q 843 272 867 272 q 773 284 806 272 q 694 332 740 296 l 690 332 q 708 240 708 290 q 678 116 708 172 q 594 28 647 60 q 474 -4 540 -4 q 226 103 338 -4 q 21 363 115 211 l 67 406 q 233 232 150 294 q 397 169 315 169 q 513 208 469 169 q 557 297 557 246 q 510 419 557 363 q 318 379 419 389 l 246 511 l 258 535 q 397 554 340 543 q 490 589 454 565 q 526 631 515 604 q 536 694 536 657 q 506 760 536 732 q 425 789 475 789 q 315 763 364 789 q 200 679 265 738 l 121 836 q 375 932 250 932 q 504 883 436 932 q 617 763 572 835 q 663 631 663 692 q 645 537 663 572 q 593 468 628 501 q 678 441 631 451 q 761 431 725 431 q 840 440 807 431 q 903 471 874 450 l 903 772 l 733 772 l 669 899 l 669 929 l 946 929 q 947 946 947 935 q 909 1036 947 997 q 792 1075 871 1075 q 689 1067 767 1075 q 536 1054 579 1054 q 365 1079 451 1056 q 222 1144 278 1103 q 167 1236 167 1186 q 199 1375 167 1296 l 278 1363 q 257 1276 257 1304 q 285 1232 257 1251 q 378 1213 313 1213 q 619 1226 461 1213 q 758 1235 736 1235 q 881 1208 824 1235 q 974 1138 939 1181 q 1020 1058 1003 1101 q 1038 976 1038 1015 q 1035 929 1038 957 l 1142 929 l 1210 801 l 1208 771 z "},"ॲ":{"ha":1210,"x_min":21,"x_max":1347,"o":"m 21 0 m 1208 771 l 1088 771 l 1088 -53 l 1056 -53 l 901 35 l 901 282 l 899 282 q 843 272 867 272 q 773 284 806 272 q 694 332 740 296 l 690 332 q 708 240 708 290 q 678 116 708 172 q 594 28 647 60 q 474 -4 540 -4 q 226 103 338 -4 q 21 363 115 211 l 67 406 q 233 232 150 294 q 397 169 315 169 q 513 208 469 169 q 557 297 557 246 q 510 419 557 363 q 318 379 419 389 l 246 511 l 258 535 q 397 554 340 543 q 490 589 454 565 q 526 631 515 604 q 536 694 536 657 q 506 760 536 732 q 425 789 475 789 q 315 763 364 789 q 200 679 265 738 l 121 836 q 375 932 250 932 q 504 883 436 932 q 617 763 572 835 q 663 631 663 692 q 645 537 663 572 q 593 468 628 501 q 678 441 631 451 q 761 431 725 431 q 840 440 807 431 q 903 471 874 450 l 903 772 l 733 772 l 669 899 l 669 929 l 1142 929 l 1210 801 l 1208 771 m 1347 1189 q 1215 1067 1288 1110 q 1040 1024 1143 1024 q 844 1102 935 1024 q 700 1281 753 1181 l 746 1306 q 842 1198 792 1238 q 963 1158 893 1158 q 1108 1205 1046 1158 q 1208 1314 1171 1251 l 1347 1189 z "},"अ":{"ha":1210,"x_min":21,"x_max":1210,"o":"m 1208 771 l 1088 771 l 1088 -53 l 1056 -53 l 901 35 l 901 282 l 899 282 q 843 272 867 272 q 773 284 806 272 q 694 332 740 296 l 690 332 q 708 240 708 290 q 678 116 708 172 q 594 28 647 60 q 474 -4 540 -4 q 226 103 338 -4 q 21 363 115 211 l 67 406 q 233 232 150 294 q 397 169 315 169 q 513 208 469 169 q 557 297 557 246 q 510 419 557 363 q 318 379 419 389 l 246 511 l 258 535 q 397 554 340 543 q 490 589 454 565 q 526 631 515 604 q 536 694 536 657 q 506 760 536 732 q 425 789 475 789 q 315 763 364 789 q 200 679 265 738 l 121 836 q 375 932 250 932 q 504 883 436 932 q 617 763 572 835 q 663 631 663 692 q 645 537 663 572 q 593 468 628 501 q 678 441 631 451 q 761 431 725 431 q 840 440 807 431 q 903 471 874 450 l 903 772 l 733 772 l 669 899 l 669 929 l 1142 929 l 1210 801 l 1208 771 z "},"आ":{"ha":1642,"x_min":21,"x_max":1642,"o":"m 1640 771 l 1515 771 l 1515 -53 l 1483 -53 l 1329 35 l 1329 771 l 1088 771 l 1088 -53 l 1056 -53 l 901 35 l 901 282 l 899 282 q 843 272 867 272 q 773 284 806 272 q 694 332 740 296 l 690 332 q 708 240 708 290 q 678 116 708 172 q 594 28 647 60 q 474 -4 540 -4 q 226 103 338 -4 q 21 363 115 211 l 67 406 q 233 232 150 294 q 397 169 315 169 q 513 208 469 169 q 557 297 557 246 q 510 419 557 363 q 318 379 419 389 l 246 511 l 258 535 q 397 554 340 543 q 490 589 454 565 q 526 631 515 604 q 536 694 536 657 q 506 760 536 732 q 425 789 475 789 q 315 763 364 789 q 200 679 265 738 l 121 836 q 375 932 250 932 q 504 883 436 932 q 617 763 572 835 q 663 631 663 692 q 645 537 663 572 q 593 468 628 501 q 678 441 631 451 q 761 431 725 431 q 840 440 807 431 q 903 471 874 450 l 903 772 l 733 772 l 669 899 l 669 929 l 1574 929 l 1642 801 l 1640 771 z "},"इ":{"ha":740,"x_min":-78,"x_max":740,"o":"m 314 522 q 217 443 217 522 q 224 409 217 426 q 242 392 231 392 q 314 401 275 393 q 384 419 353 410 q 424 431 415 428 q 496 449 486 449 q 569 413 532 449 q 632 322 607 378 q 657 207 657 265 q 617 74 657 135 q 513 -24 576 13 q 382 -67 449 -61 l 504 -247 l 372 -315 l 301 -62 q 184 -26 235 -53 q 106 37 133 0 q 78 113 78 74 q 112 183 79 158 q 182 207 144 207 q 210 204 185 207 l 279 90 q 414 112 342 90 q 535 167 486 133 q 585 232 585 200 q 577 269 585 253 q 560 294 569 286 q 451 268 536 294 q 331 240 357 240 q 246 277 299 240 q 153 370 193 314 q 114 482 114 426 q 269 679 114 679 l 408 679 l 408 772 l -14 772 l -78 899 l -78 929 l 672 929 l 740 801 l 740 772 l 594 772 l 594 522 l 314 522 z "},"ई":{"ha":740,"x_min":-81,"x_max":776,"o":"m 668 929 l 736 801 l 736 772 l 590 772 l 590 522 l 311 522 q 214 443 214 522 q 221 409 214 426 q 239 392 228 392 q 311 401 272 393 q 381 419 350 410 q 421 431 413 428 q 493 449 483 449 q 567 413 529 449 q 629 322 604 378 q 654 207 654 265 q 614 74 654 135 q 510 -24 574 13 q 379 -67 446 -61 l 501 -247 l 369 -315 l 299 -62 q 181 -26 232 -53 q 103 37 131 0 q 75 113 75 74 q 109 183 76 158 q 179 207 142 207 q 207 204 182 207 l 276 90 q 411 112 339 90 q 533 167 483 133 q 582 232 582 200 q 574 269 582 253 q 557 294 567 286 q 449 268 533 294 q 328 240 354 240 q 243 277 296 240 q 151 370 190 314 q 111 482 111 426 q 267 679 111 679 l 406 679 l 406 772 l -17 772 l -81 899 l -81 929 l 413 929 q 299 1057 342 989 q 257 1192 257 1125 q 290 1302 257 1256 q 373 1372 322 1349 q 475 1394 424 1394 q 635 1344 557 1394 q 776 1207 714 1294 l 736 1156 q 653 1206 707 1182 q 551 1229 599 1229 q 480 1201 510 1229 q 450 1122 450 1172 q 524 929 450 1028 l 668 929 z "},"उ":{"ha":851,"x_min":-78,"x_max":853,"o":"m 853 774 l 611 774 q 677 680 650 729 q 704 592 704 631 q 643 447 704 506 q 758 320 725 374 q 792 201 792 267 q 761 77 792 133 q 678 -11 731 21 q 558 -43 625 -43 q 49 324 296 -43 l 94 367 q 481 131 297 131 q 597 169 553 131 q 640 258 640 207 q 574 400 640 335 q 444 371 514 371 q 358 389 401 371 l 286 549 l 299 572 q 338 566 310 571 q 388 561 367 561 q 515 590 467 561 q 563 665 563 619 q 547 719 563 690 q 506 772 531 747 l -12 772 l -78 899 l -78 929 l 782 929 l 851 801 l 853 774 z "},"ऊ":{"ha":1228,"x_min":-78,"x_max":1229,"o":"m 1229 774 l 611 774 q 677 680 650 729 q 704 592 704 631 q 643 447 704 506 l 685 408 q 954 556 853 556 q 1059 517 1008 556 q 1141 417 1110 479 q 1172 286 1172 354 q 1119 28 1172 171 l 917 96 q 1012 242 967 157 q 1057 365 1057 326 q 1036 404 1057 390 q 983 418 1015 418 q 779 278 896 418 q 792 201 792 243 q 761 77 792 133 q 678 -11 731 21 q 558 -43 625 -43 q 49 324 296 -43 l 94 367 q 481 131 297 131 q 597 169 553 131 q 640 258 640 207 q 574 400 640 335 q 444 371 514 371 q 358 389 401 371 l 286 549 l 299 572 q 338 566 310 571 q 388 561 367 561 q 515 590 467 561 q 563 665 563 619 q 547 719 563 690 q 506 772 531 747 l -12 772 l -78 899 l -78 929 l 1158 929 l 1228 801 l 1229 774 z "},"ऋ":{"ha":1254,"x_min":-78,"x_max":1265,"o":"m 1254 801 l 1254 772 l 736 772 l 736 489 q 881 539 817 497 l 838 644 q 881 672 853 660 q 936 685 910 685 q 1029 651 992 685 q 1067 569 1067 618 q 1029 476 1067 525 l 1142 210 q 957 83 957 149 q 978 50 957 63 q 1047 38 1000 38 q 1122 53 1083 38 q 1190 92 1161 68 l 1265 -58 q 1183 -93 1232 -78 q 1101 -108 1135 -108 q 994 -74 1050 -108 q 902 15 939 -39 q 865 121 865 68 q 892 219 865 175 q 975 306 919 263 l 936 400 q 736 351 844 350 l 736 -51 l 704 -51 l 550 36 l 550 274 l 226 39 l 118 160 l 550 442 q 339 507 446 507 q 247 494 293 507 q 142 458 201 481 l 49 624 q 149 654 83 638 q 258 671 215 671 q 550 519 367 671 l 550 772 l -12 772 l -78 899 l -78 929 l 1186 929 l 1254 801 z "},"ॠ":{"ha":1254,"x_min":-78,"x_max":1376,"o":"m 1254 801 l 1254 772 l 736 772 l 736 489 q 881 539 817 497 l 838 644 q 881 672 853 660 q 936 685 910 685 q 1029 651 992 685 q 1067 569 1067 618 q 1029 476 1067 525 l 1142 210 q 957 83 957 149 q 978 50 957 63 q 1047 38 1000 38 q 1122 53 1083 38 q 1190 92 1161 68 l 1265 -58 q 1189 -92 1235 -76 q 1110 -108 1143 -107 q 1068 -169 1068 -139 q 1090 -203 1068 -190 q 1158 -215 1111 -215 q 1233 -200 1194 -215 q 1301 -161 1272 -185 l 1376 -311 q 1294 -346 1343 -331 q 1213 -361 1246 -361 q 1106 -326 1161 -361 q 1013 -238 1050 -292 q 976 -132 976 -185 q 986 -69 976 -99 q 900 17 935 -35 q 865 119 865 69 q 892 219 865 175 q 975 306 919 263 l 936 400 q 736 351 844 350 l 736 -51 l 704 -51 l 550 36 l 550 274 l 226 39 l 118 160 l 550 442 q 339 507 446 507 q 247 494 293 507 q 142 458 201 481 l 49 624 q 149 654 83 638 q 258 671 215 671 q 550 519 367 671 l 550 772 l -12 772 l -78 899 l -78 929 l 1186 929 l 1254 801 z "},"ऌ":{"ha":1143,"x_min":-78,"x_max":1193,"o":"m 1143 801 l 1143 772 l 836 772 l 836 607 q 995 508 926 576 q 1064 367 1064 439 q 1029 253 1064 304 q 929 138 994 203 q 856 56 879 88 q 832 -10 832 24 q 850 -49 832 -33 q 894 -65 868 -65 q 1086 99 974 -65 l 1193 -14 q 1110 -92 1142 -65 q 1038 -135 1079 -118 q 942 -153 996 -153 q 819 -124 879 -153 q 719 -48 758 -96 q 681 54 681 0 q 708 128 681 94 q 792 213 735 161 q 890 314 857 269 q 925 415 924 358 q 891 474 925 453 q 813 496 857 496 q 721 452 765 496 q 645 342 676 408 q 600 215 614 276 l 440 297 q 497 454 456 383 q 371 493 438 493 q 299 473 333 493 q 244 415 265 453 q 224 326 224 376 q 258 152 224 236 q 361 -31 293 68 l 313 -71 q 192 53 253 -22 q 91 217 132 128 q 50 393 50 307 q 82 522 50 464 q 169 612 114 579 q 292 644 225 644 q 410 615 358 644 q 536 511 463 585 q 650 603 586 572 l 650 772 l -12 772 l -78 899 l -78 929 l 1074 929 l 1143 801 z "},"ॡ":{"ha":1143,"x_min":-78,"x_max":1374,"o":"m 1143 801 l 1143 772 l 836 772 l 836 607 q 995 508 926 576 q 1064 367 1064 439 q 1029 253 1064 304 q 929 138 994 203 q 856 56 879 88 q 832 -10 832 24 q 850 -49 832 -33 q 894 -65 868 -65 q 1086 99 974 -65 l 1193 -14 q 1096 -103 1133 -74 q 1010 -144 1058 -132 q 986 -199 986 -175 q 1006 -247 986 -228 q 1067 -265 1025 -265 q 1163 -215 1111 -265 q 1265 -90 1215 -164 l 1374 -204 l 1351 -226 q 1278 -294 1308 -269 q 1208 -335 1249 -318 q 1115 -353 1167 -353 q 1011 -329 1065 -353 q 921 -268 957 -306 q 885 -192 885 -231 q 892 -149 885 -169 q 744 -74 807 -132 q 681 54 681 -15 q 708 128 681 94 q 792 213 735 161 q 890 314 857 269 q 925 415 924 358 q 891 474 925 453 q 813 496 857 496 q 721 452 765 496 q 645 342 676 408 q 600 215 614 276 l 440 297 q 497 454 456 383 q 371 493 438 493 q 299 473 333 493 q 244 415 265 453 q 224 326 224 376 q 258 152 224 236 q 361 -31 293 68 l 313 -71 q 192 53 253 -22 q 91 217 132 128 q 50 393 50 307 q 82 522 50 464 q 169 612 114 579 q 292 644 225 644 q 410 615 358 644 q 536 511 463 585 q 650 603 586 572 l 650 772 l -12 772 l -78 899 l -78 929 l 1074 929 l 1143 801 z "},"ऍ":{"ha":890,"x_min":-78,"x_max":911,"o":"m 0 0 m 735 4 q 875 -106 839 -65 q 911 -187 911 -146 q 876 -278 911 -240 q 778 -315 842 -315 q 681 -294 719 -315 q 604 -236 643 -272 l 604 -233 l 718 -104 l 299 179 q 165 274 203 244 q 111 328 126 303 q 96 392 96 354 l 96 772 l -12 772 l -78 899 l -78 929 l 822 929 l 890 801 l 890 772 l 732 772 l 732 483 q 589 240 732 300 l 435 344 l 435 363 q 519 398 492 381 q 546 449 546 415 l 546 772 l 282 772 l 282 368 q 294 308 282 328 q 342 265 307 288 l 735 4 m 726 1189 q 594 1067 667 1110 q 419 1024 522 1024 q 223 1102 314 1024 q 79 1281 132 1181 l 125 1306 q 222 1198 171 1238 q 342 1158 272 1158 q 488 1205 425 1158 q 588 1314 550 1251 l 726 1189 z "},"ऎ":{"ha":890,"x_min":-181,"x_max":911,"o":"m -69 1363 q -90 1276 -90 1304 q -62 1232 -90 1251 q 31 1213 -35 1213 q 272 1226 114 1213 q 411 1235 389 1235 q 534 1208 476 1235 q 626 1138 592 1181 q 673 1058 656 1101 q 690 976 690 1015 q 688 929 690 957 l 822 929 l 890 801 l 890 772 l 732 772 l 732 483 q 589 240 732 300 l 435 344 l 435 363 q 519 398 492 381 q 546 449 546 415 l 546 772 l 282 772 l 282 368 q 294 308 282 328 q 342 265 307 288 l 735 4 q 875 -106 839 -65 q 911 -187 911 -146 q 876 -278 911 -240 q 778 -315 842 -315 q 681 -294 719 -315 q 604 -236 643 -272 l 604 -233 l 718 -104 l 299 179 q 165 274 203 244 q 111 328 126 303 q 96 392 96 354 l 96 772 l -12 772 l -78 899 l -78 929 l 599 929 q 600 946 600 935 q 562 1036 600 997 q 444 1075 524 1075 q 342 1067 419 1075 q 189 1054 232 1054 q 17 1079 104 1056 q -125 1144 -69 1103 q -181 1236 -181 1186 q -149 1375 -181 1296 l -69 1363 z "},"ए":{"ha":890,"x_min":-78,"x_max":911,"o":"m 735 4 q 875 -106 839 -65 q 911 -187 911 -146 q 876 -278 911 -240 q 778 -315 842 -315 q 681 -294 719 -315 q 604 -236 643 -272 l 604 -233 l 718 -104 l 299 179 q 165 274 203 244 q 111 328 126 303 q 96 392 96 354 l 96 772 l -12 772 l -78 899 l -78 929 l 822 929 l 890 801 l 890 772 l 732 772 l 732 483 q 589 240 732 300 l 435 344 l 435 363 q 519 398 492 381 q 546 449 546 415 l 546 772 l 282 772 l 282 368 q 294 308 282 328 q 342 265 307 288 l 735 4 z "},"ऐ":{"ha":890,"x_min":-78,"x_max":911,"o":"m 0 0 m 735 4 q 875 -106 839 -65 q 911 -187 911 -146 q 876 -278 911 -240 q 778 -315 842 -315 q 681 -294 719 -315 q 604 -236 643 -272 l 604 -233 l 718 -104 l 299 179 q 165 274 203 244 q 111 328 126 303 q 96 392 96 354 l 96 772 l -12 772 l -78 899 l -78 929 l 822 929 l 890 801 l 890 772 l 732 772 l 732 483 q 589 240 732 300 l 435 344 l 435 363 q 519 398 492 381 q 546 449 546 415 l 546 772 l 282 772 l 282 368 q 294 308 282 328 q 342 265 307 288 l 735 4 m 265 1374 q 430 1299 358 1374 q 579 1078 501 1224 q 694 842 667 903 l 621 842 q 574 917 610 867 q 518 994 539 968 q 386 1156 438 1103 l 199 1092 q 136 1238 136 1147 q 175 1338 136 1301 q 265 1374 214 1374 z "},"ऑ":{"ha":1642,"x_min":21,"x_max":1775,"o":"m 21 0 m 1640 771 l 1515 771 l 1515 -53 l 1483 -53 l 1329 35 l 1329 771 l 1088 771 l 1088 -53 l 1056 -53 l 901 35 l 901 282 l 899 282 q 843 272 867 272 q 773 284 806 272 q 694 332 740 296 l 690 332 q 708 240 708 290 q 678 116 708 172 q 594 28 647 60 q 474 -4 540 -4 q 226 103 338 -4 q 21 363 115 211 l 67 406 q 233 232 150 294 q 397 169 315 169 q 513 208 469 169 q 557 297 557 246 q 510 419 557 363 q 318 379 419 389 l 246 511 l 258 535 q 397 554 340 543 q 490 589 454 565 q 526 631 515 604 q 536 694 536 657 q 506 760 536 732 q 425 789 475 789 q 315 763 364 789 q 200 679 265 738 l 121 836 q 375 932 250 932 q 504 883 436 932 q 617 763 572 835 q 663 631 663 692 q 645 537 663 572 q 593 468 628 501 q 678 441 631 451 q 761 431 725 431 q 840 440 807 431 q 903 471 874 450 l 903 772 l 733 772 l 669 899 l 669 929 l 1574 929 l 1642 801 l 1640 771 m 1775 1189 q 1643 1067 1715 1110 q 1468 1024 1571 1024 q 1272 1102 1363 1024 q 1128 1281 1181 1181 l 1174 1306 q 1270 1198 1219 1238 q 1390 1158 1321 1158 q 1536 1205 1474 1158 q 1636 1314 1599 1251 l 1775 1189 z "},"ऒ":{"ha":1642,"x_min":24,"x_max":1642,"o":"m 715 1363 q 694 1276 694 1304 q 722 1232 694 1251 q 815 1213 750 1213 q 1057 1226 899 1213 q 1196 1235 1174 1235 q 1319 1208 1261 1235 q 1411 1138 1376 1181 q 1458 1058 1440 1101 q 1475 976 1475 1015 q 1472 929 1475 957 l 1574 929 l 1642 801 l 1642 772 l 1517 772 l 1517 -51 l 1485 -51 l 1331 36 l 1331 772 l 1089 772 l 1089 -51 l 1057 -51 l 903 36 l 903 283 l 900 283 q 844 274 868 274 q 774 285 807 274 q 696 333 742 297 l 692 333 q 711 242 711 293 q 681 117 711 174 q 597 29 650 61 q 476 -3 543 -3 q 229 105 340 -3 q 24 364 118 213 l 69 407 q 235 233 153 296 q 400 171 318 171 q 516 209 472 171 q 560 299 560 247 q 513 421 560 364 q 321 381 422 390 l 249 513 l 261 536 q 400 556 343 544 q 493 590 457 567 q 528 632 518 606 q 539 696 539 658 q 508 762 539 733 q 428 790 478 790 q 317 765 367 790 q 203 681 268 739 l 124 838 q 378 933 253 933 q 507 885 439 933 q 620 765 575 836 q 665 632 665 693 q 648 538 665 574 q 594 468 631 503 q 680 441 633 451 q 763 431 726 431 q 841 440 808 431 q 903 471 874 450 l 903 772 l 733 772 l 669 899 l 669 929 l 1383 929 q 1385 946 1385 935 q 1347 1036 1385 997 q 1229 1075 1308 1075 q 1126 1067 1204 1075 q 974 1054 1017 1054 q 802 1079 889 1056 q 660 1144 715 1103 q 604 1236 604 1186 q 636 1375 604 1296 l 715 1363 z "},"ओ":{"ha":1642,"x_min":21,"x_max":1642,"o":"m 21 0 m 1640 771 l 1515 771 l 1515 -53 l 1483 -53 l 1329 35 l 1329 771 l 1088 771 l 1088 -53 l 1056 -53 l 901 35 l 901 282 l 899 282 q 843 272 867 272 q 773 284 806 272 q 694 332 740 296 l 690 332 q 708 240 708 290 q 678 116 708 172 q 594 28 647 60 q 474 -4 540 -4 q 226 103 338 -4 q 21 363 115 211 l 67 406 q 233 232 150 294 q 397 169 315 169 q 513 208 469 169 q 557 297 557 246 q 510 419 557 363 q 318 379 419 389 l 246 511 l 258 535 q 397 554 340 543 q 490 589 454 565 q 526 631 515 604 q 536 694 536 657 q 506 760 536 732 q 425 789 475 789 q 315 763 364 789 q 200 679 265 738 l 121 836 q 375 932 250 932 q 504 883 436 932 q 617 763 572 835 q 663 631 663 692 q 645 537 663 572 q 593 468 628 501 q 678 441 631 451 q 761 431 725 431 q 840 440 807 431 q 903 471 874 450 l 903 772 l 733 772 l 669 899 l 669 929 l 1574 929 l 1642 801 l 1640 771 m 1057 1393 q 1222 1318 1150 1393 q 1371 1097 1293 1243 q 1486 861 1458 922 l 1413 861 q 1366 937 1401 886 q 1310 1014 1331 988 q 1178 1175 1229 1122 l 990 1111 q 928 1257 928 1167 q 967 1357 928 1321 q 1057 1393 1006 1393 z "},"औ":{"ha":1642,"x_min":21,"x_max":1642,"o":"m 21 0 m 1640 771 l 1515 771 l 1515 -53 l 1483 -53 l 1329 35 l 1329 771 l 1088 771 l 1088 -53 l 1056 -53 l 901 35 l 901 282 l 899 282 q 843 272 867 272 q 773 284 806 272 q 694 332 740 296 l 690 332 q 708 240 708 290 q 678 116 708 172 q 594 28 647 60 q 474 -4 540 -4 q 226 103 338 -4 q 21 363 115 211 l 67 406 q 233 232 150 294 q 397 169 315 169 q 513 208 469 169 q 557 297 557 246 q 510 419 557 363 q 318 379 419 389 l 246 511 l 258 535 q 397 554 340 543 q 490 589 454 565 q 526 631 515 604 q 536 694 536 657 q 506 760 536 732 q 425 789 475 789 q 315 763 364 789 q 200 679 265 738 l 121 836 q 375 932 250 932 q 504 883 436 932 q 617 763 572 835 q 663 631 663 692 q 645 537 663 572 q 593 468 628 501 q 678 441 631 451 q 761 431 725 431 q 840 440 807 431 q 903 471 874 450 l 903 772 l 733 772 l 669 899 l 669 929 l 1574 929 l 1642 801 l 1640 771 m 1064 1563 q 1425 1117 1246 1563 q 1500 915 1454 1046 l 1413 915 q 1361 1047 1401 956 q 1260 1238 1315 1144 q 1174 1360 1206 1331 l 961 1329 l 958 1329 q 935 1426 935 1367 q 974 1526 935 1490 q 1064 1563 1013 1563 m 1000 1261 q 1178 1192 1094 1261 q 1312 1051 1263 1124 q 1428 868 1361 979 l 1354 868 q 1303 935 1343 886 q 1247 1006 1264 985 l 1200 1064 l 906 1033 l 901 1033 q 871 1140 871 1075 q 910 1229 871 1197 q 1000 1261 949 1261 z "},"ॳ":{"ha":1210,"x_min":21,"x_max":1210,"o":"m 21 0 m 1208 771 l 1088 771 l 1088 -53 l 1056 -53 l 901 35 l 901 282 l 899 282 q 843 272 867 272 q 773 284 806 272 q 694 332 740 296 l 690 332 q 708 240 708 290 q 678 116 708 172 q 594 28 647 60 q 474 -4 540 -4 q 226 103 338 -4 q 21 363 115 211 l 67 406 q 233 232 150 294 q 397 169 315 169 q 513 208 469 169 q 557 297 557 246 q 510 419 557 363 q 318 379 419 389 l 246 511 l 258 535 q 397 554 340 543 q 490 589 454 565 q 526 631 515 604 q 536 694 536 657 q 506 760 536 732 q 425 789 475 789 q 315 763 364 789 q 200 679 265 738 l 121 836 q 375 932 250 932 q 504 883 436 932 q 617 763 572 835 q 663 631 663 692 q 645 537 663 572 q 593 468 628 501 q 678 441 631 451 q 761 431 725 431 q 840 440 807 431 q 903 471 874 450 l 903 772 l 733 772 l 669 899 l 669 929 l 1142 929 l 1210 801 l 1208 771 m 1089 1243 l 1089 882 l 903 882 l 903 1243 l 1089 1243 z "},"ॴ":{"ha":1642,"x_min":21,"x_max":1642,"o":"m 21 0 m 1640 771 l 1515 771 l 1515 -53 l 1483 -53 l 1329 35 l 1329 771 l 1088 771 l 1088 -53 l 1056 -53 l 901 35 l 901 282 l 899 282 q 843 272 867 272 q 773 284 806 272 q 694 332 740 296 l 690 332 q 708 240 708 290 q 678 116 708 172 q 594 28 647 60 q 474 -4 540 -4 q 226 103 338 -4 q 21 363 115 211 l 67 406 q 233 232 150 294 q 397 169 315 169 q 513 208 469 169 q 557 297 557 246 q 510 419 557 363 q 318 379 419 389 l 246 511 l 258 535 q 397 554 340 543 q 490 589 454 565 q 526 631 515 604 q 536 694 536 657 q 506 760 536 732 q 425 789 475 789 q 315 763 364 789 q 200 679 265 738 l 121 836 q 375 932 250 932 q 504 883 436 932 q 617 763 572 835 q 663 631 663 692 q 645 537 663 572 q 593 468 628 501 q 678 441 631 451 q 761 431 725 431 q 840 440 807 431 q 903 471 874 450 l 903 772 l 733 772 l 669 899 l 669 929 l 1574 929 l 1642 801 l 1640 771 m 1517 1243 l 1517 882 l 1331 882 l 1331 1243 l 1517 1243 z "},"ॶ":{"ha":1210,"x_min":21,"x_max":1297,"o":"m 21 0 m 1208 771 l 1088 771 l 1088 -53 l 1056 -53 l 901 35 l 901 282 l 899 282 q 843 272 867 272 q 773 284 806 272 q 694 332 740 296 l 690 332 q 708 240 708 290 q 678 116 708 172 q 594 28 647 60 q 474 -4 540 -4 q 226 103 338 -4 q 21 363 115 211 l 67 406 q 233 232 150 294 q 397 169 315 169 q 513 208 469 169 q 557 297 557 246 q 510 419 557 363 q 318 379 419 389 l 246 511 l 258 535 q 397 554 340 543 q 490 589 454 565 q 526 631 515 604 q 536 694 536 657 q 506 760 536 732 q 425 789 475 789 q 315 763 364 789 q 200 679 265 738 l 121 836 q 375 932 250 932 q 504 883 436 932 q 617 763 572 835 q 663 631 663 692 q 645 537 663 572 q 593 468 628 501 q 678 441 631 451 q 761 431 725 431 q 840 440 807 431 q 903 471 874 450 l 903 772 l 733 772 l 669 899 l 669 929 l 1142 929 l 1210 801 l 1208 771 m 996 -181 q 1246 -85 1147 -181 l 1297 -128 q 1172 -269 1254 -211 q 996 -326 1089 -326 q 819 -269 901 -326 q 693 -128 736 -211 l 746 -85 q 996 -181 844 -181 z "},"ॷ":{"ha":1210,"x_min":21,"x_max":1297,"o":"m 21 0 m 1208 771 l 1088 771 l 1088 -53 l 1056 -53 l 901 35 l 901 282 l 899 282 q 843 272 867 272 q 773 284 806 272 q 694 332 740 296 l 690 332 q 708 240 708 290 q 678 116 708 172 q 594 28 647 60 q 474 -4 540 -4 q 226 103 338 -4 q 21 363 115 211 l 67 406 q 233 232 150 294 q 397 169 315 169 q 513 208 469 169 q 557 297 557 246 q 510 419 557 363 q 318 379 419 389 l 246 511 l 258 535 q 397 554 340 543 q 490 589 454 565 q 526 631 515 604 q 536 694 536 657 q 506 760 536 732 q 425 789 475 789 q 315 763 364 789 q 200 679 265 738 l 121 836 q 375 932 250 932 q 504 883 436 932 q 617 763 572 835 q 663 631 663 692 q 645 537 663 572 q 593 468 628 501 q 678 441 631 451 q 761 431 725 431 q 840 440 807 431 q 903 471 874 450 l 903 772 l 733 772 l 669 899 l 669 929 l 1142 929 l 1210 801 l 1208 771 m 996 -181 q 1246 -85 1147 -181 l 1297 -128 q 1172 -269 1254 -211 q 996 -326 1089 -326 q 819 -269 901 -326 q 693 -128 736 -211 l 746 -85 q 996 -181 844 -181 m 996 -411 q 1246 -315 1147 -411 l 1297 -358 q 1172 -499 1254 -442 q 996 -557 1089 -557 q 819 -499 901 -557 q 693 -358 736 -442 l 746 -315 q 996 -411 844 -411 z "},"ा":{"ha":435,"x_min":-78,"x_max":435,"o":"m 435 801 l 435 772 l 311 772 l 311 -51 l 279 -51 l 125 36 l 125 772 l -12 772 l -78 899 l -78 929 l 367 929 l 435 801 z "},"ि":{"ha":435,"x_min":-78,"x_max":1053,"o":"m 408 1243 q 269 1202 324 1243 q 214 1088 214 1161 q 227 1006 214 1049 q 258 929 240 963 l 367 929 l 435 801 l 435 772 l 311 772 l 311 -51 l 279 -51 l 125 36 l 125 772 l -12 772 l -78 899 l -78 929 l 140 929 q 21 1182 21 1074 q 60 1299 21 1247 q 169 1379 99 1350 q 329 1408 239 1408 q 673 1289 482 1408 q 1053 1010 864 1169 l 1013 957 q 696 1158 858 1074 q 408 1243 533 1243 z "},"ी":{"ha":426,"x_min":-426,"x_max":435,"o":"m 435 801 l 435 772 l 311 772 l 311 -51 l 279 -51 l 125 36 l 125 772 l -12 772 l -78 899 l -78 929 l 144 929 q 15 1144 82 1058 q -129 1229 -51 1229 q -206 1198 -178 1229 q -233 1117 -233 1167 q -196 992 -233 1057 l -196 989 l -261 957 q -378 1060 -329 1000 q -426 1188 -426 1119 q -397 1288 -426 1240 q -312 1366 -367 1336 q -186 1396 -257 1396 q -10 1326 -87 1396 q 121 1160 68 1256 q 232 929 174 1064 l 367 929 l 435 801 z "},"ॉ":{"ha":435,"x_min":-78,"x_max":569,"o":"m 0 0 m 435 801 l 435 772 l 311 772 l 311 -51 l 279 -51 l 125 36 l 125 772 l -12 772 l -78 899 l -78 929 l 367 929 l 435 801 m 569 1189 q 438 1067 510 1110 q 263 1024 365 1024 q 66 1102 157 1024 q -78 1281 -25 1181 l -32 1306 q 65 1198 14 1238 q 185 1158 115 1158 q 331 1205 268 1158 q 431 1314 393 1251 l 569 1189 z "},"ॊ":{"ha":435,"x_min":-608,"x_max":435,"o":"m -497 1363 q -518 1276 -518 1304 q -490 1232 -518 1251 q -397 1213 -462 1213 q -156 1226 -314 1213 q -17 1235 -39 1235 q 106 1208 49 1235 q 199 1138 164 1181 q 245 1058 228 1101 q 263 976 263 1015 q 260 929 263 957 l 367 929 l 435 801 l 435 772 l 311 772 l 311 -51 l 279 -51 l 125 36 l 125 772 l -12 772 l -78 899 l -78 929 l 171 929 q 172 946 172 935 q 134 1036 172 997 q 17 1075 96 1075 q -86 1067 -8 1075 q -239 1054 -196 1054 q -410 1079 -324 1056 q -553 1144 -497 1103 q -608 1236 -608 1186 q -576 1375 -608 1296 l -497 1363 z "},"ो":{"ha":435,"x_min":-285,"x_max":435,"o":"m 435 801 l 435 772 l 311 772 l 311 -51 l 279 -51 l 125 36 l 125 772 l -12 772 l -78 899 l -78 929 l 144 929 q 96 994 108 981 q -35 1156 10 1110 l -222 1092 q -285 1238 -285 1147 q -246 1338 -285 1301 q -156 1374 -207 1374 q 10 1298 -62 1374 q 157 1078 82 1222 l 232 929 l 367 929 l 435 801 z "},"ौ":{"ha":426,"x_min":-329,"x_max":435,"o":"m 435 801 l 435 772 l 311 772 l 311 -51 l 279 -51 l 125 36 l 125 772 l -12 772 l -78 899 l -78 929 l 86 929 l 47 978 l 0 1038 l -297 1007 l -299 1007 q -329 1114 -329 1049 q -290 1203 -329 1171 q -200 1235 -251 1235 q 3 1146 -90 1235 q 175 929 96 1057 l 199 929 q 161 1017 179 978 q 60 1209 115 1115 q -28 1333 6 1303 l -242 1303 l -243 1303 q -267 1400 -267 1340 q -228 1500 -267 1464 q -137 1536 -189 1536 q 228 1079 46 1536 q 285 929 261 997 l 367 929 l 435 801 z "},"ऻ":{"ha":435,"x_min":-78,"x_max":435,"o":"m 435 801 l 435 772 l 311 772 l 311 -51 l 279 -51 l 125 36 l 125 772 l -12 772 l -78 899 l -78 929 l 125 929 l 125 1243 l 311 1243 l 311 929 l 367 929 l 435 801 z "},"क":{"ha":1215,"x_min":-78,"x_max":1215,"o":"m 726 772 l 726 553 q 888 618 817 618 q 1016 580 954 618 q 1117 480 1078 542 q 1156 350 1156 418 q 1090 58 1156 222 l 917 154 q 999 304 958 217 q 1040 428 1040 392 q 1019 467 1040 454 q 960 481 999 481 q 728 365 864 481 l 728 -51 l 697 -51 l 533 40 l 551 221 l 547 222 q 440 160 490 182 q 329 138 389 138 q 197 170 257 138 q 99 265 136 203 q 63 413 63 326 q 87 535 63 478 q 162 629 111 593 q 288 665 213 665 q 428 615 364 665 q 539 492 493 565 l 540 772 l -12 772 l -78 899 l -78 929 l 1147 929 l 1215 801 l 1215 772 l 726 772 m 275 292 q 536 394 399 292 l 536 403 q 448 467 507 438 q 328 497 389 497 q 238 483 285 497 q 158 442 190 469 q 126 379 126 415 q 169 319 126 344 q 275 293 213 293 l 275 292 z "},"ख":{"ha":1222,"x_min":-78,"x_max":1222,"o":"m 1222 800 l 1222 771 l 1099 771 l 1099 -53 l 1067 -53 l 913 35 l 915 94 q 731 7 840 43 q 519 -29 622 -29 q 150 264 378 -29 l 119 303 q 58 390 75 361 q 42 446 42 418 q 66 508 42 476 q 117 554 90 539 l 199 511 q 218 567 210 531 q 226 646 226 604 q 217 772 226 692 l -12 772 l -78 899 l -78 929 l 1154 929 l 1222 800 m 515 110 q 727 156 613 110 q 917 268 842 201 l 917 308 l 915 310 q 815 247 861 269 q 719 224 768 224 q 599 256 657 224 q 505 347 540 289 q 469 478 469 404 q 501 603 469 549 q 588 688 533 658 q 706 717 642 717 q 811 680 763 717 q 911 586 860 643 l 913 586 l 913 771 l 385 771 q 404 567 404 661 q 356 405 404 478 q 240 269 307 332 q 358 163 282 214 q 515 111 433 111 l 515 110 m 669 368 q 793 404 726 368 q 911 496 860 440 l 911 500 q 830 547 878 531 q 740 563 782 563 q 637 545 683 563 q 563 499 590 528 q 536 439 536 471 q 574 391 536 413 q 671 369 611 369 l 669 368 z "},"ग":{"ha":919,"x_min":-78,"x_max":919,"o":"m 919 803 l 919 774 l 794 774 l 794 -50 l 763 -50 l 607 38 l 607 774 l 328 774 q 356 561 346 651 q 367 394 367 471 q 337 272 367 324 q 211 221 307 221 q 124 252 160 221 q 70 327 88 283 q 53 408 53 371 q 60 481 53 449 l 197 463 l 197 772 l -12 772 l -78 899 l -78 929 l 850 929 l 919 803 z "},"घ":{"ha":954,"x_min":-78,"x_max":954,"o":"m 954 801 l 954 772 l 829 772 l 829 -51 l 799 -51 l 640 36 l 644 192 l 642 194 q 523 132 576 151 q 399 113 469 113 q 302 135 350 113 q 214 194 254 157 q 147 281 172 235 q 122 363 122 326 q 147 471 122 419 q 213 560 171 522 q 71 635 117 599 q 24 732 25 672 q 26 772 24 742 l -12 772 l -78 899 l -78 929 l 886 929 l 954 801 m 342 258 q 497 298 413 258 q 644 393 581 338 l 644 772 l 210 772 q 188 700 188 743 q 288 610 192 657 q 367 626 326 626 q 496 608 460 626 l 518 479 l 504 447 q 431 461 468 461 q 324 440 371 461 q 253 386 278 418 q 228 324 228 354 q 264 276 228 294 q 339 258 300 258 l 342 258 z "},"ङ":{"ha":1093,"x_min":-78,"x_max":1093,"o":"m 1093 801 l 1093 772 l 676 772 l 676 507 l 315 507 q 218 428 218 507 q 233 376 218 404 q 263 349 247 349 q 349 358 307 349 q 444 386 390 368 q 520 408 494 401 q 571 414 546 414 q 656 375 613 414 q 728 274 700 336 q 757 146 757 211 q 699 -40 756 26 q 546 -107 643 -107 q 289 -31 425 -107 q 24 189 153 46 l 75 240 q 266 92 176 135 q 471 50 356 50 q 567 64 518 50 q 650 106 617 78 q 683 176 683 135 q 667 222 683 199 q 622 257 650 246 q 563 248 592 256 q 489 225 535 240 q 403 199 435 207 q 335 192 371 190 q 245 234 299 193 q 153 338 192 275 q 114 467 114 401 q 269 664 114 664 l 492 664 l 492 772 l -14 772 l -78 899 l -78 929 l 1026 929 l 1093 801 m 1085 435 l 931 279 l 775 435 l 931 589 l 1085 435 z "},"च":{"ha":931,"x_min":-78,"x_max":929,"o":"m 929 800 l 929 771 l 804 771 l 804 -53 l 774 -53 l 608 39 l 621 163 l 619 164 q 527 113 576 132 q 433 94 478 94 q 232 196 326 94 q 171 276 192 238 q 150 360 150 314 q 169 465 150 413 l 74 465 l 8 592 l 8 622 l 500 622 l 568 494 l 568 465 l 381 465 q 303 394 335 438 q 272 315 272 350 q 294 260 272 278 q 346 242 315 242 q 485 276 413 242 q 619 357 558 310 l 619 772 l -12 772 l -78 899 l -78 929 l 863 929 l 929 800 z "},"छ":{"ha":1174,"x_min":-78,"x_max":1174,"o":"m 864 772 l 864 640 q 981 544 936 607 q 1028 393 1026 482 q 971 226 1028 317 q 1072 142 1036 190 q 1108 25 1108 93 q 1085 -100 1108 -25 q 1035 -232 1063 -175 l 861 -112 q 963 -9 922 -58 q 1003 85 1003 40 q 983 124 1003 106 q 926 163 964 143 q 732 -3 844 64 q 515 -69 619 -69 q 346 -24 426 -69 q 216 87 265 22 q 167 201 167 151 q 203 331 167 272 q 128 370 158 351 q 73 423 99 389 q 47 504 47 457 q 108 631 47 583 q 258 678 169 678 q 322 670 290 678 q 367 656 354 663 l 413 522 q 355 538 394 529 q 292 547 315 547 q 233 522 256 547 q 211 454 211 497 q 247 383 211 411 q 353 429 297 429 q 461 419 406 429 l 511 282 l 497 250 q 413 264 457 264 q 338 249 369 264 q 288 213 306 235 q 271 169 271 190 q 314 103 271 132 q 410 75 357 75 q 591 119 489 75 q 765 235 693 163 q 594 360 663 283 q 525 524 525 436 q 567 624 525 586 q 678 669 610 661 l 678 772 l -12 772 l -78 899 l -78 929 l 1106 929 l 1174 801 l 1174 772 l 864 772 m 694 471 q 728 369 694 418 q 814 294 763 319 q 864 446 864 367 q 837 521 864 489 q 765 553 810 553 q 715 532 735 553 q 694 471 694 511 z "},"ज":{"ha":1035,"x_min":-78,"x_max":1035,"o":"m 1035 772 l 910 772 l 910 -51 l 879 -51 l 725 36 l 725 479 l 481 479 q 606 249 606 357 q 549 91 606 149 q 408 33 493 33 q 222 113 303 33 q 88 317 140 192 q 13 583 36 442 l 75 601 q 190 315 118 426 q 369 204 263 204 q 458 229 425 204 q 492 303 492 254 q 417 440 492 367 q 244 572 343 514 l 274 636 l 725 636 l 725 772 l -12 772 l -78 899 l -78 929 l 967 929 l 1035 801 l 1035 772 z "},"झ":{"ha":1164,"x_min":-78,"x_max":1164,"o":"m 1164 801 l 1164 772 l 1043 772 l 1043 -51 l 1011 -51 l 857 36 l 857 256 l 854 256 q 815 243 832 247 q 774 239 797 239 q 709 249 739 239 q 626 289 679 258 l 622 289 q 642 174 642 233 q 603 53 642 107 q 506 -31 565 0 q 382 -67 446 -62 l 504 -247 l 372 -315 l 301 -62 q 184 -26 235 -53 q 106 37 133 0 q 78 113 78 74 q 112 183 79 158 q 182 207 144 207 q 201 204 193 207 l 279 90 q 415 105 347 90 q 526 146 482 119 q 569 204 569 172 q 554 258 569 233 q 521 294 539 283 q 449 272 503 293 q 331 240 364 240 q 244 277 297 240 q 150 370 190 314 q 110 482 110 426 q 265 679 110 679 l 396 679 l 396 772 l -14 772 l -78 899 l -78 929 l 1096 929 l 1164 801 m 714 403 q 858 440 794 403 l 858 772 l 583 772 l 583 522 l 313 522 q 215 443 215 522 q 226 413 215 429 q 247 397 238 397 q 315 403 286 397 q 389 422 343 410 q 437 435 413 429 q 483 442 461 442 q 533 424 507 442 q 714 403 619 403 z "},"ञ":{"ha":1151,"x_min":-78,"x_max":1160,"o":"m 1160 772 l 1033 772 l 1033 -65 l 1001 -65 l 847 22 l 847 304 q 806 294 828 294 q 761 304 782 294 q 700 344 740 314 l 697 344 q 622 202 685 258 q 472 146 560 146 q 290 199 375 146 q 141 327 206 253 q 8 501 76 401 l 58 538 q 240 354 157 417 q 419 292 322 292 q 527 330 485 292 q 569 422 569 368 q 547 488 569 463 q 493 513 525 513 q 427 496 457 513 q 344 438 397 479 l 238 553 q 323 610 268 582 q 415 638 378 638 q 562 588 485 638 q 675 468 639 539 q 740 460 711 460 q 844 490 800 460 l 844 772 l -14 772 l -78 899 l -78 929 l 1089 929 l 1157 801 l 1160 772 z "},"ट":{"ha":800,"x_min":-78,"x_max":800,"o":"m 800 801 l 800 772 l 607 772 l 607 472 q 289 415 411 461 q 167 276 167 369 q 217 185 167 211 q 343 158 268 158 q 694 279 510 158 l 779 114 q 591 26 667 51 q 411 1 515 1 q 239 45 311 1 q 129 164 167 89 q 92 331 92 239 q 186 547 92 472 q 421 638 281 621 l 421 772 l -12 772 l -78 899 l -78 929 l 732 929 l 800 801 z "},"ठ":{"ha":894,"x_min":-78,"x_max":896,"o":"m 896 771 l 642 771 q 669 679 669 719 q 638 579 669 638 q 758 452 713 526 q 803 297 803 378 q 754 122 803 199 q 620 3 706 46 q 428 -40 535 -40 q 256 12 333 -40 q 135 149 179 64 q 92 331 92 235 q 194 553 92 474 q 472 643 297 632 q 483 711 483 676 q 465 772 483 740 l -12 772 l -78 899 l -78 929 l 826 929 l 894 801 l 896 771 m 703 354 q 672 425 703 393 q 608 471 640 457 q 290 414 413 460 q 168 275 168 368 q 199 188 168 224 q 274 134 229 151 q 363 117 319 117 q 557 150 481 117 q 668 237 633 183 q 703 354 703 290 z "},"ड":{"ha":867,"x_min":-78,"x_max":867,"o":"m 867 801 l 867 772 l 704 772 l 704 507 l 315 507 q 218 428 218 507 q 233 376 218 404 q 263 349 247 349 q 356 358 311 349 q 461 386 401 368 q 543 408 515 401 q 599 414 571 414 q 684 375 640 414 q 756 274 728 336 q 785 146 785 211 q 720 -40 783 26 q 546 -107 657 -107 q 289 -31 425 -107 q 24 189 153 46 l 75 240 q 266 92 176 135 q 471 50 356 50 q 635 83 558 50 q 711 176 711 115 q 694 222 711 199 q 650 257 678 246 q 583 248 615 256 q 500 225 551 240 q 408 201 443 208 q 335 192 374 193 q 245 234 299 193 q 153 338 192 275 q 114 467 114 401 q 269 664 114 664 l 519 664 l 519 772 l -14 772 l -78 899 l -78 929 l 800 929 l 867 801 z "},"ढ":{"ha":796,"x_min":-78,"x_max":796,"o":"m 381 500 q 210 457 275 500 q 146 336 146 414 q 211 194 146 253 q 361 108 276 135 q 331 222 331 169 q 387 371 332 324 q 515 418 442 418 q 626 385 575 418 q 708 295 678 353 q 739 168 739 238 q 699 42 739 94 q 601 -39 660 -11 q 485 -67 542 -67 q 300 -15 397 -65 q 136 134 203 35 q 69 372 69 233 q 148 593 69 525 q 347 661 226 661 l 453 661 l 453 772 l -14 772 l -78 899 l -78 929 l 729 929 l 796 801 l 796 772 l 638 772 l 638 499 l 379 499 l 381 500 m 417 163 q 425 96 413 128 l 442 96 q 556 110 503 96 q 642 147 610 124 q 674 199 674 171 q 637 255 672 232 q 561 278 601 278 q 465 246 511 278 q 418 163 419 214 l 417 163 z "},"ण":{"ha":1153,"x_min":-75,"x_max":1153,"o":"m 1153 772 l 1029 772 l 1029 -51 l 997 -51 l 843 36 l 843 772 l 672 772 l 672 394 q 635 265 672 324 q 535 172 597 206 q 401 139 474 139 q 301 182 354 139 q 178 304 249 225 q 106 394 126 358 q 86 482 86 431 l 86 772 l -10 772 l -75 899 l -75 929 l 1085 929 l 1153 801 l 1153 772 m 483 772 l 272 772 l 272 400 q 302 317 272 336 q 386 297 332 297 q 463 340 442 297 q 483 435 483 383 l 483 772 z "},"त":{"ha":883,"x_min":-78,"x_max":883,"o":"m 883 772 l 758 772 l 758 -51 l 728 -51 l 572 36 l 572 479 l 376 479 q 273 448 306 479 q 240 351 240 417 q 440 8 240 211 l 382 -54 q 156 170 247 56 q 65 403 65 285 q 128 574 65 513 q 342 636 192 636 l 572 636 l 572 772 l -12 772 l -78 899 l -78 929 l 814 929 l 883 801 l 883 772 z "},"थ":{"ha":1014,"x_min":61,"x_max":1013,"o":"m 1013 803 l 1013 774 l 889 774 l 889 -50 l 857 -50 l 703 38 l 703 190 l 700 192 q 622 163 672 176 q 522 149 571 149 q 298 224 399 149 q 136 446 197 300 q 290 514 229 469 q 126 637 192 563 q 61 796 61 711 q 115 905 61 867 q 250 943 168 943 q 396 913 324 943 q 516 819 468 882 q 564 664 564 756 q 495 506 564 581 q 310 372 426 431 q 367 314 329 335 q 451 293 404 293 q 703 379 576 293 l 703 772 l 621 772 l 556 899 l 556 929 l 944 929 l 1013 803 m 303 826 q 253 806 274 826 q 232 744 232 785 q 265 642 232 692 q 349 568 299 593 q 400 718 400 632 q 373 793 400 761 q 301 825 346 825 l 303 826 z "},"द":{"ha":796,"x_min":-78,"x_max":796,"o":"m 796 801 l 796 772 l 638 772 l 638 499 l 379 499 q 219 459 279 499 q 158 347 158 419 q 195 257 158 296 q 290 198 232 218 q 407 178 347 178 q 468 183 446 178 l 414 307 q 474 355 433 333 q 549 376 514 376 q 668 333 625 376 q 711 221 711 290 q 685 131 711 172 q 608 63 658 90 l 790 -186 l 658 -254 l 533 33 q 407 17 478 17 q 257 58 332 17 q 133 183 182 100 q 83 383 83 267 q 158 596 83 531 q 347 661 232 661 l 453 661 l 453 772 l -14 772 l -78 899 l -78 929 l 729 929 l 796 801 z "},"ध":{"ha":1006,"x_min":63,"x_max":1007,"o":"m 1007 774 l 882 774 l 882 -50 l 851 -50 l 693 38 l 697 193 l 694 196 q 576 133 629 153 q 451 114 522 114 q 343 142 396 114 q 250 214 290 169 q 195 292 215 251 q 175 364 175 333 q 194 459 175 414 q 244 540 213 504 q 108 662 154 601 q 63 807 63 722 q 107 919 63 879 q 239 958 151 958 q 314 943 274 958 q 379 910 354 928 q 468 776 468 846 q 451 723 468 744 q 396 701 433 701 q 339 711 364 701 l 339 814 q 294 828 322 828 q 245 808 264 828 q 226 753 226 789 q 248 670 226 708 q 310 593 269 632 q 419 626 365 626 q 549 608 513 626 l 571 479 l 557 447 q 483 461 521 461 q 377 440 424 461 q 306 386 331 418 q 281 324 281 354 q 317 276 281 294 q 392 258 353 258 q 547 298 463 258 q 694 393 631 338 l 694 772 l 557 772 l 492 899 l 492 929 l 938 929 l 1006 801 l 1007 774 z "},"न":{"ha":894,"x_min":-78,"x_max":894,"o":"m 894 801 l 894 772 l 769 772 l 769 -51 l 739 -51 l 583 36 l 583 429 l 288 394 l 307 256 q 233 250 265 250 q 152 267 196 250 q 77 321 108 285 q 46 408 46 357 q 97 534 46 504 q 219 564 149 564 q 522 536 328 564 l 583 528 l 583 772 l -12 772 l -78 899 l -78 929 l 825 929 l 894 801 z "},"ऩ":{"ha":894,"x_min":-78,"x_max":894,"o":"m 894 801 l 894 772 l 769 772 l 769 -51 l 739 -51 l 583 36 l 583 429 l 288 394 l 307 256 q 233 250 265 250 q 152 267 196 250 q 77 321 108 285 q 46 408 46 357 q 97 534 46 504 q 219 564 149 564 q 522 536 328 564 l 583 528 l 583 772 l -12 772 l -78 899 l -78 929 l 825 929 l 894 801 m 349 185 l 503 31 l 349 -125 l 193 31 l 349 185 z "},"प":{"ha":836,"x_min":-78,"x_max":835,"o":"m 835 801 l 835 772 l 710 772 l 710 -51 l 679 -51 l 525 36 l 525 244 l 522 246 q 462 222 499 233 q 394 211 425 211 q 329 235 364 211 q 268 285 294 260 q 181 376 242 311 q 107 470 125 438 q 89 554 89 503 l 89 772 l -12 772 l -78 899 l -78 929 l 767 929 l 835 801 m 361 369 q 446 385 403 369 q 525 426 489 401 l 525 772 l 275 772 l 275 447 q 299 389 275 408 q 361 369 322 369 z "},"फ":{"ha":1197,"x_min":-78,"x_max":1197,"o":"m 708 771 l 708 583 q 872 650 797 650 q 999 612 938 650 q 1100 511 1061 574 q 1139 381 1139 449 q 1074 89 1139 253 l 900 186 q 983 335 942 246 q 1024 460 1024 424 q 1003 499 1024 485 q 943 513 982 513 q 710 396 850 513 l 710 -51 l 679 -51 l 515 40 l 538 251 l 535 253 q 470 225 513 239 q 394 211 428 211 q 306 251 353 211 q 181 376 260 292 q 107 470 125 438 q 89 554 89 503 l 89 772 l -12 772 l -78 899 l -78 929 l 1129 929 l 1197 801 l 1197 772 l 708 771 m 357 368 q 519 422 435 368 l 521 771 l 274 771 l 274 446 q 299 387 274 406 q 358 368 324 368 l 357 368 z "},"ब":{"ha":931,"x_min":-78,"x_max":932,"o":"m 932 801 l 932 772 l 806 772 l 806 -51 l 775 -51 l 611 40 l 622 207 l 615 208 q 488 137 546 161 q 357 113 429 113 q 222 146 290 113 q 108 243 153 179 q 63 393 63 307 q 103 553 63 485 q 207 659 143 622 q 338 696 271 696 q 487 643 415 696 q 617 521 558 590 l 618 521 l 618 772 l -12 772 l -78 899 l -78 929 l 861 929 l 932 801 m 407 531 q 322 522 363 531 l 469 304 q 619 414 554 347 l 619 417 q 519 497 578 463 q 407 531 460 531 m 299 258 q 422 283 357 258 l 274 508 q 169 442 208 483 q 131 361 131 401 q 177 288 131 318 q 299 258 224 258 z "},"भ":{"ha":1092,"x_min":61,"x_max":1090,"o":"m 1090 801 l 1090 772 l 965 772 l 965 -51 l 935 -51 l 781 36 l 781 275 l 517 275 q 392 143 500 143 q 305 179 340 143 q 251 265 269 215 q 233 358 233 315 q 240 431 233 399 l 339 431 l 339 504 q 140 631 219 554 q 61 793 61 707 q 113 903 61 864 q 244 943 165 943 q 374 917 310 943 q 481 835 439 890 q 522 697 522 779 l 522 431 l 782 431 l 782 772 l 583 772 l 518 899 l 518 929 l 1024 929 l 1090 801 m 229 740 q 260 657 229 697 q 340 586 290 617 q 357 739 357 683 q 341 799 357 775 q 296 824 325 824 q 249 803 268 824 q 229 740 229 782 z "},"म":{"ha":931,"x_min":-78,"x_max":929,"o":"m 929 801 l 929 772 l 804 772 l 804 -51 l 774 -51 l 619 36 l 619 303 l 342 303 q 217 171 325 171 q 130 207 165 171 q 76 293 94 243 q 58 386 58 343 q 65 458 58 426 l 164 458 l 164 772 l -12 772 l -78 899 l -78 929 l 863 929 l 929 801 m 619 458 l 619 772 l 346 772 l 346 458 l 619 458 z "},"य":{"ha":944,"x_min":-78,"x_max":944,"o":"m 944 772 l 819 772 l 819 -51 l 789 -51 l 635 36 l 635 189 l 632 190 q 553 161 604 175 q 454 147 503 147 q 219 232 325 147 q 56 479 113 317 q 217 551 167 514 q 267 644 267 589 q 214 772 267 707 l -12 772 l -78 899 l -78 929 l 876 929 l 944 801 l 944 772 m 383 293 q 635 379 508 293 l 635 772 l 354 772 q 444 596 444 663 q 383 493 444 547 q 229 407 321 439 q 285 324 240 354 q 383 293 329 293 z "},"र":{"ha":606,"x_min":-78,"x_max":606,"o":"m 604 771 l 407 771 q 425 567 425 668 q 377 405 425 478 q 263 269 329 332 l 558 14 l 460 -60 l 150 293 q 86 378 107 343 q 65 446 65 413 q 90 508 65 476 q 140 554 114 539 l 222 511 q 241 567 233 529 q 249 646 249 604 q 240 772 249 704 l -12 772 l -78 899 l -78 929 l 538 929 l 606 801 l 604 771 z "},"ऱ":{"ha":635,"x_min":-78,"x_max":635,"o":"m 633 771 l 407 771 q 425 567 425 668 q 377 405 425 478 q 263 269 329 332 l 558 14 l 460 -60 l 150 293 q 86 378 107 343 q 65 446 65 413 q 90 508 65 476 q 140 554 114 539 l 222 511 q 241 567 233 529 q 249 646 249 604 q 240 772 249 704 l -12 772 l -78 899 l -78 929 l 567 929 l 635 801 l 633 771 m 158 129 l 313 -25 l 158 -181 l 3 -25 l 158 129 z "},"ल":{"ha":1132,"x_min":-78,"x_max":1132,"o":"m 1132 772 l 1007 772 l 1007 -51 l 976 -51 l 821 36 l 821 492 q 799 496 810 496 q 707 454 751 496 q 631 350 663 413 q 586 229 600 288 l 426 325 q 482 464 440 397 q 371 493 429 493 q 266 449 308 493 q 224 340 224 406 q 460 -25 224 165 l 417 -71 q 159 135 268 19 q 50 393 50 251 q 82 519 50 463 q 169 610 114 576 q 292 644 225 643 q 406 617 356 644 q 525 522 457 589 q 620 597 567 569 q 733 624 674 624 q 821 571 775 624 l 821 772 l -12 772 l -78 899 l -78 929 l 1063 929 l 1132 801 l 1132 772 z "},"ळ":{"ha":1160,"x_min":-78,"x_max":1160,"o":"m 943 775 l 943 643 q 1051 529 1011 601 q 1090 360 1090 457 q 1065 219 1090 285 q 986 111 1039 153 q 854 69 933 69 q 717 112 779 69 q 604 221 654 154 q 515 92 565 138 q 382 47 465 47 q 223 85 296 47 q 106 194 150 122 q 63 365 63 267 q 90 515 63 444 q 172 628 117 585 q 310 672 228 672 q 449 631 386 672 q 560 528 513 590 q 642 642 596 600 q 758 688 688 683 l 758 772 l -12 772 l -78 899 l -78 929 l 1092 929 l 1160 801 l 1160 772 l 943 775 m 1010 418 q 974 501 1010 468 q 868 535 938 535 q 760 502 803 535 q 692 422 717 469 q 633 293 667 375 q 788 239 711 239 q 892 263 840 239 q 978 328 944 286 q 1011 418 1011 369 l 1010 418 m 289 204 q 387 235 347 204 q 452 311 426 267 q 514 436 478 356 l 526 465 q 394 506 464 506 q 272 482 329 506 q 179 417 214 458 q 144 324 144 375 q 182 239 144 274 q 290 204 219 204 l 289 204 z "},"ऴ":{"ha":1160,"x_min":-78,"x_max":1160,"o":"m 943 775 l 943 643 q 1051 529 1011 601 q 1090 360 1090 457 q 1065 219 1090 285 q 986 111 1039 153 q 854 69 933 69 q 717 112 779 69 q 604 221 654 154 q 515 92 565 138 q 382 47 465 47 q 223 85 296 47 q 106 194 150 122 q 63 365 63 267 q 90 515 63 444 q 172 628 117 585 q 310 672 228 672 q 449 631 386 672 q 560 528 513 590 q 642 642 596 600 q 758 688 688 683 l 758 772 l -12 772 l -78 899 l -78 929 l 1092 929 l 1160 801 l 1160 772 l 943 775 m 1010 418 q 974 501 1010 468 q 868 535 938 535 q 760 502 803 535 q 692 422 717 469 q 633 293 667 375 q 788 239 711 239 q 892 263 840 239 q 978 328 944 286 q 1011 418 1011 369 l 1010 418 m 289 204 q 387 235 347 204 q 452 311 426 267 q 514 436 478 356 l 526 465 q 394 506 464 506 q 272 482 329 506 q 179 417 214 458 q 144 324 144 375 q 182 239 144 274 q 290 204 219 204 l 289 204 m 617 43 l 771 -111 l 617 -267 l 461 -111 l 617 43 z "},"व":{"ha":924,"x_min":-78,"x_max":925,"o":"m 925 801 l 925 772 l 800 772 l 800 -51 l 769 -51 l 604 40 l 617 207 l 610 208 q 481 137 540 161 q 344 113 421 113 q 212 146 276 113 q 105 242 147 179 q 63 393 63 306 q 99 555 63 486 q 199 660 136 624 q 335 696 261 696 q 483 643 413 696 q 611 521 554 590 l 613 521 l 613 772 l -12 772 l -78 899 l -78 929 l 856 929 l 925 801 m 288 258 q 460 306 367 258 q 615 414 554 353 l 615 417 q 515 497 574 464 q 404 531 456 531 q 267 504 331 531 q 167 438 204 478 q 131 361 131 399 q 172 288 131 317 q 286 258 213 258 l 288 258 z "},"श":{"ha":1088,"x_min":-78,"x_max":1088,"o":"m 964 772 l 964 -51 l 932 -51 l 778 36 l 778 772 l 576 772 q 625 622 625 710 q 588 465 625 549 q 484 314 550 382 q 336 217 418 246 l 483 -4 l 346 -75 l 268 200 l 239 199 q 142 215 188 199 q 71 258 97 232 q 44 315 44 285 q 63 377 44 349 q 108 422 81 406 q 163 438 136 438 q 194 432 181 438 l 249 350 q 381 447 329 385 q 197 576 271 497 q 122 744 122 656 q 125 772 122 756 l -12 772 l -78 899 l -78 929 l 1019 929 l 1088 801 l 1088 772 l 964 772 m 461 674 q 434 742 461 713 q 363 772 407 772 q 313 751 333 772 q 292 690 292 731 q 329 583 292 635 q 421 508 367 532 q 461 674 461 585 z "},"ष":{"ha":863,"x_min":-78,"x_max":863,"o":"m 863 801 l 863 772 l 738 772 l 738 -51 l 707 -51 l 553 36 l 553 192 l 550 193 q 482 169 525 181 q 408 158 439 158 q 314 201 364 158 q 188 324 264 243 q 108 419 128 388 q 89 501 89 451 l 89 772 l -12 772 l -78 899 l -78 929 l 794 929 l 863 801 m 275 772 l 553 421 l 553 772 l 275 772 m 375 317 q 536 365 451 317 l 275 694 l 275 394 q 302 336 275 356 q 375 317 329 317 z "},"स":{"ha":982,"x_min":-78,"x_max":983,"o":"m 983 801 l 983 772 l 858 772 l 858 -51 l 826 -51 l 672 36 l 672 274 l 669 274 q 561 256 614 256 q 458 280 511 256 q 343 356 406 304 l 339 356 q 258 269 306 314 l 554 14 l 456 -60 l 146 293 q 82 378 103 343 q 61 446 61 413 q 85 508 61 476 q 136 554 110 539 l 218 511 q 237 567 229 529 q 244 646 244 604 q 236 772 244 704 l -12 772 l -78 899 l -78 929 l 914 929 l 983 801 m 529 431 q 674 458 613 431 l 674 772 l 407 772 q 425 568 425 669 q 403 461 425 514 q 529 431 468 431 z "},"ह":{"ha":828,"x_min":-78,"x_max":828,"o":"m 300 521 q 236 504 256 521 q 217 456 217 488 q 254 374 217 411 q 454 433 339 433 q 601 390 531 433 q 717 285 672 346 q 763 176 763 224 q 719 56 763 119 q 618 -53 675 -7 l 483 68 l 483 71 q 600 159 563 122 q 638 236 638 196 q 608 285 638 267 q 518 304 578 304 q 384 257 439 304 q 329 142 329 210 q 415 -40 329 42 q 672 -214 501 -121 l 635 -265 q 398 -134 497 -197 q 227 14 299 -71 q 156 199 156 99 q 194 314 156 260 q 135 404 156 361 q 114 494 114 447 q 256 678 114 678 l 499 678 l 499 772 l -14 772 l -78 899 l -78 929 l 761 929 l 828 801 l 828 772 l 683 772 l 683 521 l 300 521 z "},"क़":{"ha":1215,"x_min":-78,"x_max":1215,"o":"m 0 0 m 726 772 l 726 553 q 888 618 817 618 q 1016 580 954 618 q 1117 480 1078 542 q 1156 350 1156 418 q 1090 58 1156 222 l 917 154 q 999 304 958 217 q 1040 428 1040 392 q 1019 467 1040 454 q 960 481 999 481 q 728 365 864 481 l 728 -51 l 697 -51 l 533 40 l 551 221 l 547 222 q 440 160 490 182 q 329 138 389 138 q 197 170 257 138 q 99 265 136 203 q 63 413 63 326 q 87 535 63 478 q 162 629 111 593 q 288 665 213 665 q 428 615 364 665 q 539 492 493 565 l 540 772 l -12 772 l -78 899 l -78 929 l 1147 929 l 1215 801 l 1215 772 l 726 772 m 275 292 q 536 394 399 292 l 536 403 q 448 467 507 438 q 328 497 389 497 q 238 483 285 497 q 158 442 190 469 q 126 379 126 415 q 169 319 126 344 q 275 293 213 293 l 275 292 m 481 -56 l 326 -211 l 171 -56 l 326 99 l 481 -56 z "},"ख़":{"ha":1222,"x_min":-78,"x_max":1222,"o":"m 0 0 m 1222 800 l 1222 771 l 1099 771 l 1099 -53 l 1067 -53 l 913 35 l 915 94 q 731 7 840 43 q 519 -29 622 -29 q 150 264 378 -29 l 119 303 q 58 390 75 361 q 42 446 42 418 q 66 508 42 476 q 117 554 90 539 l 199 511 q 218 567 210 531 q 226 646 226 604 q 217 772 226 692 l -12 772 l -78 899 l -78 929 l 1154 929 l 1222 800 m 515 110 q 727 156 613 110 q 917 268 842 201 l 917 308 l 915 310 q 815 247 861 269 q 719 224 768 224 q 599 256 657 224 q 505 347 540 289 q 469 478 469 404 q 501 603 469 549 q 588 688 533 658 q 706 717 642 717 q 811 680 763 717 q 911 586 860 643 l 913 586 l 913 771 l 385 771 q 404 567 404 661 q 356 405 404 478 q 240 269 307 332 q 358 163 282 214 q 515 111 433 111 l 515 110 m 669 368 q 793 404 726 368 q 911 496 860 440 l 911 500 q 830 547 878 531 q 740 563 782 563 q 637 545 683 563 q 563 499 590 528 q 536 439 536 471 q 574 391 536 413 q 671 369 611 369 l 669 368 m 286 0 l 132 -156 l -24 0 l 132 154 l 286 0 z "},"ग़":{"ha":919,"x_min":-78,"x_max":919,"o":"m 0 0 m 919 803 l 919 774 l 794 774 l 794 -50 l 763 -50 l 607 38 l 607 774 l 328 774 q 356 561 346 651 q 367 394 367 471 q 337 272 367 324 q 211 221 307 221 q 124 252 160 221 q 70 327 88 283 q 53 408 53 371 q 60 481 53 449 l 197 463 l 197 772 l -12 772 l -78 899 l -78 929 l 850 929 l 919 803 m 367 0 l 213 -156 l 57 0 l 213 154 l 367 0 z "},"ज़":{"ha":1035,"x_min":-78,"x_max":1035,"o":"m 0 0 m 1035 772 l 910 772 l 910 -51 l 879 -51 l 725 36 l 725 479 l 481 479 q 606 249 606 357 q 549 91 606 149 q 408 33 493 33 q 222 113 303 33 q 88 317 140 192 q 13 583 36 442 l 75 601 q 190 315 118 426 q 369 204 263 204 q 458 229 425 204 q 492 303 492 254 q 417 440 492 367 q 244 572 343 514 l 274 636 l 725 636 l 725 772 l -12 772 l -78 899 l -78 929 l 967 929 l 1035 801 l 1035 772 m 669 -208 l 515 -364 l 360 -208 l 515 -54 l 669 -208 z "},"ड़":{"ha":867,"x_min":-78,"x_max":867,"o":"m 0 0 m 867 801 l 867 772 l 704 772 l 704 507 l 315 507 q 218 428 218 507 q 233 376 218 404 q 263 349 247 349 q 356 358 311 349 q 461 386 401 368 q 543 408 515 401 q 599 414 571 414 q 684 375 640 414 q 756 274 728 336 q 785 146 785 211 q 720 -40 783 26 q 546 -107 657 -107 q 289 -31 425 -107 q 24 189 153 46 l 75 240 q 266 92 176 135 q 471 50 356 50 q 635 83 558 50 q 711 176 711 115 q 694 222 711 199 q 650 257 678 246 q 583 248 615 256 q 500 225 551 240 q 408 201 443 208 q 335 192 374 193 q 245 234 299 193 q 153 338 192 275 q 114 467 114 401 q 269 664 114 664 l 519 664 l 519 772 l -14 772 l -78 899 l -78 929 l 800 929 l 867 801 m 669 -319 l 515 -475 l 360 -319 l 515 -165 l 669 -319 z "},"ढ़":{"ha":796,"x_min":-78,"x_max":796,"o":"m 0 0 m 381 500 q 210 457 275 500 q 146 336 146 414 q 211 194 146 253 q 361 108 276 135 q 331 222 331 169 q 387 371 332 324 q 515 418 442 418 q 626 385 575 418 q 708 295 678 353 q 739 168 739 238 q 699 42 739 94 q 601 -39 660 -11 q 485 -67 542 -67 q 300 -15 397 -65 q 136 134 203 35 q 69 372 69 233 q 148 593 69 525 q 347 661 226 661 l 453 661 l 453 772 l -14 772 l -78 899 l -78 929 l 729 929 l 796 801 l 796 772 l 638 772 l 638 499 l 379 499 l 381 500 m 417 163 q 425 96 413 128 l 442 96 q 556 110 503 96 q 642 147 610 124 q 674 199 674 171 q 637 255 672 232 q 561 278 601 278 q 465 246 511 278 q 418 163 419 214 l 417 163 m 635 -247 l 481 -403 l 325 -247 l 481 -93 l 635 -247 z "},"फ़":{"ha":1197,"x_min":-78,"x_max":1197,"o":"m 0 0 m 708 771 l 708 583 q 872 650 797 650 q 999 612 938 650 q 1100 511 1061 574 q 1139 381 1139 449 q 1074 89 1139 253 l 900 186 q 983 335 942 246 q 1024 460 1024 424 q 1003 499 1024 485 q 943 513 982 513 q 710 396 850 513 l 710 -51 l 679 -51 l 515 40 l 538 251 l 535 253 q 470 225 513 239 q 394 211 428 211 q 306 251 353 211 q 181 376 260 292 q 107 470 125 438 q 89 554 89 503 l 89 772 l -12 772 l -78 899 l -78 929 l 1129 929 l 1197 801 l 1197 772 l 708 771 m 357 368 q 519 422 435 368 l 521 771 l 274 771 l 274 446 q 299 387 274 406 q 358 368 324 368 l 357 368 m 272 139 l 118 -17 l -37 139 l 118 293 l 272 139 z "},"य़":{"ha":944,"x_min":-78,"x_max":944,"o":"m 0 0 m 944 772 l 819 772 l 819 -51 l 789 -51 l 635 36 l 635 189 l 632 190 q 553 161 604 175 q 454 147 503 147 q 219 232 325 147 q 56 479 113 317 q 217 551 167 514 q 267 644 267 589 q 214 772 267 707 l -12 772 l -78 899 l -78 929 l 876 929 l 944 801 l 944 772 m 383 293 q 635 379 508 293 l 635 772 l 354 772 q 444 596 444 663 q 383 493 444 547 q 229 407 321 439 q 285 324 240 354 q 383 293 329 293 m 257 56 l 103 -100 l -53 56 l 103 210 l 257 56 z "},"ॹ":{"ha":1035,"x_min":-78,"x_max":1035,"o":"m 1035 772 l 910 772 l 910 -51 l 879 -51 l 725 36 l 725 479 l 481 479 q 606 249 606 357 q 549 91 606 149 q 408 33 493 33 q 222 113 303 33 q 88 317 140 192 q 13 583 36 442 l 75 601 q 190 315 118 426 q 369 204 263 204 q 458 229 425 204 q 492 303 492 254 q 417 440 492 367 q 244 572 343 514 l 274 636 l 725 636 l 725 772 l -12 772 l -78 899 l -78 929 l 967 929 l 1035 801 l 1035 772 m 342 -97 l 226 -214 l 110 -97 l 226 18 l 342 -97 m 522 18 l 638 -97 l 522 -214 l 406 -97 l 522 18 m 374 -131 l 489 -246 l 374 -362 l 257 -246 l 374 -131 z "},"ॺ":{"ha":944,"x_min":-78,"x_max":944,"o":"m 944 801 l 944 772 l 819 772 l 819 -51 l 789 -51 l 635 36 l 635 189 l 632 190 q 553 161 604 175 q 454 147 503 147 q 219 232 325 147 q 56 479 113 317 q 217 551 167 514 q 267 644 267 589 q 214 772 267 707 l -12 772 l -78 899 l -78 929 l 876 929 l 944 801 m 354 774 l 383 736 l 635 424 l 635 772 l 356 772 l 354 774 m 383 294 q 614 367 497 294 l 443 578 q 372 485 432 533 q 229 408 313 438 q 285 325 240 356 q 383 294 329 294 z "},"ॻ":{"ha":919,"x_min":-78,"x_max":919,"o":"m 919 801 l 919 772 l 794 772 l 794 -87 l 89 -87 l 38 11 l 38 42 l 607 42 l 607 772 l 328 772 q 356 559 346 647 q 367 394 367 471 q 337 272 367 324 q 211 221 307 221 q 124 252 160 221 q 70 327 88 283 q 53 408 53 371 q 60 481 53 449 l 197 463 l 197 772 l -12 772 l -78 899 l -78 929 l 850 929 l 919 801 z "},"ॼ":{"ha":1035,"x_min":-78,"x_max":1035,"o":"m 1035 801 l 1035 772 l 910 772 l 910 -199 l 89 -199 l 38 -100 l 38 -69 l 725 -69 l 725 479 l 481 479 q 606 249 606 357 q 549 91 606 149 q 408 33 493 33 q 222 113 303 33 q 88 317 140 192 q 13 583 36 442 l 75 601 q 190 315 118 426 q 369 204 263 204 q 458 229 425 204 q 492 303 492 254 q 417 440 492 367 q 244 572 343 514 l 274 636 l 725 636 l 725 772 l -12 772 l -78 899 l -78 929 l 967 929 l 1035 801 z "},"ॾ":{"ha":867,"x_min":-78,"x_max":867,"o":"m 867 801 l 867 772 l 704 772 l 704 507 l 315 507 q 218 428 218 507 q 233 376 218 404 q 263 349 247 349 q 356 358 311 349 q 461 386 401 368 q 543 408 515 401 q 599 414 571 414 q 684 375 640 414 q 756 274 728 336 q 785 146 785 211 q 720 -40 783 26 q 546 -107 657 -107 q 289 -31 425 -107 q 24 189 153 46 l 75 240 q 266 92 176 135 q 471 50 356 50 q 635 83 558 50 q 711 176 711 115 q 694 222 711 199 q 650 257 678 246 q 583 248 615 256 q 500 225 551 240 q 408 201 443 208 q 335 192 374 193 q 245 234 299 193 q 153 338 192 275 q 114 467 114 401 q 269 664 114 664 l 519 664 l 519 772 l -14 772 l -78 899 l -78 929 l 800 929 l 867 801 m 829 -307 l 829 -337 l 89 -337 l 38 -239 l 38 -208 l 778 -208 l 829 -307 z "},"ॿ":{"ha":931,"x_min":-78,"x_max":931,"o":"m 931 801 l 931 772 l 804 772 l 804 -87 l 89 -87 l 38 11 l 38 42 l 610 42 l 621 207 l 614 208 q 488 137 546 161 q 357 113 431 113 q 222 146 290 113 q 108 243 153 179 q 63 393 63 307 q 103 553 63 485 q 207 659 143 622 q 338 696 271 696 q 487 643 415 696 q 617 521 558 590 l 618 521 l 618 772 l -12 772 l -78 899 l -78 929 l 861 929 l 931 801 m 406 531 q 322 522 363 531 l 469 304 q 618 414 557 347 l 618 417 q 517 497 576 463 q 406 531 458 531 m 271 507 q 168 442 207 483 q 129 361 129 401 q 176 288 129 318 q 297 258 222 258 q 421 282 353 258 l 271 507 z "},"⁄":{"ha":725,"x_min":19,"x_max":704,"o":"m 704 1233 l 163 -232 l 19 -182 l 560 1275 l 704 1233 z "},"½":{"ha":1853,"x_min":194,"x_max":1765,"o":"m 1256 1233 l 714 -232 l 571 -182 l 1111 1275 l 1256 1233 m 376 607 l 376 958 q 302 949 357 957 q 219 935 247 940 l 194 1040 q 386 1099 254 1051 q 544 1168 518 1146 l 600 1157 l 600 607 l 760 579 l 760 488 l 200 488 l 200 579 l 376 607 m 1061 104 q 1351 294 1244 210 q 1458 446 1458 379 q 1425 516 1458 490 q 1339 542 1392 542 q 1236 513 1285 542 q 1131 429 1188 483 l 1074 508 q 1210 632 1119 581 q 1386 683 1300 683 q 1602 632 1528 683 q 1676 485 1676 581 q 1629 357 1676 417 q 1510 248 1582 297 q 1311 126 1438 199 l 1263 97 l 1588 156 l 1654 257 l 1765 226 l 1719 -1 l 1103 -1 l 1061 104 z "},"¼":{"ha":1853,"x_min":194,"x_max":1690,"o":"m 1256 1233 l 714 -232 l 571 -182 l 1111 1275 l 1256 1233 m 376 607 l 376 958 q 302 949 357 957 q 219 935 247 940 l 194 1040 q 386 1099 254 1051 q 544 1168 518 1146 l 600 1157 l 600 607 l 760 579 l 760 488 l 200 488 l 200 579 l 376 607 m 1433 717 l 1525 610 l 1160 189 l 1378 213 l 1386 347 l 1556 367 l 1556 232 l 1690 247 l 1690 72 l 1556 72 l 1556 -119 l 1360 -119 l 1369 72 l 1032 72 l 997 174 l 1349 717 l 1433 717 z "},"¾":{"ha":1968,"x_min":203,"x_max":1690,"o":"m 1256 1233 l 714 -232 l 571 -182 l 1111 1275 l 1256 1233 m 231 544 q 295 533 250 539 q 360 528 340 528 q 512 558 449 528 q 575 656 575 589 q 551 724 575 696 q 485 763 528 751 l 439 751 l 328 725 l 331 836 q 496 898 443 865 q 549 989 549 931 q 516 1038 549 1022 q 440 1053 483 1053 q 345 1036 397 1053 q 251 993 293 1019 l 203 1075 q 334 1142 247 1115 q 494 1168 421 1168 q 677 1124 600 1168 q 754 1006 754 1081 q 722 903 754 943 q 621 833 689 863 q 744 774 694 824 q 793 663 793 725 q 747 530 793 585 q 623 447 701 475 q 451 418 544 418 q 231 444 336 418 l 231 544 m 1433 717 l 1525 610 l 1160 189 l 1378 213 l 1386 347 l 1556 367 l 1556 232 l 1690 247 l 1690 72 l 1556 72 l 1556 -119 l 1360 -119 l 1369 72 l 1032 72 l 997 174 l 1349 717 l 1433 717 z "},"¹":{"ha":763,"x_min":129,"x_max":694,"o":"m 311 607 l 311 958 q 237 949 292 957 q 154 935 182 940 l 129 1040 q 321 1099 189 1051 q 479 1168 453 1146 l 535 1157 l 535 607 l 694 579 l 694 488 l 135 488 l 135 579 l 311 607 z "},"²":{"ha":839,"x_min":96,"x_max":800,"o":"m 96 594 q 386 785 279 700 q 493 936 493 869 q 460 1006 493 981 q 374 1032 426 1032 q 271 1003 319 1032 q 165 919 222 974 l 108 999 q 244 1122 154 1071 q 421 1174 335 1174 q 637 1122 563 1174 q 711 975 711 1071 q 664 847 711 907 q 544 738 617 788 q 346 617 472 689 l 297 588 l 622 646 l 689 747 l 800 717 l 754 489 l 138 489 l 96 594 z "},"³":{"ha":771,"x_min":107,"x_max":697,"o":"m 135 544 q 199 533 154 539 q 264 528 244 528 q 416 558 353 528 q 479 656 479 589 q 456 724 479 696 q 389 763 432 751 l 343 751 l 232 725 l 235 836 q 400 898 347 865 q 453 989 453 931 q 420 1038 453 1022 q 344 1053 388 1053 q 249 1036 301 1053 q 156 993 197 1019 l 107 1075 q 238 1142 151 1115 q 399 1168 325 1168 q 581 1124 504 1168 q 658 1006 658 1081 q 626 903 658 943 q 525 833 593 863 q 648 774 599 824 q 697 663 697 725 q 651 530 697 585 q 527 447 606 475 q 356 418 449 418 q 135 444 240 418 l 135 544 z "},"०":{"ha":876,"x_min":121,"x_max":757,"o":"m 121 371 q 174 524 121 446 q 304 651 226 601 q 451 701 382 701 q 602 664 532 701 q 715 559 672 626 q 757 407 757 492 q 703 246 757 325 q 570 117 649 167 q 425 67 492 67 q 269 107 339 67 q 160 217 200 147 q 121 371 121 286 m 281 449 q 312 299 281 363 q 387 203 343 236 q 465 171 431 171 q 528 190 499 171 q 577 244 558 210 q 596 321 596 279 q 569 457 596 393 q 501 559 543 521 q 413 597 458 597 q 320 555 360 597 q 281 449 281 513 z "},"१":{"ha":876,"x_min":164,"x_max":743,"o":"m 407 940 q 531 904 464 940 q 644 808 597 868 q 690 683 690 749 q 508 368 690 574 l 401 250 l 618 31 q 713 -83 683 -40 q 743 -162 743 -125 q 705 -252 743 -218 q 619 -286 667 -286 q 519 -251 567 -286 q 444 -158 472 -217 l 444 -156 l 569 -62 q 465 65 525 4 q 294 222 404 125 l 213 294 l 213 296 l 403 481 q 272 567 317 535 q 196 642 228 599 q 164 738 164 685 q 197 841 164 794 q 285 914 229 888 q 407 940 340 940 m 442 856 q 365 808 397 856 q 333 694 333 760 q 367 614 333 658 q 449 538 401 569 q 528 742 528 649 q 502 823 528 790 q 442 856 476 856 z "},"२":{"ha":876,"x_min":106,"x_max":743,"o":"m 442 940 q 578 882 507 940 q 696 738 649 824 q 743 578 743 651 q 699 443 743 514 q 580 315 654 372 q 419 233 506 257 l 674 -150 l 522 -228 l 336 219 q 231 233 279 217 q 153 277 182 249 q 125 336 125 306 q 142 407 125 375 q 183 458 158 439 q 232 476 208 476 q 264 471 250 476 l 329 371 q 477 431 411 388 q 580 532 543 474 q 617 649 617 590 q 586 751 617 706 q 506 797 556 797 q 367 772 428 797 q 219 689 306 747 l 106 850 q 286 917 211 894 q 442 940 361 940 z "},"३":{"ha":876,"x_min":67,"x_max":810,"o":"m 807 310 q 760 159 807 228 q 642 49 714 90 q 496 1 569 7 l 618 -179 l 486 -247 l 415 6 q 298 42 349 15 q 219 105 247 68 q 192 181 192 142 q 226 251 193 226 q 296 275 258 275 q 324 272 299 275 l 393 158 q 518 189 450 158 q 633 268 586 219 q 679 365 679 317 q 645 434 678 410 q 563 458 613 458 q 535 457 544 458 q 415 412 479 428 q 299 396 351 396 q 232 431 263 396 q 201 518 201 465 q 277 566 201 543 q 468 599 353 589 q 549 718 549 646 q 519 775 549 753 q 438 797 489 797 q 151 744 317 797 l 67 906 q 374 940 250 940 q 510 894 439 940 q 628 778 581 847 q 675 647 675 708 q 631 532 675 583 q 766 406 722 464 q 810 311 810 347 l 807 310 z "},"४":{"ha":876,"x_min":-12,"x_max":858,"o":"m 529 503 q 692 328 640 400 q 744 204 744 257 q 657 76 744 122 q 450 29 569 29 q 315 60 381 29 q 208 144 249 90 q 167 264 167 197 q 206 385 167 324 q 342 546 244 447 q 92 742 251 626 q 44 776 71 757 q -12 819 17 796 l 61 913 q 153 833 64 911 q 408 614 332 681 l 497 701 q 785 985 647 844 l 858 813 q 528 506 629 601 l 529 503 m 400 115 q 470 140 436 115 q 526 206 504 165 q 547 293 547 247 q 468 419 547 340 l 456 432 q 345 300 375 350 q 315 201 315 250 q 341 140 315 164 q 401 115 367 115 l 400 115 z "},"५":{"ha":876,"x_min":111,"x_max":939,"o":"m 808 -253 l 594 197 q 438 135 515 135 q 299 175 376 135 q 166 281 221 215 q 111 421 111 347 q 156 664 111 517 q 261 943 200 811 l 407 825 q 250 356 250 503 q 277 292 250 321 q 333 261 304 263 q 418 286 367 261 q 522 351 469 311 l 461 475 q 510 513 481 497 q 574 529 539 529 q 671 490 633 529 q 708 383 708 450 q 691 315 708 351 q 644 244 674 278 l 939 -185 l 808 -253 z "},"६":{"ha":876,"x_min":25,"x_max":907,"o":"m 351 951 q 413 950 393 951 l 508 776 q 433 783 463 783 q 244 753 310 783 q 178 647 178 722 q 201 584 178 615 q 253 535 224 553 q 390 592 315 572 q 525 613 464 613 q 591 583 563 613 q 619 500 619 553 q 579 460 619 482 q 476 423 539 439 q 349 404 413 407 q 275 281 275 351 q 294 219 275 250 q 345 168 314 188 q 413 149 376 149 q 585 185 483 149 l 531 307 q 661 354 594 354 q 760 321 722 354 q 799 225 799 288 q 776 149 799 188 q 714 78 754 110 l 907 -186 l 775 -254 l 649 35 q 485 -7 572 -7 q 340 59 426 -7 q 189 211 254 125 q 124 349 124 297 q 183 482 124 419 q 72 601 118 536 q 25 715 25 667 q 98 888 25 824 q 351 951 171 951 z "},"७":{"ha":876,"x_min":35,"x_max":844,"o":"m 100 939 q 192 480 129 657 q 335 226 256 303 q 499 149 415 149 q 656 210 601 149 q 726 376 711 272 q 639 349 685 349 q 447 436 544 349 q 347 558 379 497 q 315 708 315 618 q 347 809 315 763 q 426 883 378 856 q 519 911 474 911 q 642 879 592 911 q 738 776 693 847 q 813 597 782 703 q 844 400 844 492 q 799 178 844 271 q 683 40 754 86 q 535 -7 611 -7 q 298 103 403 -7 q 126 421 193 213 q 35 918 58 629 l 100 939 m 613 761 q 532 740 567 761 q 478 683 497 718 q 460 611 460 649 q 568 500 460 500 q 646 517 603 500 q 725 563 689 533 q 680 706 711 650 q 613 761 649 761 z "},"८":{"ha":876,"x_min":78,"x_max":829,"o":"m 703 875 l 413 547 q 269 355 307 428 q 232 210 232 282 q 271 106 232 151 q 378 60 310 60 q 517 110 447 60 q 686 254 588 160 l 708 275 l 829 165 q 633 -3 722 43 q 436 -49 543 -49 q 272 -1 356 -49 q 133 120 188 47 q 78 263 78 193 q 231 560 78 386 l 654 1043 l 703 875 z "},"९":{"ha":876,"x_min":14,"x_max":881,"o":"m 285 986 q 411 942 340 986 q 531 828 482 897 q 581 690 581 758 q 546 578 581 631 q 455 489 511 525 q 333 439 399 453 q 756 38 589 219 q 849 -76 817 -29 q 881 -162 881 -124 q 842 -252 881 -218 q 757 -286 804 -286 q 657 -251 704 -286 q 582 -158 610 -217 l 582 -156 l 707 -62 q 219 414 563 115 q 182 448 197 435 q 156 471 167 461 q 66 565 96 525 q 25 642 36 604 q 14 732 14 681 q 45 857 14 799 q 138 951 76 915 q 285 986 200 986 m 344 836 q 247 812 289 836 q 181 749 204 788 q 158 672 158 711 q 167 614 158 642 q 200 558 175 586 q 310 598 260 569 q 389 664 360 626 q 418 735 418 701 q 397 807 418 778 q 344 836 376 836 z "},"*":{"ha":840,"x_min":47,"x_max":793,"o":"m 375 810 l 314 733 l 151 597 l 50 735 l 260 849 l 347 864 l 261 875 l 47 972 l 149 1126 l 314 990 l 375 921 l 335 1011 l 319 1219 l 508 1219 l 494 1011 l 446 921 l 511 999 l 675 1124 l 793 971 l 561 876 l 474 864 l 561 847 l 790 733 l 672 600 l 511 733 l 449 810 l 489 724 l 508 513 l 319 513 l 335 724 l 375 810 z "},"\\":{"ha":561,"x_min":21,"x_max":540,"o":"m 540 -246 l 369 -246 l 21 1085 l 192 1085 l 540 -246 z "},"·":{"ha":524,"x_min":111,"x_max":413,"o":"m 272 715 q 375 681 338 715 q 413 583 413 646 q 363 476 413 518 q 249 435 314 435 q 151 471 192 435 q 111 561 111 507 q 135 637 111 601 q 197 694 160 672 q 272 715 235 715 z "},"•":{"ha":624,"x_min":83,"x_max":547,"o":"m 304 300 q 196 328 247 300 q 114 405 144 357 q 83 510 83 453 q 117 629 83 574 q 208 718 151 685 q 328 751 264 751 q 438 724 388 751 q 517 647 488 696 q 547 540 547 599 q 514 421 547 476 q 424 333 481 365 q 304 300 368 300 z "},":":{"ha":544,"x_min":121,"x_max":424,"o":"m 283 756 q 387 720 350 756 q 424 625 424 685 q 374 519 424 561 q 260 476 325 476 q 162 512 203 476 q 121 603 121 547 q 144 677 121 642 q 206 734 168 713 q 283 756 243 756 m 283 256 q 386 219 349 256 q 424 124 424 183 q 374 17 424 58 q 260 -25 325 -25 q 162 10 203 -25 q 121 101 121 46 q 144 176 121 140 q 206 233 168 211 q 283 256 244 256 z "},",":{"ha":540,"x_min":122,"x_max":439,"o":"m 261 219 q 392 116 346 189 q 439 -53 439 43 q 363 -272 436 -178 q 174 -404 290 -365 l 122 -357 l 122 -319 q 208 -249 176 -297 q 239 -137 239 -200 q 204 -53 239 -92 q 122 -10 169 -14 l 122 44 l 261 219 z "},"…":{"ha":1625,"x_min":121,"x_max":1504,"o":"m 283 261 q 386 225 349 261 q 424 129 424 189 q 374 23 424 65 q 260 -19 325 -19 q 162 16 203 -19 q 121 107 121 51 q 145 183 121 147 q 208 240 169 218 q 283 261 246 261 m 824 261 q 926 225 889 261 q 964 129 964 189 q 915 23 964 65 q 800 -19 865 -19 q 702 16 742 -19 q 663 107 663 51 q 687 183 663 147 q 749 240 711 219 q 824 261 786 261 m 1364 261 q 1467 226 1431 261 q 1504 129 1504 190 q 1455 22 1504 64 q 1340 -19 1406 -19 q 1243 16 1283 -19 q 1203 107 1203 51 q 1227 183 1203 147 q 1289 240 1251 219 q 1364 261 1326 261 z "},"!":{"ha":551,"x_min":114,"x_max":438,"o":"m 335 385 l 211 385 l 114 1207 l 438 1207 l 335 385 m 283 258 q 386 222 349 258 q 424 126 424 186 q 374 19 424 61 q 260 -22 325 -22 q 162 13 203 -22 q 121 104 121 49 q 144 178 121 143 q 206 236 168 214 q 283 258 244 258 z "},"¡":{"ha":551,"x_min":114,"x_max":438,"o":"m 297 976 q 401 941 364 976 q 438 844 438 906 q 388 738 438 781 q 274 696 338 696 q 176 732 217 696 q 136 822 136 768 q 160 899 136 863 q 222 956 183 935 q 297 976 260 976 m 438 -301 l 114 -301 l 217 560 l 340 560 l 438 -301 z "},"#":{"ha":1010,"x_min":76,"x_max":933,"o":"m 76 233 l 76 382 l 236 382 l 254 563 l 94 563 l 94 708 l 263 708 l 289 919 l 456 919 l 438 708 l 603 708 l 621 919 l 799 919 l 781 708 l 933 708 l 933 563 l 764 563 l 749 382 l 907 382 l 908 233 l 735 233 l 714 0 l 540 0 l 558 233 l 400 233 l 376 0 l 203 0 l 224 233 l 76 233 m 588 563 l 429 563 l 413 382 l 572 382 l 588 563 z "},".":{"ha":544,"x_min":121,"x_max":424,"o":"m 283 261 q 386 225 349 261 q 424 129 424 189 q 374 23 424 65 q 260 -19 325 -19 q 162 16 203 -19 q 121 107 121 51 q 145 183 121 147 q 208 240 169 218 q 283 261 246 261 z "},"?":{"ha":721,"x_min":46,"x_max":646,"o":"m 215 1263 q 440 1207 343 1256 q 592 1072 538 1158 q 646 871 646 986 q 627 758 646 794 q 556 699 608 722 l 497 672 q 381 613 413 633 q 349 564 349 592 q 367 477 349 526 q 415 368 386 428 l 246 368 q 166 471 199 413 q 133 579 133 529 q 170 649 133 619 q 256 698 207 679 q 383 739 306 717 q 458 763 447 758 q 497 782 483 774 q 510 800 510 790 q 472 924 510 863 q 358 1026 435 985 q 168 1067 281 1067 q 57 1043 88 1067 l 46 1228 q 114 1253 60 1244 q 215 1263 168 1263 m 389 258 q 492 222 454 258 q 529 126 529 186 q 479 20 529 63 q 365 -22 429 -22 q 268 13 308 -22 q 228 104 228 49 q 251 181 228 144 q 313 238 275 217 q 389 258 351 258 z "},"¿":{"ha":721,"x_min":82,"x_max":682,"o":"m 364 988 q 467 951 429 988 q 504 856 504 915 q 454 749 504 792 q 340 707 404 707 q 243 742 283 707 q 203 833 203 778 q 226 910 203 874 q 288 967 250 946 q 364 988 326 988 m 482 606 q 562 503 529 561 q 594 394 594 444 q 558 324 594 354 q 472 276 521 294 q 344 235 422 257 q 269 211 281 215 q 231 192 244 200 q 218 174 218 183 q 256 50 218 111 q 370 -52 293 -11 q 560 -93 447 -93 q 671 -69 640 -93 l 682 -254 q 614 -280 668 -271 q 513 -289 560 -289 q 288 -233 385 -282 q 136 -99 190 -185 q 82 103 82 -12 q 101 215 82 179 q 172 275 119 251 l 231 301 q 347 361 315 340 q 379 410 379 382 q 360 497 379 447 q 313 606 342 546 l 482 606 z "},"\"":{"ha":856,"x_min":118,"x_max":738,"o":"m 365 1208 l 308 649 l 175 649 l 118 1208 l 365 1208 m 738 1208 l 679 649 l 547 649 l 490 1208 l 738 1208 z "},"'":{"ha":483,"x_min":118,"x_max":365,"o":"m 365 1208 l 308 649 l 175 649 l 118 1208 l 365 1208 z "},";":{"ha":561,"x_min":122,"x_max":460,"o":"m 283 756 q 387 721 350 756 q 424 625 424 686 q 374 518 424 560 q 260 476 325 476 q 163 512 203 476 q 122 603 122 547 q 146 678 122 643 q 207 735 169 714 q 283 756 244 756 m 282 219 q 412 117 364 190 q 460 -46 460 44 q 386 -269 460 -172 q 196 -404 313 -367 l 143 -357 l 143 -319 q 228 -249 197 -297 q 260 -137 260 -200 q 225 -53 260 -92 q 144 -10 190 -14 l 144 44 l 282 219 z "},"/":{"ha":561,"x_min":21,"x_max":540,"o":"m 540 1085 l 192 -246 l 21 -246 l 369 1085 l 540 1085 z "},"_":{"ha":964,"x_min":-14,"x_max":974,"o":"m 974 -289 l -14 -289 l -14 -131 l 974 -131 l 974 -289 z "},"{":{"ha":768,"x_min":56,"x_max":597,"o":"m 175 379 q 140 433 175 414 q 56 457 106 453 l 56 607 q 144 627 114 611 q 175 678 175 643 l 175 1057 q 223 1185 175 1146 q 363 1225 271 1225 q 432 1219 400 1225 q 524 1196 464 1213 q 597 1175 553 1186 l 597 1090 l 389 1090 l 389 658 q 374 603 389 625 q 337 569 360 582 q 269 538 314 556 l 243 526 q 355 468 321 496 q 389 390 389 440 l 389 -40 l 597 -40 l 597 -126 q 460 -165 500 -156 q 376 -175 421 -175 q 225 -133 275 -175 q 175 7 175 -90 l 175 379 z "},"}":{"ha":768,"x_min":167,"x_max":708,"o":"m 376 390 q 410 469 376 442 q 521 526 444 496 q 436 563 464 549 q 392 600 408 578 q 376 658 376 622 l 376 1090 l 168 1090 l 167 1175 q 401 1225 335 1225 q 542 1185 496 1225 q 589 1057 589 1146 l 589 678 q 621 627 589 643 q 708 607 653 611 l 708 457 q 624 432 658 453 q 589 379 589 411 l 589 7 q 539 -133 589 -92 q 389 -175 489 -175 q 300 -163 349 -175 q 167 -126 251 -151 l 168 -40 l 376 -40 l 376 390 z "},"[":{"ha":758,"x_min":175,"x_max":600,"o":"m 175 1025 q 224 1181 175 1138 q 388 1224 274 1224 q 481 1210 432 1224 q 599 1171 531 1196 l 597 1088 l 389 1088 l 389 -19 l 597 -22 l 600 -107 q 500 -142 564 -128 q 389 -156 436 -156 q 260 -134 306 -156 q 194 -63 214 -112 q 175 75 175 -14 l 175 1025 z "},"]":{"ha":758,"x_min":154,"x_max":579,"o":"m 365 1088 l 157 1088 l 156 1171 q 273 1210 224 1196 q 367 1224 322 1224 q 530 1181 481 1224 q 579 1025 579 1138 l 579 75 q 560 -63 579 -14 q 494 -134 540 -112 q 365 -156 449 -156 q 254 -142 318 -156 q 154 -107 190 -128 l 157 -22 l 365 -19 l 365 1088 z "},"(":{"ha":686,"x_min":108,"x_max":588,"o":"m 485 -239 q 202 53 296 -135 q 108 483 108 240 q 153 769 108 628 q 281 1023 199 910 q 471 1203 364 1136 l 568 1126 q 393 867 451 1040 q 335 489 335 693 q 403 115 335 296 q 588 -161 472 -65 l 485 -239 z "},")":{"ha":686,"x_min":97,"x_max":576,"o":"m 117 -169 q 292 90 233 -83 q 350 468 350 264 q 281 842 350 661 q 97 1118 213 1022 l 200 1196 q 483 904 389 1092 q 576 474 576 717 q 531 188 576 329 q 403 -66 486 47 q 214 -246 321 -179 l 117 -169 z "},"—":{"ha":1638,"x_min":124,"x_max":1514,"o":"m 1514 650 l 1514 492 l 124 492 l 124 650 l 1514 650 z "},"–":{"ha":1024,"x_min":124,"x_max":900,"o":"m 900 650 l 900 490 l 124 490 l 128 650 l 900 650 z "},"-":{"ha":896,"x_min":124,"x_max":771,"o":"m 771 650 l 771 490 l 124 490 l 124 650 l 771 650 z "},"­":{"ha":896,"x_min":124,"x_max":771,"o":"m 124 490 m 771 650 l 771 490 l 124 490 l 124 650 l 771 650 z "},"«":{"ha":1461,"x_min":156,"x_max":1306,"o":"m 657 776 l 715 683 l 406 417 l 715 161 l 657 61 l 156 307 l 156 514 l 657 776 m 1247 776 l 1306 683 l 997 417 l 1306 161 l 1247 61 l 747 307 l 747 514 l 1247 776 z "},"»":{"ha":1461,"x_min":151,"x_max":1303,"o":"m 460 419 l 151 675 l 210 776 l 711 531 l 711 324 l 210 61 l 151 153 l 460 419 m 743 675 l 801 776 l 1303 531 l 1303 324 l 801 61 l 743 153 l 1051 419 l 743 675 z "},"‹":{"ha":869,"x_min":156,"x_max":715,"o":"m 657 776 l 715 683 l 406 417 l 715 161 l 657 61 l 156 307 l 156 514 l 657 776 z "},"›":{"ha":869,"x_min":151,"x_max":711,"o":"m 460 419 l 151 675 l 210 776 l 711 531 l 711 324 l 210 61 l 151 153 l 460 419 z "},"„":{"ha":1010,"x_min":131,"x_max":878,"o":"m 315 301 q 415 234 374 281 q 478 128 457 188 q 494 8 499 68 q 453 -158 493 -78 q 348 -297 414 -237 q 203 -385 282 -356 l 131 -321 l 131 -292 q 194 -245 163 -281 q 244 -165 225 -210 q 264 -82 264 -119 q 231 8 264 -32 q 157 53 199 49 l 157 106 l 315 301 m 697 301 q 829 191 781 271 q 878 19 878 111 q 839 -151 878 -69 q 733 -293 800 -232 q 585 -385 667 -354 l 514 -321 l 514 -292 q 576 -246 544 -282 q 627 -164 607 -210 q 647 -82 647 -118 q 615 6 647 -36 q 540 53 582 49 l 540 106 l 697 301 z "},"“":{"ha":1042,"x_min":133,"x_max":913,"o":"m 314 515 q 182 628 231 543 q 133 807 133 713 q 172 971 133 892 q 278 1110 211 1050 q 425 1200 344 1169 l 496 1136 l 496 1108 q 433 1060 464 1096 q 383 980 403 1025 q 364 897 364 935 q 397 808 364 849 q 471 763 429 767 l 471 711 l 314 515 m 729 515 q 598 629 646 544 q 550 807 550 714 q 589 971 550 892 q 694 1110 628 1050 q 840 1200 761 1169 l 913 1136 l 913 1108 q 821 1022 863 1089 q 779 897 779 956 q 813 808 779 850 q 888 763 847 767 l 888 711 l 729 515 z "},"”":{"ha":1043,"x_min":131,"x_max":911,"o":"m 131 607 q 194 653 163 618 q 244 734 225 689 q 264 817 264 779 q 231 907 264 867 q 156 951 197 947 l 156 1004 l 314 1200 q 447 1090 399 1169 q 494 918 494 1011 q 456 746 494 828 q 351 604 418 664 q 203 515 285 544 l 131 578 l 131 607 m 547 607 q 609 653 578 617 q 660 735 640 689 q 681 817 681 781 q 648 904 681 861 q 574 951 615 947 l 574 1004 l 729 1200 q 862 1090 813 1171 q 911 918 911 1010 q 872 748 911 831 q 767 604 833 665 q 619 515 700 543 l 547 578 l 547 607 z "},"‘":{"ha":625,"x_min":132,"x_max":494,"o":"m 313 515 q 179 628 226 546 q 132 808 132 710 q 219 1049 138 942 q 425 1201 301 1156 l 494 1138 l 494 1108 q 433 1061 464 1097 q 383 980 403 1025 q 363 897 363 935 q 396 810 363 853 q 469 764 429 768 l 469 711 l 313 515 z "},"’":{"ha":625,"x_min":131,"x_max":493,"o":"m 131 608 q 192 657 161 621 q 244 738 224 693 q 264 819 264 782 q 231 909 264 868 q 156 954 197 950 l 156 1007 l 313 1203 q 445 1093 397 1172 q 493 921 493 1014 q 454 751 493 832 q 349 608 415 669 q 201 518 283 547 l 131 579 l 131 608 z "},"‚":{"ha":625,"x_min":131,"x_max":493,"o":"m 313 299 q 446 190 399 268 q 493 17 493 111 q 416 -214 493 -117 q 201 -367 339 -311 l 131 -303 l 131 -274 q 223 -197 183 -253 q 263 -83 263 -140 q 229 6 263 -35 q 156 51 196 47 l 156 103 l 313 299 z "},"ॽ":{"ha":789,"x_min":124,"x_max":671,"o":"m 353 933 q 496 876 421 933 q 621 735 571 819 q 671 578 671 651 q 635 468 671 522 q 543 383 600 414 q 418 339 503 361 l 418 -51 l 386 -51 l 232 36 l 232 447 l 244 471 q 475 528 404 485 q 526 578 507 546 q 544 651 544 611 q 505 749 544 707 q 413 790 465 790 q 309 765 354 790 q 203 681 264 739 l 124 838 q 246 905 179 876 q 353 933 313 933 z "},"।":{"ha":756,"x_min":339,"x_max":525,"o":"m 525 879 l 525 -51 l 493 -51 l 339 36 l 339 967 l 371 967 l 525 879 z "},"॥":{"ha":1122,"x_min":339,"x_max":892,"o":"m 525 879 l 525 -51 l 493 -51 l 339 36 l 339 967 l 371 967 l 525 879 m 892 879 l 892 -51 l 860 -51 l 706 36 l 706 967 l 738 967 l 892 879 z "},"॰":{"ha":621,"x_min":72,"x_max":549,"o":"m 72 372 q 114 487 72 432 q 215 576 156 542 q 318 610 274 610 q 430 585 376 610 q 516 512 483 560 q 549 400 549 464 q 506 281 549 336 q 405 192 464 225 q 303 158 346 158 q 190 185 243 158 q 104 261 136 213 q 72 372 72 310 m 213 426 q 233 333 213 372 q 280 272 253 293 q 328 250 307 250 q 383 276 357 250 q 410 342 410 303 q 392 427 410 386 q 347 494 374 468 q 296 519 321 519 q 239 492 265 519 q 213 426 213 465 z "},"ॱ":{"ha":435,"x_min":63,"x_max":372,"o":"m 372 853 l 218 697 l 63 853 l 218 1007 l 372 853 z "}," ":{"ha":1389,"x_min":0,"x_max":0,"o":""}," ":{"ha":1389,"x_min":0,"x_max":0,"o":""}," ":{"ha":694,"x_min":0,"x_max":0,"o":""}," ":{"ha":694,"x_min":0,"x_max":0,"o":""}," ":{"ha":874,"x_min":0,"x_max":0,"o":""}," ":{"ha":347,"x_min":0,"x_max":0,"o":""}," ":{"ha":139,"x_min":0,"x_max":0,"o":""}," ":{"ha":490,"x_min":0,"x_max":0,"o":""}," ":{"ha":232,"x_min":0,"x_max":0,"o":""}," ":{"ha":311,"x_min":0,"x_max":0,"o":""}," ":{"ha":278,"x_min":0,"x_max":0,"o":""}," ":{"ha":463,"x_min":0,"x_max":0,"o":""},"‍":{"ha":833,"x_min":0,"x_max":0,"o":""},"‌":{"ha":833,"x_min":0,"x_max":0,"o":""},"":{"ha":0,"x_min":0,"x_max":0,"o":""},"¢":{"ha":824,"x_min":64,"x_max":761,"o":"m 349 -10 q 139 113 214 15 q 64 356 64 211 q 110 560 64 469 q 239 706 156 650 q 432 776 322 763 l 440 924 l 572 924 l 564 779 q 736 746 683 771 l 736 531 l 611 531 l 558 658 q 468 675 531 675 q 351 597 389 675 q 314 401 314 518 q 371 194 314 272 q 535 115 428 115 q 640 128 586 115 q 725 163 694 140 l 761 78 q 479 -18 661 -7 l 472 -147 l 340 -147 l 349 -10 z "},"¤":{"ha":1011,"x_min":101,"x_max":910,"o":"m 360 722 q 499 757 424 757 q 639 721 571 757 l 803 879 l 910 771 l 750 614 q 790 467 790 549 q 753 322 790 388 l 899 174 l 792 67 l 644 215 q 499 176 578 176 q 357 213 422 176 l 210 65 l 101 172 l 247 318 q 207 467 207 383 q 249 618 207 547 l 106 764 l 211 872 l 360 722 m 500 594 q 413 556 450 594 q 375 467 375 517 q 413 377 375 417 q 500 338 450 338 q 585 377 549 338 q 622 467 622 417 q 586 556 622 517 q 500 594 550 594 z "},"$":{"ha":926,"x_min":82,"x_max":844,"o":"m 188 318 l 251 154 q 327 99 282 113 q 442 86 372 86 q 560 125 517 86 q 603 236 603 164 q 447 403 603 321 q 240 522 311 475 q 126 629 169 568 q 82 774 82 690 q 173 971 82 894 q 404 1061 264 1047 l 407 1201 l 551 1201 l 549 1058 q 775 1014 724 1040 l 775 789 l 664 789 l 600 932 q 540 954 588 944 q 469 964 493 964 q 357 936 401 964 q 311 853 313 908 q 361 734 311 783 q 510 631 411 685 q 708 514 646 554 q 807 419 769 474 q 844 286 844 364 q 797 132 844 199 q 669 28 750 65 q 488 -17 588 -10 l 481 -164 l 329 -164 l 335 -14 q 86 43 150 7 l 86 318 l 188 318 z "},"€":{"ha":1151,"x_min":58,"x_max":1022,"o":"m 713 1063 q 806 1053 764 1063 q 899 1029 849 1044 q 935 1019 904 1028 q 993 1010 967 1010 q 1022 1014 1007 1010 l 1011 758 l 903 758 l 854 888 q 675 939 790 939 q 524 883 574 939 q 461 717 475 826 l 761 717 l 761 600 l 451 600 l 451 519 l 451 468 l 749 468 l 749 356 l 461 356 q 537 164 478 229 q 706 99 596 99 q 810 121 767 97 q 856 184 832 133 q 896 289 881 235 l 1022 289 l 1022 43 q 996 46 1006 46 q 956 40 976 46 q 904 24 936 35 q 798 -8 850 4 q 671 -19 746 -19 q 360 81 489 -19 q 193 356 232 181 l 58 356 l 58 468 l 181 468 l 181 485 q 189 600 181 540 l 79 600 l 79 717 l 217 717 q 402 975 274 888 q 713 1063 531 1063 z "},"ƒ":{"ha":668,"x_min":69,"x_max":692,"o":"m 69 619 l 75 690 l 203 744 l 210 815 q 267 990 217 907 q 394 1125 317 1074 q 561 1176 472 1176 q 631 1170 593 1176 q 692 1154 668 1164 l 678 978 q 543 1015 600 1015 q 466 988 486 1015 q 439 888 446 961 l 429 758 l 608 758 l 608 619 l 418 619 l 351 -240 l 128 -240 l 194 619 l 69 619 z "},"₹":{"ha":876,"x_min":149,"x_max":817,"o":"m 540 785 q 594 653 586 722 l 817 653 l 817 622 l 758 510 l 567 510 q 457 399 529 442 q 296 326 385 356 l 704 76 l 575 -67 l 267 244 q 210 315 229 282 q 189 368 192 347 l 196 374 q 299 422 236 385 q 397 511 361 458 l 149 511 l 149 540 l 210 654 l 425 654 q 347 786 410 718 l 149 786 l 149 815 l 210 929 l 817 929 l 817 899 l 758 786 l 540 785 z "},"£":{"ha":1050,"x_min":1,"x_max":956,"o":"m 631 1064 q 749 1046 692 1064 q 850 990 806 1028 l 744 799 q 660 909 710 867 q 557 951 611 951 q 495 894 508 951 q 482 714 482 836 l 482 672 l 482 604 l 651 604 l 651 468 l 482 468 l 482 431 q 464 261 482 332 q 399 139 446 190 q 472 124 428 138 q 540 108 511 114 q 601 103 569 103 q 704 133 658 103 q 750 203 750 163 q 729 257 750 231 q 685 293 708 283 l 778 475 q 867 432 826 467 q 932 348 908 397 q 956 247 956 299 q 913 103 956 165 q 795 7 869 40 q 631 -26 721 -26 q 510 -12 563 -26 q 403 25 458 1 q 343 47 364 40 q 301 53 322 53 q 110 -19 233 -19 q 33 -1 65 -19 q 1 49 1 17 q 69 131 1 101 q 221 161 136 161 q 237 221 233 186 q 240 306 240 256 l 240 468 l 133 468 l 133 604 l 240 604 l 240 636 q 290 851 240 753 q 428 1006 339 949 q 631 1064 518 1064 z "},"¥":{"ha":1035,"x_min":19,"x_max":957,"o":"m 383 125 l 383 238 l 139 238 l 139 350 l 383 350 l 383 443 l 360 482 l 139 482 l 139 596 l 293 596 l 97 928 l 19 942 l 19 1053 l 446 1053 l 446 944 l 375 931 l 488 688 l 526 596 l 536 596 l 579 693 q 628 802 599 733 q 682 926 658 871 l 576 942 l 576 1053 l 957 1053 l 957 942 l 863 915 l 690 596 l 879 596 l 879 482 l 629 482 l 625 475 l 625 350 l 879 350 l 879 238 l 625 238 l 625 126 l 800 94 l 800 0 l 221 0 l 221 94 l 383 125 z "},"≈":{"ha":943,"x_min":124,"x_max":819,"o":"m 124 713 q 169 788 129 749 q 263 853 208 826 q 358 879 317 879 q 427 866 397 879 q 494 828 457 853 q 553 794 531 804 q 604 783 575 783 q 676 801 640 783 q 753 851 711 818 l 819 767 q 774 688 813 726 q 685 624 736 649 q 588 599 633 599 q 521 610 547 599 q 460 647 494 622 q 401 683 426 671 q 338 694 375 694 q 263 678 294 694 q 190 628 232 663 l 124 713 m 124 315 q 169 390 129 351 q 263 456 208 429 q 358 482 317 482 q 427 469 397 482 q 494 431 457 456 q 553 397 531 407 q 604 386 576 386 q 676 403 640 386 q 753 454 711 421 l 819 369 q 774 290 813 329 q 685 226 736 251 q 588 201 633 201 q 521 213 547 201 q 460 250 494 225 q 401 285 426 274 q 338 297 375 297 q 263 281 294 297 q 190 231 232 265 l 124 315 z "},"~":{"ha":893,"x_min":99,"x_max":794,"o":"m 99 578 q 144 653 104 614 q 238 718 183 692 q 333 744 292 744 q 402 731 372 744 q 469 693 432 718 q 528 659 506 669 q 579 649 551 649 q 651 666 615 649 q 728 717 686 683 l 794 632 q 749 553 788 592 q 660 489 711 514 q 563 464 608 464 q 496 476 522 464 q 435 513 469 488 q 376 548 401 536 q 313 560 350 560 q 238 544 269 560 q 165 493 207 528 l 99 578 z "},"÷":{"ha":950,"x_min":124,"x_max":825,"o":"m 507 1053 q 608 1019 574 1053 q 643 925 643 986 q 596 818 643 860 q 483 776 549 776 q 388 813 426 776 q 349 903 349 849 q 372 976 349 942 q 431 1032 394 1011 q 507 1053 467 1053 m 825 490 l 124 490 l 124 650 l 825 650 l 825 490 m 507 363 q 607 330 571 363 q 643 235 643 297 q 595 128 643 171 q 483 86 547 86 q 388 122 426 86 q 349 213 349 158 q 372 288 349 253 q 431 342 394 322 q 507 363 468 363 z "},"=":{"ha":896,"x_min":124,"x_max":771,"o":"m 771 821 l 771 664 l 124 664 l 124 821 l 771 821 m 771 449 l 771 292 l 124 292 l 124 449 l 771 449 z "},">":{"ha":906,"x_min":124,"x_max":782,"o":"m 528 524 l 124 692 l 124 897 l 782 568 l 782 476 l 124 136 l 124 335 l 528 524 z "},"≥":{"ha":908,"x_min":124,"x_max":785,"o":"m 496 660 l 128 786 l 128 979 l 785 706 l 785 614 l 128 344 l 128 538 l 496 660 m 771 240 l 771 81 l 124 81 l 124 240 l 771 240 z "},"∆":{"ha":1200,"x_min":88,"x_max":1113,"o":"m 550 1028 l 599 1028 l 1113 32 l 1089 0 l 110 0 l 88 29 l 550 1028 m 543 649 l 347 211 l 761 211 l 543 649 z "},"∞":{"ha":1582,"x_min":104,"x_max":1478,"o":"m 1142 758 q 1309 722 1232 758 q 1432 618 1386 685 q 1478 465 1478 551 q 1422 297 1478 386 q 1283 147 1367 207 q 1119 86 1199 86 q 928 138 1014 86 q 765 286 843 189 q 442 86 592 86 q 278 122 354 86 q 155 224 201 158 q 106 374 108 290 q 159 544 104 454 q 299 697 214 635 q 465 758 385 758 q 654 709 572 758 q 818 560 736 660 q 1142 758 993 758 m 1075 597 q 990 565 1035 597 q 899 474 944 533 q 1048 322 978 379 q 1181 265 1118 265 q 1249 310 1219 265 q 1278 408 1278 356 q 1247 499 1278 456 q 1167 570 1215 543 q 1075 597 1119 597 m 404 579 q 335 534 364 579 q 306 436 306 489 q 338 346 306 389 q 417 276 369 303 q 510 249 465 249 q 596 281 550 249 q 686 372 642 313 q 531 527 594 475 q 404 579 468 579 z "},"∫":{"ha":846,"x_min":29,"x_max":815,"o":"m 606 1161 q 815 1063 763 1161 l 704 968 q 665 1028 694 1001 q 603 1054 635 1054 q 507 1000 533 1054 q 481 847 481 946 q 493 667 481 757 q 531 450 506 578 q 567 238 554 325 q 579 64 579 151 q 537 -130 579 -42 q 417 -269 494 -218 q 240 -319 340 -319 q 113 -295 168 -319 q 29 -221 57 -271 l 140 -119 q 181 -178 150 -151 q 242 -206 211 -206 q 338 -152 311 -206 q 365 0 365 -99 q 352 163 365 76 q 314 376 339 250 q 273 608 286 521 q 260 778 260 694 q 304 974 260 886 q 428 1111 349 1061 q 606 1161 507 1161 z "},"<":{"ha":906,"x_min":124,"x_max":782,"o":"m 782 908 l 782 710 l 378 521 l 782 353 l 782 147 l 124 476 l 124 568 l 782 908 z "},"≤":{"ha":908,"x_min":124,"x_max":785,"o":"m 785 979 l 785 786 l 417 660 l 785 538 l 785 344 l 128 614 l 128 706 l 785 979 m 771 240 l 771 81 l 124 81 l 124 240 l 771 240 z "},"¬":{"ha":944,"x_min":124,"x_max":819,"o":"m 819 650 l 819 249 l 607 249 l 607 506 l 124 506 l 124 650 l 819 650 z "},"−":{"ha":896,"x_min":124,"x_max":771,"o":"m 771 650 l 771 490 l 124 490 l 124 650 l 771 650 z "},"×":{"ha":964,"x_min":126,"x_max":838,"o":"m 372 563 l 126 799 l 246 921 l 482 674 l 718 921 l 838 799 l 592 563 l 838 328 l 718 204 l 482 453 l 246 204 l 126 328 l 372 563 z "},"≠":{"ha":896,"x_min":124,"x_max":771,"o":"m 124 292 l 124 449 l 346 449 l 408 664 l 124 664 l 124 821 l 464 821 l 510 960 l 660 960 l 614 821 l 771 821 l 771 664 l 558 664 l 494 449 l 771 449 l 771 292 l 440 292 l 386 119 l 236 119 l 290 292 l 124 292 z "},"∂":{"ha":1004,"x_min":72,"x_max":910,"o":"m 483 1190 q 803 1057 697 1190 q 910 688 910 924 q 851 320 910 486 q 675 54 793 154 q 383 -46 557 -46 q 221 -5 292 -46 q 111 106 150 36 q 72 264 72 176 q 148 497 72 390 q 346 665 224 603 q 600 726 468 726 q 700 718 650 726 q 610 963 683 878 q 397 1049 536 1049 q 215 1000 299 1049 l 149 1089 q 309 1164 224 1138 q 483 1190 394 1190 m 507 588 q 338 520 400 588 q 276 339 276 453 q 306 219 276 276 q 385 128 335 163 q 497 94 436 94 q 638 191 589 94 q 699 429 686 288 q 706 521 706 517 q 507 588 607 588 z "},"%":{"ha":1449,"x_min":74,"x_max":1360,"o":"m 543 -119 l 381 -119 l 871 1200 l 1033 1200 l 543 -119 m 350 968 q 538 902 471 968 q 604 721 604 836 q 567 588 604 644 q 467 500 531 531 q 328 469 404 469 q 197 501 254 469 q 106 590 139 533 q 74 714 74 646 q 111 847 74 789 q 212 937 149 906 q 350 968 275 968 m 340 871 q 269 825 293 871 q 244 719 244 779 q 258 650 244 686 q 296 590 272 614 q 347 567 319 567 q 410 607 388 567 q 433 715 433 647 q 407 823 433 775 q 340 871 381 871 m 1106 610 q 1293 544 1226 610 q 1360 363 1360 478 q 1323 229 1360 286 q 1223 142 1286 172 q 1083 111 1160 111 q 952 144 1010 111 q 862 232 894 176 q 829 356 829 288 q 867 490 829 432 q 967 578 904 547 q 1106 610 1031 610 m 1100 513 q 1029 468 1054 513 q 1004 361 1004 424 q 1019 290 1004 326 q 1057 231 1033 254 q 1106 208 1081 208 q 1169 248 1146 208 q 1192 357 1192 288 q 1165 465 1192 418 q 1100 513 1139 513 z "}}}
